{"glyphs":{"0":{"ha":581,"x_min":0,"x_max":0,"o":"m 238 825 b 28 300 144 825 28 554 b 79 43 28 178 36 89 b 261 -36 132 -14 193 -36 b 442 78 340 -36 392 -4 b 539 453 500 175 539 313 b 439 750 539 558 507 728 b 238 825 386 767 354 825 z m 301 774 b 488 467 371 774 488 699 b 261 -1 488 214 381 -1 b 96 268 181 -1 96 51 b 301 774 96 485 201 774 z "},"1":{"ha":242,"x_min":0,"x_max":0,"o":"m 163 810 b 122 781 126 810 122 797 b 81 597 122 764 81 619 b 107 538 81 560 107 558 b 72 75 107 400 72 132 b 135 -18 72 -4 107 -18 b 151 1 150 -18 151 -11 b 140 165 151 14 140 65 b 203 779 140 388 203 764 b 163 810 203 794 190 810 z "},"2":{"ha":557,"x_min":0,"x_max":0,"o":"m 219 846 b 144 789 183 846 163 825 b 53 497 96 693 53 554 b 83 435 53 453 65 435 b 138 529 107 435 128 486 b 242 807 186 736 185 807 b 385 676 317 807 385 776 b 110 88 385 478 213 190 b 22 32 68 46 22 49 b 86 -26 22 1 51 -26 b 181 -7 99 -26 126 -17 b 419 15 257 7 354 15 b 522 7 479 15 514 7 b 543 32 535 7 543 18 b 531 43 543 35 543 39 b 347 61 504 51 443 61 b 149 56 315 61 211 58 b 468 649 279 196 468 479 b 219 846 468 758 342 846 z "},"3":{"ha":551,"x_min":0,"x_max":0,"o":"m 257 850 b 74 535 133 847 74 621 b 118 453 74 493 93 453 b 179 686 160 453 179 572 b 286 813 179 786 229 813 b 396 685 344 813 396 774 b 308 453 396 608 368 504 b 263 458 293 456 278 458 b 192 400 215 458 192 424 b 215 368 192 381 201 368 b 293 393 239 368 267 376 b 428 242 390 421 428 343 b 235 -7 428 108 326 -7 b 58 140 139 -7 89 75 b 36 160 53 153 46 160 b 13 121 26 160 13 144 b 251 -40 13 51 131 -40 b 504 238 374 -40 504 64 b 407 408 504 308 479 365 b 351 438 386 419 368 431 b 465 685 414 499 465 592 b 257 850 465 775 376 854 z "},"4":{"ha":608,"x_min":0,"x_max":0,"o":"m 374 851 b 332 819 360 851 349 842 b 31 336 279 749 31 336 b 13 294 31 336 13 311 b 35 253 13 278 25 265 b 78 213 44 240 60 213 b 356 256 94 213 244 253 b 350 90 351 174 350 110 b 414 -43 350 -39 368 -43 b 438 -33 421 -43 438 -40 b 404 100 438 -22 404 -11 b 411 254 404 135 407 190 b 560 247 486 253 538 247 b 596 269 583 247 596 256 b 575 297 596 283 589 296 b 447 303 560 299 472 303 b 414 301 438 303 426 303 b 450 632 424 419 436 551 b 479 781 464 715 479 774 b 374 851 479 824 419 851 z m 115 282 b 93 306 100 282 93 293 b 132 404 93 318 108 356 b 379 774 172 489 279 678 l 357 299 b 115 282 268 293 164 282 z "},"5":{"ha":576,"x_min":0,"x_max":0,"o":"m 485 822 b 122 796 472 822 144 801 b 82 753 93 789 82 778 b 58 429 82 608 58 453 b 75 368 58 406 63 383 b 110 338 88 353 100 338 b 319 431 119 338 194 431 b 467 283 429 431 467 351 b 235 17 467 133 361 17 b 29 113 132 17 81 113 b -6 85 6 113 -6 101 b 253 -28 -6 28 161 -28 b 536 247 397 -28 536 65 b 283 476 536 379 410 476 b 136 444 211 476 142 444 b 121 463 131 444 121 447 b 142 674 121 478 136 653 b 192 729 151 711 154 718 b 411 761 217 736 342 757 b 499 804 457 764 499 786 b 485 822 499 815 497 822 z "},"6":{"ha":563,"x_min":0,"x_max":0,"o":"m 272 850 b 33 261 154 850 33 482 b 289 -37 33 72 142 -37 b 526 235 446 -37 526 100 b 304 486 526 371 439 486 b 99 360 219 486 138 422 b 322 801 129 540 232 801 b 410 657 389 801 410 714 b 454 567 410 586 418 567 b 486 665 469 567 486 600 b 413 811 486 721 460 794 b 272 850 374 825 308 850 z m 307 449 b 460 275 403 449 460 364 b 285 4 460 126 382 4 b 100 218 165 4 100 47 b 307 449 100 388 244 449 z "},"7":{"ha":492,"x_min":0,"x_max":0,"o":"m 456 822 b 49 779 297 822 165 808 b 17 744 33 775 17 765 b 36 708 17 724 25 708 b 106 728 47 708 78 719 b 304 761 164 744 256 761 b 364 739 342 761 364 750 b 325 654 364 728 339 683 b 65 1 274 544 65 101 b 101 -35 65 -18 83 -35 b 125 -15 119 -35 125 -31 b 147 111 125 0 128 57 b 476 753 222 321 404 653 b 492 778 488 768 492 771 b 479 796 492 785 486 792 b 456 822 465 806 475 822 z "},"8":{"ha":607,"x_min":0,"x_max":0,"o":"m 281 860 b 96 636 179 860 96 718 b 199 461 96 546 142 497 b 15 169 97 374 15 282 b 285 -58 15 25 140 -58 b 561 165 406 -58 561 14 b 324 444 561 288 443 379 l 299 457 b 361 506 319 472 340 489 b 579 779 478 597 579 693 b 546 835 579 808 556 835 b 543 814 536 835 543 825 b 513 750 543 792 528 772 l 497 731 b 281 860 442 785 358 860 z m 303 404 b 497 199 404 346 497 294 b 271 3 497 63 378 3 b 58 142 163 3 58 50 b 261 426 58 242 149 333 b 303 404 275 418 289 411 z m 236 493 b 156 611 190 524 156 560 b 319 813 156 693 254 813 b 465 694 407 813 426 733 b 236 493 400 624 315 558 z "},"9":{"ha":540,"x_min":0,"x_max":0,"o":"m 439 815 b 425 778 429 815 425 806 b 424 751 425 776 424 763 b 260 847 381 793 307 847 b 22 486 147 847 22 592 b 254 269 22 310 169 269 b 390 297 303 269 358 286 b 382 146 385 222 382 164 b 407 -24 382 75 385 -10 b 454 -44 418 -31 444 -44 b 469 -32 464 -44 469 -40 b 440 149 469 -24 440 36 b 499 735 440 299 478 643 b 519 782 506 764 519 774 b 475 808 519 790 494 808 b 439 815 450 808 456 815 z m 231 314 b 86 440 160 314 86 349 b 290 789 86 567 199 789 b 419 701 325 789 388 738 l 394 365 b 231 314 357 332 296 314 z "}," ":{"ha":210,"x_min":0,"x_max":0,"o":""},"!":{"ha":268,"x_min":0,"x_max":0,"o":"m 156 888 b 121 854 135 888 121 872 b 92 382 121 836 92 444 b 144 156 92 228 119 156 b 156 175 156 156 156 168 b 147 336 156 182 147 221 b 206 850 147 660 206 839 b 156 888 206 861 176 888 z m 140 106 b 96 39 122 106 96 61 b 144 -7 96 14 122 -7 b 176 54 167 -7 176 35 b 140 106 176 74 151 106 z "},"\"":{"ha":226,"x_min":0,"x_max":0,"o":"m 119 951 b 108 921 114 951 114 936 b 19 722 85 856 40 763 b 11 703 15 714 11 708 b 24 686 11 693 17 686 b 53 714 35 686 43 696 b 140 921 60 726 140 892 b 119 951 140 938 125 951 z m 188 932 b 175 901 182 932 181 917 b 90 704 151 836 111 744 b 79 678 86 696 79 683 b 92 661 79 668 85 661 b 119 685 103 661 108 667 b 211 900 147 731 211 871 b 188 932 211 917 193 932 z "},"$":{"ha":335,"x_min":0,"x_max":0,"o":"m 128 775 b 54 660 76 775 54 710 b 153 503 54 583 100 533 b 240 410 197 478 240 443 b 182 349 240 376 217 349 b 56 421 122 349 82 390 b 29 432 47 431 36 440 b 38 397 22 424 25 415 b 151 321 51 376 89 333 b 169 228 150 297 149 228 b 182 317 182 228 182 290 l 189 317 b 294 401 261 317 294 357 b 182 526 294 463 240 486 b 100 650 147 550 100 601 b 157 747 100 704 118 747 b 217 633 206 747 217 686 b 240 574 217 592 226 574 b 275 657 254 574 275 615 b 233 744 275 699 257 726 b 178 771 218 756 203 765 b 161 858 176 799 171 858 b 144 775 150 858 146 800 z "},"%":{"ha":629,"x_min":0,"x_max":0,"o":"m 114 869 b 18 607 65 869 18 697 b 124 443 18 467 81 443 b 221 654 194 443 221 556 l 221 669 b 292 651 240 658 264 651 b 453 707 350 651 410 678 b 332 518 413 649 361 565 b 113 93 250 388 144 182 b 93 29 104 69 93 40 b 121 -7 93 18 113 -7 b 146 64 129 -7 131 25 b 594 813 272 376 444 640 b 599 858 607 826 617 844 b 560 850 581 872 571 869 b 299 683 529 796 403 683 b 219 704 263 683 238 690 b 175 833 218 763 210 831 b 114 869 160 851 136 869 z m 444 407 b 368 178 411 407 368 275 b 476 -11 368 43 406 -11 b 578 236 542 -11 578 132 b 482 399 578 332 547 399 b 444 407 464 399 460 407 z m 479 369 b 540 217 525 369 540 275 b 469 14 540 97 506 14 b 413 143 438 14 413 64 b 479 369 413 208 433 369 z m 154 786 b 182 704 154 758 163 728 b 185 651 183 683 185 665 b 117 475 185 585 169 475 b 67 589 89 475 67 522 b 133 825 67 701 117 825 b 154 804 140 825 149 815 z "},"&":{"ha":747,"x_min":0,"x_max":0,"o":"m 529 325 b 338 318 507 325 414 321 b 275 449 314 360 293 404 l 299 472 b 461 738 390 564 461 642 b 308 889 461 821 381 889 b 181 685 244 889 181 803 b 222 472 181 614 197 542 b 39 163 139 382 39 281 b 214 -19 39 56 124 -19 b 444 90 300 -19 379 29 b 518 10 475 54 500 26 b 568 -24 538 -8 550 -24 b 600 -11 586 -24 600 -18 b 581 0 600 -4 590 0 b 529 46 571 0 549 22 b 472 117 511 67 492 92 b 610 286 532 179 579 246 b 714 288 661 286 708 288 b 738 296 725 288 738 288 b 689 324 738 304 729 322 b 529 325 649 325 567 325 z m 293 317 b 229 314 258 315 233 314 b 207 296 213 313 207 307 b 238 278 207 285 217 279 b 314 279 244 276 276 278 b 419 124 349 221 385 168 b 219 19 365 69 293 19 b 81 140 150 19 81 58 b 243 417 81 231 164 333 b 293 317 258 382 275 349 z m 232 671 b 332 858 232 799 293 858 b 421 756 365 858 421 810 b 256 508 421 678 333 592 b 232 671 240 561 232 617 z m 358 281 b 483 286 413 283 467 286 l 518 286 b 492 214 519 269 515 250 b 444 151 479 196 464 174 b 358 281 415 192 386 235 z "},"'":{"ha":139,"x_min":0,"x_max":0,"o":"m 103 938 b 81 886 90 938 89 915 b 28 739 74 861 35 754 b 32 707 21 724 21 715 b 61 719 43 699 53 706 b 132 897 79 751 132 857 b 103 938 132 914 113 938 z "},"(":{"ha":272,"x_min":0,"x_max":0,"o":"m 215 960 b 161 882 194 960 183 943 b 71 413 139 821 71 646 b 178 -82 71 179 147 -36 b 272 -139 208 -128 260 -139 b 289 -132 285 -139 289 -137 b 268 -117 289 -126 281 -125 b 115 415 164 -46 115 285 b 238 903 115 619 199 858 b 260 931 249 915 260 922 b 215 960 260 939 236 960 z "},")":{"ha":264,"x_min":0,"x_max":0,"o":"m 60 963 b 33 944 44 963 33 956 b 61 869 33 933 40 925 b 156 346 107 749 156 588 b 79 -92 156 111 104 -50 b 47 -126 63 -119 47 -118 b 69 -140 47 -135 60 -140 b 135 -71 88 -140 118 -112 b 200 306 161 -7 200 119 b 125 864 200 467 157 754 b 119 919 121 876 119 903 b 60 963 119 947 79 963 z "},"*":{"ha":226,"x_min":0,"x_max":0,"o":"m 83 904 b 90 872 76 899 79 892 b 111 836 93 865 101 851 b 46 817 88 831 63 824 b 26 793 28 810 22 801 b 51 792 31 785 38 786 b 94 804 63 796 78 800 l 79 775 b 78 749 74 763 71 756 b 104 761 88 740 99 750 b 129 806 111 775 119 790 b 165 756 144 782 160 761 b 193 744 178 743 189 739 b 189 765 197 750 197 757 b 154 815 183 771 167 796 b 200 819 172 818 189 819 b 229 838 215 819 229 824 b 210 850 229 844 221 850 b 157 844 197 850 178 849 b 183 878 165 856 174 867 b 188 906 192 889 192 899 b 169 907 183 913 176 915 b 131 857 157 892 143 875 b 111 893 124 872 114 888 b 83 904 106 901 90 910 z "},"+":{"ha":489,"x_min":0,"x_max":0,"o":"m 132 418 b 39 293 79 418 39 363 b 163 163 39 201 106 163 b 228 171 182 163 204 165 l 228 163 b 271 4 228 49 226 4 b 279 13 278 4 279 8 b 263 149 279 22 263 38 b 264 179 263 158 263 169 b 432 221 329 197 397 221 b 479 225 456 221 479 219 b 414 251 479 231 456 251 b 265 210 385 251 324 226 b 311 406 276 306 306 394 b 296 429 317 418 317 429 b 268 399 275 429 272 424 b 246 303 265 382 254 339 b 132 418 233 360 200 418 z m 189 197 b 67 306 132 197 67 232 b 132 382 67 356 93 382 b 226 201 199 382 222 300 b 189 197 213 199 200 197 z "},",":{"ha":214,"x_min":0,"x_max":0,"o":"m 92 111 b 19 -37 86 99 25 -28 b 18 -69 14 -47 6 -61 b 51 -62 31 -78 40 -79 b 121 58 63 -46 115 44 b 119 104 129 76 135 89 b 92 111 101 122 97 124 z "},"-":{"ha":326,"x_min":0,"x_max":0,"o":"m -11 181 b -1 168 -11 172 -6 168 b 49 176 3 168 15 176 b 247 190 82 176 206 176 b 278 222 264 196 278 207 b 271 229 278 228 275 229 b 199 221 267 229 238 224 b 38 213 160 218 51 215 b -11 181 11 208 -11 197 z "},".":{"ha":258,"x_min":0,"x_max":0,"o":"m 113 72 b 72 32 93 72 72 51 b 114 -10 72 13 96 -10 b 153 39 133 -10 153 25 b 113 72 153 53 132 72 z "},"/":{"ha":476,"x_min":0,"x_max":0,"o":"m 515 889 b 514 939 526 910 532 931 b 471 915 501 944 479 932 b -28 -171 294 560 100 142 b -26 -200 -33 -186 -32 -196 b 0 -186 -21 -204 -7 -201 b 515 889 125 108 340 561 z "},":":{"ha":235,"x_min":0,"x_max":0,"o":"m 106 88 b 72 49 88 88 72 67 b 108 14 72 31 86 14 b 140 50 131 14 140 26 b 106 88 140 74 124 88 z m 106 364 b 79 331 88 364 79 349 b 115 289 79 313 96 289 b 154 325 135 289 154 304 b 106 364 154 346 124 364 z "},";":{"ha":244,"x_min":0,"x_max":0,"o":"m 126 404 b 89 367 104 404 89 388 b 126 326 89 346 107 326 b 163 360 146 326 163 342 b 126 404 163 378 149 404 z m 118 121 b 68 42 104 121 99 86 b 8 -37 31 -12 8 -15 b 24 -53 8 -43 14 -53 b 144 88 49 -53 144 63 b 118 121 144 99 124 121 z "},"<":{"ha":563,"x_min":0,"x_max":0,"o":"m 499 679 b 457 638 492 679 482 664 b 54 353 328 499 160 400 b 24 322 33 343 24 336 b 58 281 24 308 38 293 b 483 68 197 197 442 68 b 532 106 497 68 532 96 b 494 122 532 115 525 121 b 125 325 406 128 204 242 b 492 583 264 410 383 493 b 518 624 511 600 518 607 b 499 679 518 640 510 679 z "},">":{"ha":563,"x_min":0,"x_max":0,"o":"m 57 68 b 99 110 64 68 74 83 b 501 394 228 249 396 347 b 532 425 522 404 532 411 b 497 467 532 439 518 454 b 72 679 358 550 114 679 b 24 642 58 679 24 651 b 61 625 24 632 31 626 b 431 422 150 619 351 506 b 64 164 292 338 172 254 b 38 124 44 147 38 140 b 57 68 38 107 46 68 z "},"?":{"ha":496,"x_min":0,"x_max":0,"o":"m 361 900 b -4 478 208 900 -4 626 b 24 438 -4 460 8 438 b 35 469 35 438 35 443 b 372 858 35 600 254 858 b 461 747 429 858 461 814 b 176 200 461 574 176 394 b 204 146 176 154 197 146 b 224 158 215 146 224 149 b 213 208 224 168 213 174 b 506 714 213 347 506 513 b 361 900 506 789 471 900 z m 207 74 b 174 21 190 74 174 40 b 208 -15 174 1 182 -15 b 253 38 235 -15 253 15 b 207 74 253 60 224 74 z "},"A":{"ha":788,"x_min":0,"x_max":0,"o":"m 97 250 b 193 238 97 236 126 238 l 221 238 b -44 -6 142 100 49 -6 b -132 25 -86 -6 -119 7 b -147 39 -135 29 -140 39 b -161 21 -154 39 -161 31 b -7 -72 -161 -24 -69 -72 b 272 239 82 -72 185 72 b 592 265 382 243 521 256 b 663 24 615 156 632 96 b 738 -42 683 -29 696 -42 b 764 -32 750 -42 764 -39 b 735 11 764 -21 753 -24 b 632 363 697 81 653 251 b 588 750 606 508 588 715 b 594 819 588 785 594 804 b 503 876 594 835 521 876 b 465 853 485 876 465 860 b 454 778 465 846 468 817 b 243 276 415 667 339 453 b 97 250 157 268 97 257 z m 461 685 b 504 769 472 722 489 750 b 586 290 522 656 571 368 b 529 292 567 292 546 292 b 294 282 450 292 367 288 b 461 685 375 442 439 611 z "},"B":{"ha":772,"x_min":0,"x_max":0,"o":"m 524 879 b 199 854 410 879 290 867 b 149 897 196 888 175 897 b 131 844 139 897 132 881 l 54 832 b 19 814 39 829 19 826 b 128 788 19 801 46 788 b 104 236 122 653 104 299 b 125 -29 104 31 118 -18 b 163 -50 132 -40 150 -50 b 176 -32 175 -50 176 -46 b 175 -6 176 -24 175 -15 b 382 -71 225 -39 293 -71 b 689 258 489 -71 689 81 b 458 461 689 375 572 457 b 786 708 586 507 786 611 b 524 879 786 800 660 879 z m 164 236 b 165 351 164 276 164 315 b 444 417 229 400 360 417 b 638 268 575 417 638 361 b 344 -31 638 161 486 -31 b 171 35 281 -31 229 24 b 164 236 167 75 164 136 z m 194 796 b 532 836 274 810 396 836 b 726 738 636 836 726 804 b 167 429 726 601 425 447 b 194 796 174 600 188 729 z "},"C":{"ha":608,"x_min":0,"x_max":0,"o":"m 325 876 b 28 281 133 876 28 456 b 271 -53 28 64 128 -53 b 593 110 404 -53 593 54 b 578 132 593 122 588 132 b 565 117 568 132 565 132 b 272 -8 565 97 426 -8 b 94 238 164 -8 94 42 b 354 840 94 467 219 840 b 503 736 404 840 503 804 b 460 506 503 668 460 568 b 492 428 460 460 472 428 b 560 676 521 428 560 554 b 517 801 560 750 547 778 b 325 876 454 850 392 876 z "},"D":{"ha":678,"x_min":0,"x_max":0,"o":"m 407 840 b 222 806 351 840 288 826 b 225 822 224 814 225 819 b 174 865 225 840 186 865 b 143 843 161 865 143 857 b 138 772 143 840 142 813 b -107 608 6 717 -107 640 b -93 578 -107 586 -100 578 b -83 596 -86 578 -83 588 b 133 728 -83 619 17 679 b 101 238 121 574 101 314 b 153 -40 101 11 106 -40 b 163 13 164 -40 163 -28 b 326 -62 222 6 260 -62 b 656 535 482 -62 656 338 b 407 840 656 706 553 840 z m 215 758 b 400 796 282 781 349 796 b 590 569 515 796 590 749 b 300 -8 590 331 419 -8 b 163 72 232 -8 203 51 b 215 758 164 392 199 644 z "},"E":{"ha":813,"x_min":0,"x_max":0,"o":"m 618 867 b 113 622 507 867 113 822 b 253 469 113 529 174 485 b 21 214 149 433 21 336 b 413 -49 21 -1 264 -49 b 796 108 619 -49 796 60 b 765 138 796 125 775 138 b 756 121 756 138 756 132 b 736 93 756 110 756 106 b 418 8 686 60 576 8 b 58 200 243 8 58 61 b 500 469 58 390 389 469 b 554 453 533 469 543 453 b 574 485 565 453 574 469 b 518 529 574 518 561 529 b 338 513 475 529 390 513 b 146 601 242 513 146 531 b 592 803 146 763 507 803 b 710 782 660 803 700 796 b 736 756 719 768 728 756 b 753 792 744 756 753 769 b 618 867 753 843 731 867 z "},"F":{"ha":601,"x_min":0,"x_max":0,"o":"m 72 390 b 217 368 72 379 122 371 b 215 290 215 339 215 313 b 274 -36 215 -26 217 -36 b 288 -25 288 -36 288 -31 b 271 190 288 -19 271 -1 b 276 367 271 236 272 299 l 296 367 b 478 403 414 367 478 372 b 360 413 478 410 447 413 b 279 411 338 413 310 411 b 338 792 289 563 308 728 b 657 818 471 806 603 818 b 763 828 690 818 763 815 b 633 849 763 840 750 849 b 165 819 514 849 322 833 b -43 776 38 808 -43 797 b -3 728 -43 758 -15 728 b 38 754 10 728 11 750 b 240 781 85 761 160 771 b 218 408 235 718 224 547 b 72 390 142 404 72 399 z "},"G":{"ha":719,"x_min":0,"x_max":0,"o":"m 625 382 b 204 340 457 382 235 349 b 147 301 174 332 147 310 b 156 290 147 296 149 290 b 207 308 163 290 175 306 b 525 329 293 317 428 326 b 547 267 535 317 547 300 b 268 14 547 161 411 14 b 96 244 164 14 96 79 b 367 824 96 463 240 824 b 513 703 424 824 513 765 b 501 600 513 654 501 642 b 553 497 501 543 513 497 b 594 651 579 497 594 554 b 526 800 594 703 575 768 b 326 869 478 832 383 869 b 28 236 181 869 28 515 b 282 -28 28 72 132 -28 b 613 332 479 -28 601 161 b 733 367 675 338 733 354 b 625 382 733 382 697 382 z "},"H":{"ha":738,"x_min":0,"x_max":0,"o":"m 575 875 b 549 850 563 875 549 864 b 554 785 549 836 554 811 b 525 365 554 765 535 525 b 182 354 419 364 286 360 b 219 719 199 517 219 690 b 196 807 219 794 213 800 b 144 825 183 813 150 825 b 136 811 139 825 136 819 b 142 676 136 803 142 789 b 118 349 142 642 128 497 b 58 342 94 346 74 344 b 17 314 35 338 17 335 b 42 288 17 293 21 288 b 113 274 63 288 86 282 b 107 100 110 210 107 149 b 174 -26 107 -10 129 -26 b 182 -17 182 -26 182 -21 b 163 89 182 -12 163 22 b 172 250 163 122 167 181 b 532 -28 321 181 497 33 b 556 -43 539 -40 549 -43 b 617 -18 563 -43 617 -28 b 568 186 617 -8 568 4 b 572 319 568 232 569 276 b 758 361 658 324 758 344 b 742 376 758 369 749 376 b 696 367 736 376 724 367 b 575 365 689 367 642 367 b 663 835 599 629 663 819 b 575 875 663 854 588 875 z m 518 232 b 532 25 518 175 522 78 b 176 292 456 135 286 239 b 178 314 176 299 178 307 l 521 319 b 518 232 519 279 518 247 z "},"I":{"ha":383,"x_min":0,"x_max":0,"o":"m -18 -12 b 111 -33 -18 -29 47 -33 b 357 15 249 -33 357 0 b 311 29 357 24 344 29 b 201 21 299 29 254 26 b 194 174 200 47 194 97 b 257 796 194 272 204 622 b 443 840 379 806 443 826 b 372 850 443 847 424 850 b 89 829 321 850 118 833 b 17 796 60 825 17 803 b 94 790 17 789 40 790 l 149 790 b 157 668 153 767 157 726 b 140 151 157 517 140 235 b 142 15 140 111 142 53 b -18 -12 61 7 -18 -4 z "},"J":{"ha":465,"x_min":0,"x_max":0,"o":"m 351 857 b 304 825 326 857 304 840 b 325 424 304 810 325 682 b 201 40 325 100 301 40 b 15 167 119 40 50 122 b -33 193 1 185 -18 193 b -56 165 -49 193 -56 181 b 271 -15 -56 119 111 -15 b 379 219 376 -15 379 85 b 379 550 379 321 375 464 b 411 826 389 729 411 814 b 351 857 411 840 376 857 z "},"K":{"ha":703,"x_min":0,"x_max":0,"o":"m 671 840 b 635 794 664 840 656 824 b 146 385 539 661 315 479 b 203 839 161 646 203 811 b 164 874 203 872 175 874 b 113 813 153 874 113 844 b 106 533 113 781 111 608 b 90 356 101 485 94 438 l 54 340 b 24 310 33 332 24 324 b 58 268 24 296 38 281 l 86 250 l 86 181 b 104 -18 86 103 96 -14 b 144 -32 113 -22 135 -32 b 164 -19 154 -32 164 -31 b 140 188 164 -8 140 -6 l 140 221 b 624 1 331 114 574 1 b 672 39 638 1 672 29 b 635 56 672 49 665 54 b 142 306 513 64 247 190 b 143 322 142 311 143 317 b 669 740 344 439 590 643 b 696 781 686 760 696 764 b 671 840 696 797 678 840 z "},"L":{"ha":796,"x_min":0,"x_max":0,"o":"m 610 915 b 449 458 531 915 471 697 b 338 433 406 446 367 438 b 294 447 318 431 301 447 b 279 425 288 447 279 433 b 346 403 279 417 311 403 b 444 419 372 403 407 408 l 440 338 b 424 165 438 269 432 213 b 44 297 300 239 171 297 b -49 215 -12 297 -49 256 b 217 -49 -49 85 106 -49 b 456 99 335 -49 411 -6 b 851 -119 615 -4 767 -119 b 911 -106 869 -119 911 -111 b 882 -97 911 -101 907 -97 b 792 -71 861 -97 824 -89 b 469 136 694 -17 585 64 b 503 340 488 190 497 258 b 513 443 504 371 508 406 b 797 664 649 496 797 592 b 610 915 797 761 693 915 z m 275 -11 b 7 214 106 -11 7 144 b 79 258 7 257 54 258 b 415 125 179 258 299 197 b 275 -11 392 32 349 -11 z m 644 853 b 728 706 690 853 728 772 b 649 551 728 642 707 594 b 517 482 610 524 564 500 b 644 853 542 654 589 853 z "},"M":{"ha":979,"x_min":0,"x_max":0,"o":"m 351 888 b 308 836 326 888 308 857 b 194 303 308 707 254 440 b -57 7 110 106 31 7 b -147 25 -79 7 -137 25 b -161 14 -157 25 -161 21 b -47 -42 -161 7 -85 -42 b 344 629 156 -42 281 454 b 532 19 372 304 424 19 b 796 681 624 19 749 463 b 939 -92 783 376 785 -92 b 964 -74 951 -92 964 -81 b 947 -57 964 -67 957 -58 b 856 314 892 -49 856 74 b 906 832 856 606 906 824 b 818 868 906 844 858 868 b 781 842 797 868 781 861 b 538 86 781 653 601 86 b 419 681 475 86 419 394 b 432 842 419 722 432 825 b 351 888 432 857 376 888 z "},"N":{"ha":618,"x_min":0,"x_max":0,"o":"m 225 876 b 165 835 189 876 165 860 b 125 428 165 771 151 600 b -97 -37 90 197 29 -37 b -133 -19 -112 -37 -133 -24 b -139 -7 -133 -15 -133 -7 b -161 -28 -144 -7 -161 -12 b -57 -74 -161 -54 -125 -74 b 207 736 147 -74 161 461 b 454 -49 244 440 329 -49 b 525 -21 493 -49 525 -37 b 521 106 525 -10 521 63 b 576 731 521 339 550 583 b 608 863 589 804 608 844 b 592 890 608 875 601 890 b 551 829 579 890 564 869 b 479 104 515 711 479 304 b 457 29 479 49 471 29 b 288 838 369 29 288 464 b 225 876 288 850 261 876 z "},"O":{"ha":614,"x_min":0,"x_max":0,"o":"m 247 889 b 28 326 169 889 28 581 b 278 -54 28 26 171 -54 b 572 515 489 -54 572 206 b 247 889 572 772 490 889 z m 326 849 b 522 501 471 849 522 676 b 278 -11 522 160 431 -11 b 99 268 181 -11 99 39 b 326 849 99 501 206 849 z "},"P":{"ha":753,"x_min":0,"x_max":0,"o":"m 488 865 b 236 832 413 865 321 851 b 238 856 238 840 238 849 b 208 889 238 885 235 889 b 150 868 186 889 150 885 b 149 811 150 865 149 843 b -10 743 57 785 -10 757 b -3 688 -10 708 -10 688 b 29 710 4 688 4 697 b 146 754 58 724 99 740 b 133 332 143 636 136 454 b 128 331 131 331 129 331 b 97 306 110 326 97 318 b 119 288 97 293 103 288 l 132 288 b 131 213 131 250 131 224 b 213 -35 131 -4 139 -35 b 231 -29 221 -35 231 -35 b 215 -17 231 -24 221 -22 b 188 193 190 8 188 49 b 189 297 188 229 188 264 b 756 692 358 329 756 449 b 488 865 756 761 683 865 z m 232 778 b 533 825 336 804 453 825 b 683 721 629 825 683 788 b 190 344 683 493 393 396 b 232 778 199 547 221 686 z "},"Q":{"ha":606,"x_min":0,"x_max":0,"o":"m 58 -110 b 72 -125 58 -119 65 -125 b 92 -114 79 -125 86 -118 b 263 -82 108 -100 157 -82 b 533 -99 399 -82 506 -99 b 563 -78 551 -99 563 -90 b 531 -71 563 -72 556 -71 b 378 -40 492 -71 432 -54 b 565 493 513 28 565 240 b 492 800 565 665 539 756 b 264 893 433 854 343 893 b 28 340 110 893 28 590 b 185 -40 28 121 103 6 b 58 -110 118 -56 58 -85 z m 319 843 b 407 801 357 843 376 835 b 472 736 426 781 453 794 b 511 465 497 661 511 557 b 286 -17 511 136 394 -17 b 96 294 201 -17 96 43 b 319 843 96 571 196 843 z "},"R":{"ha":754,"x_min":0,"x_max":0,"o":"m 490 860 b 182 803 393 860 283 835 b 118 861 176 851 153 861 b 107 836 110 861 107 851 l 107 776 b -93 646 -33 725 -93 682 b -72 618 -93 626 -82 618 b -62 625 -67 618 -62 621 b -68 636 -62 632 -68 631 b 106 726 -68 654 7 690 b 90 126 103 469 90 165 b 138 -57 90 -26 97 -57 b 164 -44 149 -57 164 -53 b 143 125 164 -36 143 -24 b 151 311 143 158 146 229 l 176 317 b 619 -17 321 129 493 -17 b 692 22 647 -17 692 17 b 685 28 692 26 689 28 b 631 15 674 28 661 15 b 258 340 518 15 333 181 b 751 697 471 408 751 540 b 490 860 751 789 646 860 z m 182 751 b 507 815 296 786 424 815 b 676 707 624 815 676 782 b 156 367 676 525 315 388 b 182 751 165 519 179 690 z "},"S":{"ha":608,"x_min":0,"x_max":0,"o":"m 272 882 b 38 426 143 882 38 536 b 276 215 38 301 160 256 b 483 86 382 179 483 147 b 342 -1 483 22 426 -1 b 6 68 222 -1 49 32 b -6 85 -3 75 3 85 b -22 64 -14 85 -22 71 b 357 -50 -22 8 211 -50 b 553 69 474 -50 553 6 b 318 249 553 165 431 207 b 113 457 178 300 113 325 b 307 838 113 546 218 838 b 417 710 364 838 399 785 b 433 525 429 654 433 585 b 468 436 433 465 444 436 b 500 565 485 436 500 456 b 425 818 500 728 458 793 b 272 882 392 843 315 882 z "},"T":{"ha":782,"x_min":0,"x_max":0,"o":"m 839 838 b 26 779 765 838 267 819 b -72 715 -47 767 -72 749 b 76 594 -72 619 -21 594 b 336 665 219 594 336 638 b 333 675 336 671 339 675 b 69 636 315 675 247 636 b -31 679 1 636 -31 657 b 88 736 -31 703 -10 721 b 401 769 172 750 288 761 b 368 67 400 439 368 218 b 422 -42 368 -26 397 -42 b 438 -26 432 -42 438 -33 b 426 35 438 -19 426 -11 b 504 776 426 253 465 675 b 846 794 685 789 840 794 b 892 815 860 794 892 801 b 839 838 892 829 865 838 z "},"U":{"ha":656,"x_min":0,"x_max":0,"o":"m 211 867 b 172 801 200 867 189 833 b -65 589 115 693 10 589 b -106 588 -81 589 -106 597 b -39 558 -106 576 -69 558 b 108 635 21 558 79 606 b 67 299 89 553 67 390 b 275 -26 67 90 142 -26 b 500 250 389 -26 463 114 b 499 167 499 219 499 189 b 564 -69 499 4 519 -69 b 588 -57 574 -69 588 -67 b 553 164 588 -47 553 -65 b 599 651 553 290 575 538 b 633 764 613 718 633 761 b 550 807 633 772 574 807 b 525 790 539 807 525 800 b 535 674 525 781 535 753 b 278 7 535 383 406 7 b 128 260 186 7 128 92 b 249 792 128 458 190 708 b 272 822 258 806 272 814 b 211 867 272 844 235 867 z "},"V":{"ha":624,"x_min":0,"x_max":0,"o":"m 118 882 b -156 465 -4 882 -156 554 b -143 439 -156 451 -151 439 b -125 461 -135 439 -128 447 b 132 832 -111 546 44 832 b 179 738 164 832 179 801 b 151 303 179 689 151 392 b 335 -54 151 38 247 -54 b 582 839 535 -54 582 568 b 549 894 582 875 569 894 b 539 860 538 894 539 878 b 325 -10 539 457 450 -10 b 215 293 263 -10 215 124 b 240 701 215 385 240 628 b 118 882 240 808 206 882 z "},"W":{"ha":789,"x_min":0,"x_max":0,"o":"m 85 850 b 54 819 67 850 54 831 b 40 397 54 808 40 481 b 214 -50 40 136 114 -50 b 369 244 296 -50 347 100 b 533 -26 385 96 428 -26 b 751 639 679 -26 751 389 b 693 906 751 796 747 906 b 683 890 681 906 683 897 b 710 654 683 883 710 825 b 522 14 710 369 611 14 b 417 310 472 14 417 133 b 460 731 417 656 460 718 b 389 760 460 743 433 760 b 365 740 375 760 365 750 b 369 613 365 731 369 649 b 211 6 369 354 319 6 b 96 408 147 6 96 144 b 144 803 96 640 144 781 b 85 850 144 832 107 850 z "},"X":{"ha":663,"x_min":0,"x_max":0,"o":"m 111 10 b 154 -49 111 -24 133 -49 b 167 -36 161 -49 167 -46 b 163 -6 167 -29 163 -14 b 363 364 163 33 300 263 b 628 -65 436 94 526 -65 b 678 -50 643 -65 678 -61 b 649 -42 678 -44 668 -42 b 410 438 563 -42 458 226 b 708 818 510 585 654 763 b 724 847 721 831 724 840 b 714 858 724 856 718 858 b 689 843 707 858 700 853 b 397 494 631 792 486 621 b 210 825 360 675 338 825 b 15 497 93 825 15 564 b 38 433 15 464 26 433 b 50 463 49 433 50 443 b 215 779 50 582 151 779 b 349 422 282 779 303 604 b 111 10 268 297 111 46 z "},"Y":{"ha":565,"x_min":0,"x_max":0,"o":"m 79 824 b 57 801 68 824 57 813 b 61 704 57 790 61 735 b 38 271 61 674 38 335 b 218 -4 38 79 111 -4 b 422 326 326 -4 399 158 b 431 57 425 236 431 103 b 208 -322 431 -211 336 -322 b -19 -207 93 -322 44 -207 b -49 -231 -39 -207 -49 -218 b 246 -357 -49 -289 167 -357 b 492 -29 383 -357 492 -215 b 472 358 492 85 472 263 b 528 843 472 631 528 832 b 474 881 528 854 483 881 b 450 861 464 881 450 869 b 213 29 450 676 408 29 b 94 290 131 29 94 93 b 142 765 94 456 142 753 b 79 824 142 789 99 824 z "},"Z":{"ha":656,"x_min":0,"x_max":0,"o":"m 546 833 b 135 756 497 833 250 790 b 76 719 93 743 76 732 b 97 681 76 696 92 681 b 119 703 103 681 103 694 b 474 769 186 736 390 769 b 544 753 496 769 544 765 b 294 447 544 740 353 518 b 14 40 222 360 14 110 b 78 -39 14 -10 49 -39 b 501 33 100 -39 340 33 b 583 29 532 33 568 29 b 618 42 599 29 618 31 b 450 78 618 53 590 78 b 117 43 326 78 128 43 b 83 61 92 43 83 51 b 329 399 83 92 200 258 b 617 689 460 542 576 665 b 664 739 647 707 664 715 b 636 797 664 753 660 771 b 546 833 613 824 583 833 z "},"[":{"ha":296,"x_min":0,"x_max":0,"o":"m 94 929 b 99 408 94 794 99 722 b 82 -121 99 210 82 -53 b 119 -158 82 -139 96 -154 b 307 -140 192 -169 307 -169 b 222 -137 307 -128 263 -137 b 135 -90 161 -137 135 -114 b 147 404 135 -4 147 133 b 156 928 147 732 147 864 b 207 946 156 935 169 942 b 300 953 235 949 279 951 b 292 974 325 954 307 974 b 135 965 264 974 204 969 b 94 929 106 963 94 946 z "},"]":{"ha":297,"x_min":0,"x_max":0,"o":"m 211 -92 b 197 474 203 96 197 253 b 210 932 197 686 210 911 b 153 972 210 950 194 975 b -15 932 63 968 -15 950 b 69 939 -15 914 29 933 b 157 925 133 947 156 936 b 150 451 160 904 150 689 b 139 -115 150 233 165 -28 b 71 -136 132 -136 108 -136 b 13 -132 58 -136 32 -135 b 15 -157 -19 -126 -26 -153 b 142 -162 60 -161 103 -162 b 211 -92 201 -162 214 -144 z "},"`":{"ha":238,"x_min":0,"x_max":0,"o":"m 14 624 b 154 519 32 586 99 539 b 168 536 174 513 183 528 b 42 683 117 565 69 628 b 14 624 31 706 -8 664 z "},"a":{"ha":315,"x_min":0,"x_max":0,"o":"m 190 406 b 107 471 179 429 156 471 b 63 433 89 471 74 456 b -1 126 28 367 -1 231 b 75 -32 -1 -1 32 -32 b 133 13 101 -32 118 -21 b 167 118 147 42 158 79 b 240 -4 174 29 207 -4 b 371 340 318 -4 371 260 b 358 358 371 351 367 358 b 346 340 350 358 346 351 b 238 31 346 250 293 31 b 197 149 211 31 197 72 b 221 326 197 190 214 303 b 236 371 228 350 236 364 b 199 392 236 378 208 392 l 196 392 b 190 406 194 396 192 400 z m 108 42 b 71 -1 96 17 83 -1 b 40 108 53 -1 40 28 b 132 425 40 185 81 425 b 163 374 150 425 158 397 b 178 350 164 360 165 351 b 108 42 169 236 149 119 z "},"b":{"ha":317,"x_min":0,"x_max":0,"o":"m 121 869 b 103 861 114 869 110 861 b 86 865 96 861 90 865 b 81 840 82 865 81 864 b 53 574 81 817 57 615 b 18 129 49 532 18 314 b 49 14 18 40 24 14 b 75 26 58 14 71 18 b 139 -31 89 0 113 -31 b 260 322 221 -31 260 176 b 179 453 260 394 233 453 b 121 413 147 453 133 438 b 60 228 93 358 71 279 b 89 518 64 297 75 433 b 144 838 106 625 144 811 b 121 869 144 856 128 869 z m 68 90 b 181 425 68 208 151 425 b 214 321 208 425 214 364 b 128 14 214 242 188 14 b 97 40 114 14 103 22 b 69 69 93 57 79 69 l 68 69 z "},"c":{"ha":204,"x_min":0,"x_max":0,"o":"m 108 467 b 1 178 57 467 1 292 b 115 -22 1 25 53 -22 b 260 340 199 -22 260 239 b 247 358 260 351 256 358 b 235 339 239 358 235 351 b 103 15 235 239 178 15 b 47 144 69 15 47 58 b 100 381 47 232 81 381 b 147 358 110 381 128 358 b 169 385 158 358 169 365 b 108 467 169 400 139 467 z "},"d":{"ha":321,"x_min":0,"x_max":0,"o":"m 272 885 b 246 863 257 885 246 876 b 232 717 246 849 239 779 b 194 443 228 681 199 497 b 121 497 178 475 149 497 b 25 333 92 497 57 428 b -12 115 0 257 -12 181 b 67 -29 -12 17 21 -29 b 171 126 113 -29 143 35 l 171 106 b 235 -19 171 39 203 -19 b 376 340 310 -19 376 233 b 364 358 376 351 372 358 b 351 340 356 358 351 351 b 235 24 351 233 286 24 b 207 108 219 24 207 51 b 224 315 207 154 214 251 b 290 765 232 367 261 631 b 307 865 296 793 307 843 b 272 885 307 881 296 885 z m 164 204 b 65 3 131 86 93 3 b 32 104 43 3 32 58 b 149 438 32 232 92 438 b 193 403 161 438 181 426 b 164 204 189 338 182 267 z "},"e":{"ha":238,"x_min":0,"x_max":0,"o":"m 100 463 b 56 431 79 463 67 456 b 7 183 39 393 7 265 b 128 -36 7 72 33 -36 b 221 36 164 -36 196 -10 b 293 340 257 103 293 265 b 281 358 293 351 289 358 b 268 340 272 358 268 351 b 129 -4 268 231 206 -4 b 63 81 108 -4 76 -1 b 174 396 104 142 174 292 b 156 442 174 417 168 431 b 100 463 140 454 117 463 z m 57 179 b 122 428 57 296 99 428 b 138 382 132 428 138 417 b 58 126 138 290 94 179 b 57 179 57 142 57 160 z "},"f":{"ha":221,"x_min":0,"x_max":0,"o":"m 138 863 b 89 836 124 863 93 864 b 4 -150 56 633 4 190 b 107 -478 4 -378 26 -478 b 186 -256 161 -478 186 -340 b 147 39 186 -164 172 -53 b 276 340 249 39 276 279 b 264 358 276 351 272 358 b 251 340 256 358 251 351 b 147 78 251 267 213 78 b 133 79 143 78 138 78 b 114 131 128 97 121 115 b 64 182 96 168 78 182 b 58 181 61 182 60 182 b 122 718 72 364 96 525 b 147 814 128 760 140 800 b 164 844 154 828 164 838 b 138 863 164 851 151 863 z m 106 58 b 151 -242 144 -32 151 -146 b 97 -443 151 -321 133 -443 b 44 -187 74 -443 44 -351 b 54 118 44 -74 47 25 b 106 58 65 97 85 74 z "},"g":{"ha":315,"x_min":0,"x_max":0,"o":"m 101 488 b -12 113 53 488 -12 214 b 69 -44 -12 -17 32 -44 b 158 72 113 -44 143 19 l 158 46 b 169 -110 158 26 164 -40 b -3 -158 114 -119 54 -135 b -189 -332 -108 -200 -189 -251 b 47 -532 -189 -468 -51 -532 b 213 -239 174 -532 213 -407 b 208 -132 213 -203 210 -167 b 285 -126 238 -128 263 -126 b 385 -139 351 -126 367 -139 b 403 -121 399 -139 403 -136 b 313 -96 403 -106 374 -96 b 206 -103 281 -96 244 -97 b 196 46 201 -43 196 11 b 244 333 196 161 218 269 b 258 363 251 350 258 357 b 221 388 258 368 243 388 b 165 447 197 406 186 421 b 101 488 144 474 125 488 z m 181 -265 b 26 -490 181 -383 139 -490 b -150 -346 -74 -490 -150 -424 b 172 -137 -150 -233 31 -164 b 181 -265 176 -193 181 -244 z m 65 -19 b 28 79 47 -19 28 35 b 125 431 28 157 85 431 b 189 364 139 431 175 394 b 65 -19 186 251 114 -19 z "},"h":{"ha":353,"x_min":0,"x_max":0,"o":"m 103 868 b 81 851 90 868 81 861 b 68 690 81 842 72 726 b 32 363 64 654 39 425 b 21 169 25 299 21 222 b 72 -49 21 46 33 -49 b 107 28 97 -49 101 0 b 172 297 118 86 168 283 b 183 317 176 311 179 317 b 192 306 188 317 192 313 b 189 232 192 299 189 261 b 282 -22 189 79 208 -22 b 408 340 350 -22 408 257 b 396 358 408 351 404 358 b 383 340 388 358 383 351 b 275 28 383 250 329 28 b 226 167 249 28 226 75 b 257 394 226 242 253 376 b 267 439 261 413 267 429 b 204 482 267 463 224 482 b 185 464 193 482 190 478 b 96 106 171 426 100 118 b 79 64 89 86 88 64 b 63 172 72 64 63 79 b 83 440 63 263 79 401 b 129 774 88 479 117 707 b 147 847 138 817 147 828 b 103 868 147 858 125 868 z "},"i":{"ha":181,"x_min":0,"x_max":0,"o":"m 61 425 b 32 403 43 425 32 414 b 13 111 31 347 13 167 b 96 -26 13 4 42 -26 b 144 3 113 -26 129 -18 b 236 339 203 85 236 264 b 224 358 236 351 232 358 b 211 340 215 358 211 351 b 136 46 211 257 174 114 b 92 7 122 21 108 7 b 54 118 67 7 54 29 b 93 406 54 229 93 399 b 61 425 93 413 79 425 z m 90 747 b 44 703 67 747 44 718 b 103 656 44 674 83 656 b 133 690 119 656 133 672 b 90 747 133 711 119 747 z "},"j":{"ha":165,"x_min":0,"x_max":0,"o":"m 61 426 b 31 403 39 426 33 421 b 15 54 28 385 15 108 b 21 -99 15 18 18 -40 b -335 -347 -135 -136 -335 -239 b -107 -518 -335 -454 -199 -518 b 72 -311 6 -518 72 -453 b 60 -124 72 -258 65 -187 b 125 -117 85 -118 106 -117 b 224 -133 181 -117 210 -126 b 240 -108 246 -144 261 -122 b 126 -85 222 -96 192 -85 b 57 -92 106 -85 82 -87 b 54 -15 56 -62 54 -36 b 89 357 54 113 82 333 b 100 401 96 381 100 392 b 61 426 100 419 83 426 z m 32 -286 b -101 -489 32 -404 0 -489 b -296 -358 -165 -489 -296 -446 b 24 -132 -296 -258 -115 -167 b 32 -286 28 -203 32 -268 z m 99 753 b 63 707 79 753 63 728 b 101 672 63 686 88 672 b 138 719 119 672 138 700 b 99 753 138 739 118 753 z "},"k":{"ha":338,"x_min":0,"x_max":0,"o":"m 86 874 b 69 850 78 874 69 871 b 50 549 69 829 61 661 b 21 132 44 493 21 293 b 58 -25 21 -6 35 -25 b 75 -11 71 -25 75 -17 b 65 46 75 -6 65 1 b 71 118 65 68 67 93 b 140 172 92 131 115 150 b 251 -6 144 86 181 -6 b 321 47 278 -6 303 11 b 393 340 371 149 393 285 b 381 358 393 351 389 358 b 368 340 372 358 368 351 b 249 31 368 254 315 31 b 182 172 210 31 182 111 b 183 218 182 189 182 204 b 271 414 231 275 271 344 b 206 493 271 451 250 493 b 158 465 186 493 175 486 b 65 246 129 429 88 325 b 94 588 71 340 89 539 b 136 842 101 647 136 826 b 86 874 136 857 126 874 z m 214 458 b 233 424 224 458 233 443 b 78 160 233 329 149 197 b 214 458 107 304 178 458 z "},"l":{"ha":251,"x_min":0,"x_max":0,"o":"m 135 875 b 96 833 111 875 103 861 b 8 246 72 736 8 411 b 140 -47 8 50 76 -47 b 307 340 260 -47 307 267 b 294 358 307 351 303 358 b 282 340 286 358 282 351 b 144 -4 282 240 222 -4 b 69 96 118 -4 88 19 b 219 736 161 235 219 507 b 194 850 219 789 213 832 b 135 875 183 861 158 875 z m 56 249 b 163 821 56 494 138 821 b 182 718 171 821 182 769 b 61 143 182 494 126 275 b 56 249 58 172 56 207 z "},"m":{"ha":501,"x_min":0,"x_max":0,"o":"m 46 396 b 10 324 26 396 10 369 b 26 281 10 296 26 294 b 24 158 26 267 24 179 b 31 24 24 138 25 44 b 69 -17 39 -6 51 -17 b 124 71 94 -17 111 17 b 183 311 136 126 171 274 b 199 338 186 321 192 338 b 208 297 206 338 208 315 b 197 104 208 279 197 132 b 243 4 197 28 219 4 b 283 54 264 4 276 36 b 346 238 290 72 343 229 b 356 253 349 246 350 253 b 363 244 360 253 363 250 b 357 164 363 239 357 197 b 424 0 357 67 378 0 b 557 340 504 0 557 257 b 544 358 557 351 553 358 b 532 340 536 358 532 351 b 431 42 532 254 479 42 b 396 158 411 42 396 78 b 419 351 396 222 415 338 b 431 393 424 365 431 388 b 383 419 431 403 403 419 b 354 407 365 419 354 417 b 347 363 354 397 351 382 b 275 119 333 304 289 153 b 249 75 268 104 256 75 b 232 163 235 75 232 99 b 243 342 232 196 243 319 b 207 407 243 375 232 407 b 154 338 178 407 164 375 b 99 104 147 310 104 126 b 74 49 92 76 82 49 b 61 139 63 49 61 74 b 76 347 61 250 76 328 b 46 396 76 367 65 396 z "},"n":{"ha":353,"x_min":0,"x_max":0,"o":"m 60 383 b 22 331 36 383 22 375 b 26 265 22 310 26 303 b 25 192 26 247 25 222 b 31 71 25 164 28 94 b 85 -18 36 22 50 -18 b 125 21 108 -18 118 -4 b 178 238 129 39 165 190 b 196 275 185 263 189 275 b 200 258 199 275 200 269 b 200 196 200 233 200 217 b 279 -25 201 43 232 -25 b 408 340 356 -25 408 257 b 396 358 408 351 404 358 b 383 340 388 358 383 351 b 343 128 383 282 364 197 b 281 19 315 35 296 19 b 242 156 265 19 242 58 b 263 408 242 253 263 399 b 232 449 263 422 243 444 b 189 442 219 454 193 454 b 106 76 186 432 132 172 b 88 44 100 56 94 44 b 68 157 72 44 68 76 b 88 360 68 293 88 349 b 60 383 88 371 72 383 z "},"o":{"ha":324,"x_min":0,"x_max":0,"o":"m 93 486 b 61 469 76 486 68 483 b 11 171 40 429 11 275 b 106 -42 11 35 50 -42 b 222 165 171 -42 208 64 b 274 153 236 158 256 153 b 379 340 343 153 379 283 b 367 358 379 351 375 358 b 354 340 358 358 354 351 b 265 188 354 279 322 188 b 226 203 251 188 238 193 b 229 250 228 219 229 235 b 200 425 229 329 224 394 b 93 486 185 444 117 486 z m 128 438 b 168 397 139 438 168 422 b 165 340 168 372 165 357 b 186 206 165 286 171 238 b 108 -3 186 106 146 -3 b 57 156 93 -3 57 25 b 128 438 57 292 97 438 z "},"p":{"ha":329,"x_min":0,"x_max":0,"o":"m 54 461 b 25 447 42 461 25 453 b 32 418 25 438 32 438 b 24 254 32 399 29 313 b -19 -287 18 196 -19 -104 b 7 -436 -19 -396 -10 -432 b 38 -443 17 -439 32 -443 b 38 -415 43 -443 43 -435 b 24 -282 32 -396 24 -336 b 44 44 24 -154 32 -46 b 122 -40 53 6 78 -40 b 211 15 160 -40 189 -22 b 272 289 251 83 272 189 b 244 436 272 351 260 422 b 168 468 233 447 192 468 b 68 294 133 468 92 361 b 75 404 72 340 75 390 b 54 461 75 440 67 461 z m 121 339 b 185 440 149 410 168 440 b 225 311 211 440 225 363 b 118 -10 225 147 181 -10 b 74 50 94 -10 74 25 b 82 79 74 67 82 69 b 57 103 82 89 71 103 l 54 103 b 121 339 72 197 94 274 z "},"q":{"ha":296,"x_min":0,"x_max":0,"o":"m 113 481 b 0 113 50 481 0 276 b 68 -19 0 8 28 -19 b 174 128 113 -19 151 60 b 161 -185 164 21 161 -133 b 181 -401 161 -251 164 -389 b 222 -415 197 -414 218 -415 b 224 -397 226 -415 229 -412 b 206 -274 218 -382 206 -328 b 254 -50 206 -219 221 -132 b 351 340 294 49 351 163 b 339 358 351 351 347 358 b 326 339 331 358 326 351 b 244 -8 326 194 282 78 b 201 -121 231 -37 214 -82 b 221 222 200 -37 201 107 b 244 372 232 286 244 363 b 215 403 244 382 225 403 b 196 386 207 403 199 399 l 176 425 b 113 481 165 443 135 481 z m 69 7 b 36 101 44 7 36 40 b 126 438 36 194 83 438 b 161 396 138 438 153 415 b 174 357 167 383 169 367 b 193 338 176 350 183 339 b 69 7 182 200 113 7 z "},"r":{"ha":279,"x_min":0,"x_max":0,"o":"m 39 563 b 13 497 21 563 13 526 b 35 425 13 472 19 446 b 19 265 31 369 24 296 b -18 25 13 214 -10 60 b -37 -42 -24 -1 -37 -35 b -24 -61 -37 -53 -32 -61 b 1 -28 -15 -61 -6 -51 b 65 393 19 31 51 249 l 79 385 b 131 326 121 363 131 351 b 124 149 131 285 124 189 b 203 -26 124 22 157 -26 b 335 340 286 -26 335 279 b 322 358 335 351 331 358 b 310 340 314 358 310 351 b 199 4 310 238 243 4 b 165 106 171 4 165 51 b 185 322 165 153 185 299 b 118 400 185 363 165 382 b 68 431 100 407 82 417 b 72 500 71 458 72 483 b 39 563 72 542 57 563 z "},"s":{"ha":214,"x_min":0,"x_max":0,"o":"m 67 488 b 39 458 56 488 39 469 b 35 361 39 447 40 397 b -58 -35 13 218 -21 57 b -49 -62 -61 -42 -65 -62 b -10 3 -35 -62 -19 -28 b 86 -46 8 -22 51 -46 b 168 76 132 -46 168 25 b 101 390 168 158 101 288 b 110 457 101 425 110 447 b 67 488 110 467 78 488 z m 63 322 b 86 244 68 300 76 274 b 121 82 106 183 121 121 b 68 -8 121 26 104 -8 b 11 28 42 -8 11 13 b 0 42 11 35 8 40 b 63 322 14 97 50 257 z "},"t":{"ha":186,"x_min":0,"x_max":0,"o":"m -126 567 b -161 556 -142 567 -161 567 b -139 536 -161 544 -146 540 b -118 521 -132 532 -124 521 b -68 528 -112 521 -90 528 b 43 526 -44 528 -3 526 b 18 197 32 397 18 231 b 106 -37 18 56 50 -37 b 242 339 182 -37 242 247 b 229 358 242 351 238 358 b 217 340 221 358 217 351 b 110 7 217 211 146 7 b 64 213 76 7 64 65 b 93 526 64 313 78 432 b 301 532 172 526 257 528 b 392 544 321 533 368 539 b 418 560 414 550 418 554 b 324 567 418 565 400 567 l 99 567 b 119 690 110 633 119 682 b 103 725 119 708 118 717 b 69 738 88 733 78 738 b 53 725 61 738 53 732 b 57 686 53 718 57 701 b 47 567 57 681 53 631 z "},"u":{"ha":346,"x_min":0,"x_max":0,"o":"m 50 397 b 31 378 36 397 31 392 b 18 113 31 364 18 147 b 92 -37 18 18 33 -37 b 196 142 146 -37 178 60 b 269 -8 203 22 231 -8 b 318 24 286 -8 303 0 b 401 340 371 108 401 272 b 389 358 401 351 397 358 b 376 340 381 358 376 351 b 275 29 376 208 310 29 b 232 172 251 29 232 75 b 256 390 232 222 253 375 b 268 425 258 406 268 419 b 238 454 268 431 253 454 b 206 438 222 454 206 449 b 90 -7 206 169 128 -7 b 61 111 68 -7 61 11 b 83 329 61 206 79 313 b 92 371 88 346 92 365 b 50 397 92 385 71 397 z "},"v":{"ha":313,"x_min":0,"x_max":0,"o":"m 44 379 b 24 239 29 379 24 297 b 96 -15 24 51 39 -15 b 218 228 139 -15 188 111 b 264 217 231 219 246 217 b 368 340 326 217 368 282 b 356 358 368 351 364 358 b 343 340 347 358 343 351 b 264 246 343 290 306 246 b 228 261 249 246 236 251 b 254 410 244 326 254 386 b 213 451 254 432 224 451 b 179 329 194 451 179 386 b 188 269 179 304 182 285 b 101 21 165 154 126 21 b 64 172 76 21 64 75 b 82 339 64 218 82 322 b 44 379 82 356 60 379 z "},"w":{"ha":432,"x_min":0,"x_max":0,"o":"m 56 422 b 32 396 44 422 33 407 b 14 147 31 385 14 207 b 90 -44 14 7 39 -44 b 171 100 129 -44 157 28 b 253 -18 179 28 204 -18 b 346 199 307 -18 335 86 b 390 181 358 186 374 181 b 488 340 454 181 488 283 b 475 358 488 351 483 358 b 463 339 467 358 463 351 b 393 217 463 282 432 217 b 349 246 378 217 361 228 b 351 313 350 268 351 292 b 318 469 351 417 339 469 b 293 369 304 469 293 424 b 310 253 293 322 299 283 b 246 15 301 129 278 15 b 199 163 214 15 199 93 b 219 367 199 243 219 356 b 199 390 219 378 215 390 b 161 372 182 390 161 388 b 157 213 161 357 163 278 b 93 -7 150 126 121 -7 b 54 139 68 -7 54 57 b 92 390 54 256 92 381 b 56 422 92 404 72 422 z "},"x":{"ha":281,"x_min":0,"x_max":0,"o":"m 243 468 b 215 424 235 468 228 447 b 90 135 186 371 133 244 b 76 289 81 181 76 235 b 82 388 76 313 82 369 b 46 444 82 413 68 444 b 10 369 28 444 10 401 b 31 314 10 321 31 336 b 64 68 31 213 42 128 b 28 -31 47 25 33 -11 b 11 -79 22 -50 11 -72 b 36 -107 11 -93 28 -107 b 49 -79 44 -107 44 -100 b 83 28 53 -57 67 -14 b 154 -19 101 -1 125 -19 b 244 39 186 -19 218 0 b 336 340 307 132 336 278 b 324 358 336 353 332 358 b 311 340 315 358 311 351 b 160 17 311 253 244 17 b 104 83 136 17 118 43 l 125 138 b 242 388 151 208 233 372 b 264 440 250 403 264 431 b 243 468 264 450 251 468 z "},"y":{"ha":328,"x_min":0,"x_max":0,"o":"m 63 424 b 33 386 47 424 35 408 b 18 146 32 364 18 203 b 103 -25 18 8 50 -25 b 197 128 146 -25 178 53 b 213 -126 201 56 208 -42 b -92 -406 75 -172 -92 -269 b 58 -550 -92 -496 -10 -550 b 258 -279 182 -550 258 -450 b 251 -144 258 -258 256 -206 b 350 -129 289 -135 322 -129 b 408 -135 371 -129 404 -135 b 421 -128 413 -135 421 -133 b 360 -96 421 -117 404 -96 b 249 -115 335 -96 294 -101 b 238 125 243 -25 238 75 b 258 397 238 214 251 369 b 272 458 265 425 272 446 b 250 482 272 471 261 482 b 211 424 239 482 218 475 b 188 231 204 371 197 290 b 99 3 165 103 131 3 b 63 132 79 3 63 38 b 83 358 63 185 79 340 b 89 401 88 376 89 393 b 63 424 89 410 78 424 z m 217 -235 b 51 -522 217 -435 138 -522 b -49 -412 6 -522 -49 -486 b 214 -157 -49 -293 89 -200 b 217 -235 215 -186 217 -212 z "},"z":{"ha":304,"x_min":0,"x_max":0,"o":"m 132 486 b 31 321 44 486 31 399 b 43 306 31 311 35 306 b 56 321 49 306 56 310 b 158 449 56 357 108 449 b 213 354 199 449 213 411 b 99 21 213 249 150 93 b 83 22 93 22 89 22 b 26 -14 46 22 26 6 b 68 -46 26 -33 50 -46 b 119 -15 83 -46 101 -35 b 214 -121 165 -28 197 -67 b -72 -397 76 -167 -72 -281 b 103 -547 -72 -493 15 -547 b 269 -251 201 -547 269 -421 b 253 -137 269 -211 264 -172 b 313 -131 274 -133 293 -131 b 386 -139 339 -131 381 -139 b 400 -131 392 -139 400 -136 b 329 -100 400 -122 382 -100 b 244 -111 303 -100 274 -104 b 140 10 222 -54 186 -10 b 254 350 197 85 254 224 b 211 461 254 410 244 436 b 132 486 189 478 168 486 z m 228 -224 b 74 -517 228 -392 169 -517 b -26 -411 25 -517 -26 -490 b 221 -147 -26 -301 100 -189 b 228 -224 225 -171 228 -196 z "},"{":{"ha":296,"x_min":0,"x_max":0,"o":"m 85 785 b 136 564 115 682 135 636 b 38 428 139 453 89 438 b 24 378 18 425 11 376 b 140 286 97 390 140 361 b 92 47 140 207 118 156 b 157 -147 54 -106 119 -139 b 306 -142 228 -162 306 -157 b 221 -129 306 -124 261 -135 b 136 7 160 -121 118 -85 b 179 290 158 121 179 206 b 78 411 179 346 150 411 b 188 571 150 424 188 510 b 131 826 188 664 160 721 b 158 925 118 883 125 910 b 267 949 196 943 239 946 b 263 968 292 951 278 968 b 147 953 235 968 185 967 b 85 785 85 929 63 874 z "},"}":{"ha":296,"x_min":0,"x_max":0,"o":"m 200 21 b 149 242 169 124 150 169 b 256 379 146 333 186 375 b 240 425 267 379 260 429 b 144 519 188 414 144 444 b 193 758 144 599 167 650 b 96 961 231 911 174 961 b -21 929 24 961 -21 944 b 72 935 -21 911 22 935 b 149 799 122 935 167 890 b 94 515 126 685 94 600 b 207 394 94 460 135 394 b 110 235 135 382 110 296 b 147 7 110 142 128 86 b 118 -124 164 -61 160 -104 b 8 -143 89 -137 36 -140 b 13 -162 -17 -146 -3 -162 b 138 -147 40 -162 100 -161 b 200 21 200 -124 222 -68 z "},"¢":{"ha":292,"x_min":0,"x_max":0,"o":"m 133 856 b 118 767 119 856 118 807 b 32 513 69 742 32 613 b 107 332 32 413 57 351 b 124 233 107 313 111 233 b 140 325 136 233 140 275 l 147 325 b 269 421 214 325 269 386 b 249 439 269 435 261 439 b 232 424 236 439 232 433 b 146 354 232 400 192 354 b 74 474 99 354 74 407 b 143 722 74 581 111 722 b 181 682 156 722 165 699 b 232 651 203 658 224 651 b 246 671 240 651 246 657 b 150 769 246 708 211 763 b 133 856 149 804 146 856 z "},"¨":{"ha":238,"x_min":0,"x_max":0,"o":"m 35 613 b -1 578 15 613 -1 590 b 44 540 -1 554 29 540 b 69 568 58 540 69 553 b 35 613 69 585 58 613 z m 146 626 b 117 592 126 626 117 604 b 156 554 117 568 140 554 b 188 582 169 554 188 567 b 146 626 188 599 169 626 z "},"­":{"ha":326,"x_min":0,"x_max":0,"o":"m 3 181 b 13 168 3 172 8 168 b 63 176 17 168 29 176 b 261 190 96 176 219 176 b 292 222 278 196 292 207 b 285 229 292 228 289 229 b 213 221 281 229 251 224 b 51 213 174 218 65 215 b 3 181 25 208 3 197 z "},"¯":{"ha":238,"x_min":0,"x_max":0,"o":"m -18 557 b -8 544 -18 549 -15 542 b 36 554 4 550 19 553 b 164 568 76 557 139 556 b 192 606 183 578 192 590 b 181 614 192 611 189 617 b 133 603 172 611 158 607 b 19 589 90 596 56 599 b -18 557 -6 582 -18 574 z "},"´":{"ha":238,"x_min":0,"x_max":0,"o":"m 194 682 b 172 681 190 693 179 693 b 40 538 150 642 96 576 b 50 518 25 526 36 511 b 181 604 99 543 154 581 b 194 682 200 624 204 656 z "},"·":{"ha":258,"x_min":0,"x_max":0,"o":"m 113 260 b 72 219 93 260 72 239 b 114 178 72 200 96 178 b 153 226 133 178 153 213 b 113 260 153 240 132 260 z "},"¶":{"ha":653,"x_min":0,"x_max":0,"o":"m 233 444 b 376 460 276 444 326 450 b 369 90 374 294 369 125 b 435 -176 369 -143 375 -176 b 449 -171 442 -176 449 -176 b 436 -156 449 -164 442 -164 b 414 68 417 -129 414 -86 b 426 469 414 231 419 363 l 501 490 b 494 151 497 340 494 183 b 532 -99 494 -68 507 -99 b 544 -78 556 -99 546 -83 b 535 131 539 -51 535 -14 b 547 507 535 283 540 407 b 631 567 597 526 631 549 b 625 588 631 572 631 588 b 600 569 619 588 619 579 b 550 549 586 563 569 556 b 571 801 560 669 571 750 b 549 835 571 831 568 835 b 508 796 533 835 508 813 b 501 532 508 789 506 668 l 428 511 b 447 781 438 640 447 726 b 424 817 447 813 446 817 b 385 794 407 817 385 813 b 378 499 385 786 381 650 b 197 476 311 485 246 476 b 76 560 119 476 76 507 b 521 872 76 761 361 836 b 546 893 536 876 546 882 b 528 907 546 903 542 907 b 19 583 476 907 19 817 b 233 444 19 528 76 444 z "},"¸":{"ha":238,"x_min":0,"x_max":0,"o":"m 129 -171 b 60 -265 129 -212 106 -237 b 69 -285 46 -274 54 -292 b 168 -150 114 -267 168 -221 b 101 -58 168 -99 133 -67 b 54 -100 79 -53 32 -97 b 129 -171 96 -106 129 -132 z "},"À":{"ha":788,"x_min":0,"x_max":0,"o":"m 97 250 b 193 238 97 236 126 238 l 221 238 b -44 -6 142 100 49 -6 b -132 25 -86 -6 -119 7 b -147 39 -135 29 -140 39 b -161 21 -154 39 -161 31 b -7 -72 -161 -24 -69 -72 b 272 239 82 -72 185 72 b 592 265 382 243 521 256 b 663 24 615 156 632 96 b 738 -42 683 -29 696 -42 b 764 -32 750 -42 764 -39 b 735 11 764 -21 753 -24 b 632 363 697 81 653 251 b 588 750 606 508 588 715 b 594 819 588 785 594 804 b 503 876 594 835 521 876 b 465 853 485 876 465 860 b 454 778 465 846 468 817 b 243 276 415 667 339 453 b 97 250 157 268 97 257 z m 461 685 b 504 769 472 722 489 750 b 586 290 522 656 571 368 b 529 292 567 292 546 292 b 294 282 450 292 367 288 b 461 685 375 442 439 611 z m 436 1015 b 576 911 454 978 521 931 b 590 928 596 904 606 919 b 464 1075 539 957 492 1019 b 436 1015 453 1097 414 1056 z "},"Á":{"ha":788,"x_min":0,"x_max":0,"o":"m 97 250 b 193 238 97 236 126 238 l 221 238 b -44 -6 142 100 49 -6 b -132 25 -86 -6 -119 7 b -147 39 -135 29 -140 39 b -161 21 -154 39 -161 31 b -7 -72 -161 -24 -69 -72 b 272 239 82 -72 185 72 b 592 265 382 243 521 256 b 663 24 615 156 632 96 b 738 -42 683 -29 696 -42 b 764 -32 750 -42 764 -39 b 735 11 764 -21 753 -24 b 632 363 697 81 653 251 b 588 750 606 508 588 715 b 594 819 588 785 594 804 b 503 876 594 835 521 876 b 465 853 485 876 465 860 b 454 778 465 846 468 817 b 243 276 415 667 339 453 b 97 250 157 268 97 257 z m 461 685 b 504 769 472 722 489 750 b 586 290 522 656 571 368 b 529 292 567 292 546 292 b 294 282 450 292 367 288 b 461 685 375 442 439 611 z m 610 1089 b 588 1088 606 1100 594 1100 b 456 944 565 1049 511 983 b 465 925 440 933 451 918 b 596 1011 514 950 569 988 b 610 1089 615 1031 619 1063 z "},"Â":{"ha":788,"x_min":0,"x_max":0,"o":"m 97 250 b 193 238 97 236 126 238 l 221 238 b -44 -6 142 100 49 -6 b -132 25 -86 -6 -119 7 b -147 39 -135 29 -140 39 b -161 21 -154 39 -161 31 b -7 -72 -161 -24 -69 -72 b 272 239 82 -72 185 72 b 592 265 382 243 521 256 b 663 24 615 156 632 96 b 738 -42 683 -29 696 -42 b 764 -32 750 -42 764 -39 b 735 11 764 -21 753 -24 b 632 363 697 81 653 251 b 588 750 606 508 588 715 b 594 819 588 785 594 804 b 503 876 594 835 521 876 b 465 853 485 876 465 860 b 454 778 465 846 468 817 b 243 276 415 667 339 453 b 97 250 157 268 97 257 z m 461 685 b 504 769 472 722 489 750 b 586 290 522 656 571 368 b 529 292 567 292 546 292 b 294 282 450 292 367 288 b 461 685 375 442 439 611 z m 456 935 b 474 921 446 921 464 907 b 524 992 499 951 507 964 b 624 924 551 969 565 957 b 636 940 638 917 647 932 b 550 1046 597 969 571 1008 b 504 1032 542 1061 507 1047 b 456 935 500 1010 483 968 z "},"Ã":{"ha":788,"x_min":0,"x_max":0,"o":"m 97 250 b 193 238 97 236 126 238 l 221 238 b -44 -6 142 100 49 -6 b -132 25 -86 -6 -119 7 b -147 39 -135 29 -140 39 b -161 21 -154 39 -161 31 b -7 -72 -161 -24 -69 -72 b 272 239 82 -72 185 72 b 592 265 382 243 521 256 b 663 24 615 156 632 96 b 738 -42 683 -29 696 -42 b 764 -32 750 -42 764 -39 b 735 11 764 -21 753 -24 b 632 363 697 81 653 251 b 588 750 606 508 588 715 b 594 819 588 785 594 804 b 503 876 594 835 521 876 b 465 853 485 876 465 860 b 454 778 465 846 468 817 b 243 276 415 667 339 453 b 97 250 157 268 97 257 z m 461 685 b 504 769 472 722 489 750 b 586 290 522 656 571 368 b 529 292 567 292 546 292 b 294 282 450 292 367 288 b 461 685 375 442 439 611 z m 413 935 b 432 922 404 918 422 904 b 454 954 439 935 443 943 b 619 958 489 990 553 899 b 649 996 632 969 642 982 b 632 1007 656 1011 640 1019 b 618 992 626 1000 625 997 b 460 996 571 954 506 1032 b 413 935 440 981 424 957 z "},"Ä":{"ha":788,"x_min":0,"x_max":0,"o":"m 97 250 b 193 238 97 236 126 238 l 221 238 b -44 -6 142 100 49 -6 b -132 25 -86 -6 -119 7 b -147 39 -135 29 -140 39 b -161 21 -154 39 -161 31 b -7 -72 -161 -24 -69 -72 b 272 239 82 -72 185 72 b 592 265 382 243 521 256 b 663 24 615 156 632 96 b 738 -42 683 -29 696 -42 b 764 -32 750 -42 764 -39 b 735 11 764 -21 753 -24 b 632 363 697 81 653 251 b 588 750 606 508 588 715 b 594 819 588 785 594 804 b 503 876 594 835 521 876 b 465 853 485 876 465 860 b 454 778 465 846 468 817 b 243 276 415 667 339 453 b 97 250 157 268 97 257 z m 461 685 b 504 769 472 722 489 750 b 586 290 522 656 571 368 b 529 292 567 292 546 292 b 294 282 450 292 367 288 b 461 685 375 442 439 611 z m 474 1003 b 438 968 454 1003 438 981 b 483 931 438 944 468 931 b 508 958 497 931 508 943 b 474 1003 508 975 497 1003 z m 585 1017 b 556 982 565 1017 556 994 b 594 944 556 958 579 944 b 626 972 608 944 626 957 b 585 1017 626 989 608 1017 z "},"Å":{"ha":788,"x_min":0,"x_max":0,"o":"m 97 250 b 193 238 97 236 126 238 l 221 238 b -44 -6 142 100 49 -6 b -132 25 -86 -6 -119 7 b -147 39 -135 29 -140 39 b -161 21 -154 39 -161 31 b -7 -72 -161 -24 -69 -72 b 272 239 82 -72 185 72 b 592 265 382 243 521 256 b 663 24 615 156 632 96 b 738 -42 683 -29 696 -42 b 764 -32 750 -42 764 -39 b 735 11 764 -21 753 -24 b 632 363 697 81 653 251 b 588 750 606 508 588 715 b 594 819 588 785 594 804 b 503 876 594 835 521 876 b 465 853 485 876 465 860 b 454 778 465 846 468 817 b 243 276 415 667 339 453 b 97 250 157 268 97 257 z m 461 685 b 504 769 472 722 489 750 b 586 290 522 656 571 368 b 529 292 567 292 546 292 b 294 282 450 292 367 288 b 461 685 375 442 439 611 z m 553 1067 b 494 967 528 1067 494 1010 b 578 885 494 908 524 885 b 656 993 628 885 656 947 b 582 1064 656 1035 632 1064 b 553 1067 568 1064 565 1067 z m 581 1042 b 626 983 615 1042 626 1006 b 572 904 626 936 600 904 b 529 954 547 904 529 924 b 581 1042 529 979 544 1042 z "},"Ā":{"ha":788,"x_min":0,"x_max":0,"o":"m 97 250 b 193 238 97 236 126 238 l 221 238 b -44 -6 142 100 49 -6 b -132 25 -86 -6 -119 7 b -147 39 -135 29 -140 39 b -161 21 -154 39 -161 31 b -7 -72 -161 -24 -69 -72 b 272 239 82 -72 185 72 b 592 265 382 243 521 256 b 663 24 615 156 632 96 b 738 -42 683 -29 696 -42 b 764 -32 750 -42 764 -39 b 735 11 764 -21 753 -24 b 632 363 697 81 653 251 b 588 750 606 508 588 715 b 594 819 588 785 594 804 b 503 876 594 835 521 876 b 465 853 485 876 465 860 b 454 778 465 846 468 817 b 243 276 415 667 339 453 b 97 250 157 268 97 257 z m 461 685 b 504 769 472 722 489 750 b 586 290 522 656 571 368 b 529 292 567 292 546 292 b 294 282 450 292 367 288 b 461 685 375 442 439 611 z m 426 944 b 436 932 426 936 429 929 b 481 942 449 938 464 940 b 608 956 521 944 583 943 b 636 993 628 965 636 978 b 625 1001 636 999 633 1004 b 578 990 617 999 603 994 b 464 976 535 983 500 986 b 426 944 439 969 426 961 z "},"Ă":{"ha":788,"x_min":0,"x_max":0,"o":"m 97 250 b 193 238 97 236 126 238 l 221 238 b -44 -6 142 100 49 -6 b -132 25 -86 -6 -119 7 b -147 39 -135 29 -140 39 b -161 21 -154 39 -161 31 b -7 -72 -161 -24 -69 -72 b 272 239 82 -72 185 72 b 592 265 382 243 521 256 b 663 24 615 156 632 96 b 738 -42 683 -29 696 -42 b 764 -32 750 -42 764 -39 b 735 11 764 -21 753 -24 b 632 363 697 81 653 251 b 588 750 606 508 588 715 b 594 819 588 785 594 804 b 503 876 594 835 521 876 b 465 853 485 876 465 860 b 454 778 465 846 468 817 b 243 276 415 667 339 453 b 97 250 157 268 97 257 z m 461 685 b 504 769 472 722 489 750 b 586 290 522 656 571 368 b 529 292 567 292 546 292 b 294 282 450 292 367 288 b 461 685 375 442 439 611 z m 650 996 b 636 1010 658 1006 649 1022 b 543 964 604 978 574 964 b 460 1001 507 964 483 982 b 426 993 451 1008 438 1004 b 424 967 414 981 418 972 b 532 929 442 949 483 929 b 650 996 576 929 614 954 z "},"Ą":{"ha":788,"x_min":0,"x_max":0,"o":"m 669 -171 b 744 -257 669 -221 701 -257 b 843 -172 790 -257 825 -210 b 825 -161 850 -157 836 -146 b 750 -211 804 -190 779 -211 b 703 -154 724 -211 703 -190 b 746 -42 703 -117 719 -81 b 764 -32 756 -40 764 -37 b 735 11 764 -21 753 -24 b 632 363 697 81 653 251 b 588 750 606 508 588 715 b 594 819 588 785 594 804 b 503 876 594 835 521 876 b 465 853 485 876 465 860 b 454 778 465 846 468 817 b 243 276 415 667 339 453 b 97 250 157 268 97 257 b 193 238 97 236 126 238 l 221 238 b -44 -6 142 100 49 -6 b -132 25 -86 -6 -119 7 b -147 39 -135 29 -140 39 b -161 21 -154 39 -161 31 b -7 -72 -161 -24 -69 -72 b 272 239 82 -72 185 72 b 592 265 382 243 521 256 b 663 24 615 156 632 96 b 718 -40 679 -19 692 -36 b 669 -171 692 -81 669 -126 z m 461 685 b 504 769 472 722 489 750 b 586 290 522 656 571 368 b 529 292 567 292 546 292 b 294 282 450 292 367 288 b 461 685 375 442 439 611 z "},"Æ":{"ha":1249,"x_min":0,"x_max":0,"o":"m 503 849 b 465 825 485 849 465 832 b 464 793 465 821 467 808 b 288 753 356 782 288 771 b 328 704 288 735 315 704 b 368 731 340 704 342 726 l 451 743 b 318 411 424 663 378 536 b 157 378 207 396 157 383 b 253 365 157 364 186 365 b 297 367 264 365 281 365 b -44 -6 201 174 81 -6 b -132 25 -86 -6 -119 7 b -147 39 -135 29 -140 39 b -161 21 -154 39 -161 31 b -7 -72 -161 -24 -69 -72 b 346 369 108 -72 247 160 b 569 388 407 374 486 379 b 608 199 588 296 603 218 b 849 -49 657 -11 700 -49 b 1232 108 1056 -49 1232 60 b 1201 138 1232 125 1211 138 b 1192 121 1192 138 1192 132 b 1172 93 1192 110 1192 106 b 854 8 1122 60 1013 8 b 651 242 682 8 679 94 b 650 251 650 244 650 249 l 647 263 l 628 392 b 1071 449 846 413 1071 440 b 960 463 1071 463 1000 464 b 621 442 829 456 717 449 b 588 722 603 569 588 700 b 590 761 588 738 589 750 b 1135 818 797 788 1065 818 b 1240 828 1168 818 1240 815 b 1111 849 1240 840 1228 849 b 586 804 1011 849 758 821 b 503 849 567 822 517 849 z m 461 657 b 504 742 472 696 488 724 b 561 436 515 676 539 550 b 368 417 485 429 421 424 b 461 657 413 518 446 608 z "},"Ǽ":{"ha":1249,"x_min":0,"x_max":0,"o":"m 503 849 b 465 825 485 849 465 832 b 464 793 465 821 467 808 b 288 753 356 782 288 771 b 328 704 288 735 315 704 b 368 731 340 704 342 726 l 451 743 b 318 411 424 663 378 536 b 157 378 207 396 157 383 b 253 365 157 364 186 365 b 297 367 264 365 281 365 b -44 -6 201 174 81 -6 b -132 25 -86 -6 -119 7 b -147 39 -135 29 -140 39 b -161 21 -154 39 -161 31 b -7 -72 -161 -24 -69 -72 b 346 369 108 -72 247 160 b 569 388 407 374 486 379 b 608 199 588 296 603 218 b 849 -49 657 -11 700 -49 b 1232 108 1056 -49 1232 60 b 1201 138 1232 125 1211 138 b 1192 121 1192 138 1192 132 b 1172 93 1192 110 1192 106 b 854 8 1122 60 1013 8 b 651 242 682 8 679 94 b 650 251 650 244 650 249 l 647 263 l 628 392 b 1071 449 846 413 1071 440 b 960 463 1071 463 1000 464 b 621 442 829 456 717 449 b 588 722 603 569 588 700 b 590 761 588 738 589 750 b 1135 818 797 788 1065 818 b 1240 828 1168 818 1240 815 b 1111 849 1240 840 1228 849 b 586 804 1011 849 758 821 b 503 849 567 822 517 849 z m 461 657 b 504 742 472 696 488 724 b 561 436 515 676 539 550 b 368 417 485 429 421 424 b 461 657 413 518 446 608 z m 910 1049 b 888 1047 906 1060 894 1060 b 756 904 865 1008 811 943 b 765 885 740 893 751 878 b 896 971 814 910 869 947 b 910 1049 915 990 919 1022 z "},"Ç":{"ha":608,"x_min":0,"x_max":0,"o":"m 325 876 b 28 281 133 876 28 456 b 271 -53 28 64 128 -53 b 593 110 404 -53 593 54 b 578 132 593 122 588 132 b 565 117 568 132 565 132 b 272 -8 565 97 426 -8 b 94 238 164 -8 94 42 b 354 840 94 467 219 840 b 503 736 404 840 503 804 b 460 506 503 668 460 568 b 492 428 460 460 472 428 b 560 676 521 428 560 554 b 517 801 560 750 547 778 b 325 876 454 850 392 876 z m 282 -190 b 213 -285 282 -232 258 -257 b 222 -304 199 -293 207 -311 b 321 -169 267 -286 321 -240 b 254 -78 321 -118 286 -86 b 207 -119 232 -72 185 -117 b 282 -190 249 -125 282 -151 z "},"Ć":{"ha":608,"x_min":0,"x_max":0,"o":"m 325 876 b 28 281 133 876 28 456 b 271 -53 28 64 128 -53 b 593 110 404 -53 593 54 b 578 132 593 122 588 132 b 565 117 568 132 565 132 b 272 -8 565 97 426 -8 b 94 238 164 -8 94 42 b 354 840 94 467 219 840 b 503 736 404 840 503 804 b 460 506 503 668 460 568 b 492 428 460 460 472 428 b 560 676 521 428 560 554 b 517 801 560 750 547 778 b 325 876 454 850 392 876 z m 518 1074 b 496 1072 514 1085 503 1085 b 364 929 474 1033 419 968 b 374 910 349 918 360 903 b 504 996 422 935 478 972 b 518 1074 524 1015 528 1047 z "},"Ĉ":{"ha":608,"x_min":0,"x_max":0,"o":"m 325 876 b 28 281 133 876 28 456 b 271 -53 28 64 128 -53 b 593 110 404 -53 593 54 b 578 132 593 122 588 132 b 565 117 568 132 565 132 b 272 -8 565 97 426 -8 b 94 238 164 -8 94 42 b 354 840 94 467 219 840 b 503 736 404 840 503 804 b 460 506 503 668 460 568 b 492 428 460 460 472 428 b 560 676 521 428 560 554 b 517 801 560 750 547 778 b 325 876 454 850 392 876 z m 332 925 b 350 911 322 911 340 897 b 400 982 375 942 383 954 b 500 914 428 960 442 947 b 513 931 514 907 524 922 b 426 1036 474 960 447 999 b 381 1022 418 1051 383 1038 b 332 925 376 1000 360 958 z "},"Ċ":{"ha":608,"x_min":0,"x_max":0,"o":"m 325 876 b 28 281 133 876 28 456 b 271 -53 28 64 128 -53 b 593 110 404 -53 593 54 b 578 132 593 122 588 132 b 565 117 568 132 565 132 b 272 -8 565 97 426 -8 b 94 238 164 -8 94 42 b 354 840 94 467 219 840 b 503 736 404 840 503 804 b 460 506 503 668 460 568 b 492 428 460 460 472 428 b 560 676 521 428 560 554 b 517 801 560 750 547 778 b 325 876 454 850 392 876 z m 419 1007 b 390 972 400 1007 390 985 b 429 935 390 949 414 935 b 461 963 443 935 461 947 b 419 1007 461 979 443 1007 z "},"Č":{"ha":608,"x_min":0,"x_max":0,"o":"m 325 876 b 28 281 133 876 28 456 b 271 -53 28 64 128 -53 b 593 110 404 -53 593 54 b 578 132 593 122 588 132 b 565 117 568 132 565 132 b 272 -8 565 97 426 -8 b 94 238 164 -8 94 42 b 354 840 94 467 219 840 b 503 736 404 840 503 804 b 460 506 503 668 460 568 b 492 428 460 460 472 428 b 560 676 521 428 560 554 b 517 801 560 750 547 778 b 325 876 454 850 392 876 z m 531 1035 b 513 1046 539 1050 522 1061 b 453 976 489 1008 464 976 b 335 1043 435 976 369 1015 b 315 1031 321 1054 307 1044 b 424 928 336 996 385 947 b 458 932 435 922 447 921 b 531 1035 478 951 511 1000 z "},"Ď":{"ha":678,"x_min":0,"x_max":0,"o":"m 407 840 b 222 806 351 840 288 826 b 225 822 224 814 225 819 b 174 865 225 840 186 865 b 143 843 161 865 143 857 b 138 772 143 840 142 813 b -107 608 6 717 -107 640 b -93 578 -107 586 -100 578 b -83 596 -86 578 -83 588 b 133 728 -83 619 17 679 b 101 238 121 574 101 314 b 153 -40 101 11 106 -40 b 163 13 164 -40 163 -28 b 326 -62 222 6 260 -62 b 656 535 482 -62 656 338 b 407 840 656 706 553 840 z m 215 758 b 400 796 282 781 349 796 b 590 569 515 796 590 749 b 300 -8 590 331 419 -8 b 163 72 232 -8 203 51 b 215 758 164 392 199 644 z m 488 1022 b 469 1033 496 1038 479 1049 b 410 964 446 996 421 964 b 292 1031 392 964 326 1003 b 272 1018 278 1042 264 1032 b 381 915 293 983 342 935 b 415 919 392 910 404 908 b 488 1022 435 939 468 988 z "},"Đ":{"ha":678,"x_min":0,"x_max":0,"o":"m -7 336 b 3 324 -7 328 -1 324 b 53 332 7 324 19 332 b 104 332 63 332 82 331 b 101 238 103 292 101 257 b 153 -40 101 11 106 -40 b 163 13 164 -40 163 -28 b 326 -62 222 6 260 -62 b 656 535 482 -62 656 338 b 407 840 656 706 553 840 b 222 806 351 840 288 826 b 225 822 224 814 225 819 b 174 865 225 840 186 865 b 143 843 161 865 143 857 b 138 772 143 840 142 813 b -107 608 6 717 -107 640 b -93 578 -107 586 -100 578 b -83 596 -86 578 -83 588 b 133 728 -83 619 17 679 b 107 372 126 628 114 482 b 42 368 75 371 47 369 b -7 336 15 364 -7 353 z m 171 335 b 251 346 204 336 235 340 b 282 378 268 351 282 363 b 275 385 282 383 279 385 b 203 376 271 385 242 379 l 174 374 b 215 758 186 549 204 683 b 400 796 282 781 349 796 b 590 569 515 796 590 749 b 300 -8 590 331 419 -8 b 163 72 232 -8 203 51 b 171 335 163 167 167 254 z "},"Ð":{"ha":678,"x_min":0,"x_max":0,"o":"m -7 336 b 3 324 -7 328 -1 324 b 53 332 7 324 19 332 b 104 332 63 332 82 331 b 101 238 103 292 101 257 b 153 -40 101 11 106 -40 b 163 13 164 -40 163 -28 b 326 -62 222 6 260 -62 b 656 535 482 -62 656 338 b 407 840 656 706 553 840 b 222 806 351 840 288 826 b 225 822 224 814 225 819 b 174 865 225 840 186 865 b 143 843 161 865 143 857 b 138 772 143 840 142 813 b -107 608 6 717 -107 640 b -93 578 -107 586 -100 578 b -83 596 -86 578 -83 588 b 133 728 -83 619 17 679 b 107 372 126 628 114 482 b 42 368 75 371 47 369 b -7 336 15 364 -7 353 z m 171 335 b 251 346 204 336 235 340 b 282 378 268 351 282 363 b 275 385 282 383 279 385 b 203 376 271 385 242 379 l 174 374 b 215 758 186 549 204 683 b 400 796 282 781 349 796 b 590 569 515 796 590 749 b 300 -8 590 331 419 -8 b 163 72 232 -8 203 51 b 171 335 163 167 167 254 z "},"È":{"ha":813,"x_min":0,"x_max":0,"o":"m 618 867 b 113 622 507 867 113 822 b 253 469 113 529 174 485 b 21 214 149 433 21 336 b 413 -49 21 -1 264 -49 b 796 108 619 -49 796 60 b 765 138 796 125 775 138 b 756 121 756 138 756 132 b 736 93 756 110 756 106 b 418 8 686 60 576 8 b 58 200 243 8 58 61 b 500 469 58 390 389 469 b 554 453 533 469 543 453 b 574 485 565 453 574 469 b 518 529 574 518 561 529 b 338 513 475 529 390 513 b 146 601 242 513 146 531 b 592 803 146 763 507 803 b 710 782 660 803 700 796 b 736 756 719 768 728 756 b 753 792 744 756 753 769 b 618 867 753 843 731 867 z m 376 1000 b 517 896 394 963 461 915 b 531 913 536 889 546 904 b 404 1060 479 942 432 1004 b 376 1000 393 1082 354 1040 z "},"É":{"ha":813,"x_min":0,"x_max":0,"o":"m 618 867 b 113 622 507 867 113 822 b 253 469 113 529 174 485 b 21 214 149 433 21 336 b 413 -49 21 -1 264 -49 b 796 108 619 -49 796 60 b 765 138 796 125 775 138 b 756 121 756 138 756 132 b 736 93 756 110 756 106 b 418 8 686 60 576 8 b 58 200 243 8 58 61 b 500 469 58 390 389 469 b 554 453 533 469 543 453 b 574 485 565 453 574 469 b 518 529 574 518 561 529 b 338 513 475 529 390 513 b 146 601 242 513 146 531 b 592 803 146 763 507 803 b 710 782 660 803 700 796 b 736 756 719 768 728 756 b 753 792 744 756 753 769 b 618 867 753 843 731 867 z m 531 1046 b 508 1044 526 1057 515 1057 b 376 901 486 1006 432 940 b 386 882 361 890 372 875 b 517 968 435 907 490 944 b 531 1046 536 988 540 1019 z "},"Ê":{"ha":813,"x_min":0,"x_max":0,"o":"m 618 867 b 113 622 507 867 113 822 b 253 469 113 529 174 485 b 21 214 149 433 21 336 b 413 -49 21 -1 264 -49 b 796 108 619 -49 796 60 b 765 138 796 125 775 138 b 756 121 756 138 756 132 b 736 93 756 110 756 106 b 418 8 686 60 576 8 b 58 200 243 8 58 61 b 500 469 58 390 389 469 b 554 453 533 469 543 453 b 574 485 565 453 574 469 b 518 529 574 518 561 529 b 338 513 475 529 390 513 b 146 601 242 513 146 531 b 592 803 146 763 507 803 b 710 782 660 803 700 796 b 736 756 719 768 728 756 b 753 792 744 756 753 769 b 618 867 753 843 731 867 z m 375 914 b 393 900 365 900 383 886 b 443 971 418 931 426 943 b 543 903 471 949 485 936 b 556 919 557 896 567 911 b 469 1025 517 949 490 988 b 424 1011 461 1040 426 1026 b 375 914 419 989 403 947 z "},"Ë":{"ha":813,"x_min":0,"x_max":0,"o":"m 618 867 b 113 622 507 867 113 822 b 253 469 113 529 174 485 b 21 214 149 433 21 336 b 413 -49 21 -1 264 -49 b 796 108 619 -49 796 60 b 765 138 796 125 775 138 b 756 121 756 138 756 132 b 736 93 756 110 756 106 b 418 8 686 60 576 8 b 58 200 243 8 58 61 b 500 469 58 390 389 469 b 554 453 533 469 543 453 b 574 485 565 453 574 469 b 518 529 574 518 561 529 b 338 513 475 529 390 513 b 146 601 242 513 146 531 b 592 803 146 763 507 803 b 710 782 660 803 700 796 b 736 756 719 768 728 756 b 753 792 744 756 753 769 b 618 867 753 843 731 867 z m 383 983 b 347 949 364 983 347 961 b 393 911 347 925 378 911 b 418 939 407 911 418 924 b 383 983 418 956 407 983 z m 494 997 b 465 963 475 997 465 975 b 504 925 465 939 489 925 b 536 953 518 925 536 938 b 494 997 536 969 518 997 z "},"Ē":{"ha":813,"x_min":0,"x_max":0,"o":"m 618 867 b 113 622 507 867 113 822 b 253 469 113 529 174 485 b 21 214 149 433 21 336 b 413 -49 21 -1 264 -49 b 796 108 619 -49 796 60 b 765 138 796 125 775 138 b 756 121 756 138 756 132 b 736 93 756 110 756 106 b 418 8 686 60 576 8 b 58 200 243 8 58 61 b 500 469 58 390 389 469 b 554 453 533 469 543 453 b 574 485 565 453 574 469 b 518 529 574 518 561 529 b 338 513 475 529 390 513 b 146 601 242 513 146 531 b 592 803 146 763 507 803 b 710 782 660 803 700 796 b 736 756 719 768 728 756 b 753 792 744 756 753 769 b 618 867 753 843 731 867 z m 331 928 b 340 915 331 919 333 913 b 385 925 353 921 368 924 b 513 939 425 928 488 926 b 540 976 532 949 540 961 b 529 985 540 982 538 988 b 482 974 521 982 507 978 b 368 960 439 967 404 969 b 331 928 343 953 331 944 z "},"Ĕ":{"ha":813,"x_min":0,"x_max":0,"o":"m 618 867 b 113 622 507 867 113 822 b 253 469 113 529 174 485 b 21 214 149 433 21 336 b 413 -49 21 -1 264 -49 b 796 108 619 -49 796 60 b 765 138 796 125 775 138 b 756 121 756 138 756 132 b 736 93 756 110 756 106 b 418 8 686 60 576 8 b 58 200 243 8 58 61 b 500 469 58 390 389 469 b 554 453 533 469 543 453 b 574 485 565 453 574 469 b 518 529 574 518 561 529 b 338 513 475 529 390 513 b 146 601 242 513 146 531 b 592 803 146 763 507 803 b 710 782 660 803 700 796 b 736 756 719 768 728 756 b 753 792 744 756 753 769 b 618 867 753 843 731 867 z m 549 989 b 535 1003 557 999 547 1015 b 442 957 503 971 472 957 b 358 994 406 957 382 975 b 325 986 350 1001 336 997 b 322 960 313 974 317 965 b 431 922 340 942 382 922 b 549 989 475 922 513 947 z "},"Ė":{"ha":813,"x_min":0,"x_max":0,"o":"m 618 867 b 113 622 507 867 113 822 b 253 469 113 529 174 485 b 21 214 149 433 21 336 b 413 -49 21 -1 264 -49 b 796 108 619 -49 796 60 b 765 138 796 125 775 138 b 756 121 756 138 756 132 b 736 93 756 110 756 106 b 418 8 686 60 576 8 b 58 200 243 8 58 61 b 500 469 58 390 389 469 b 554 453 533 469 543 453 b 574 485 565 453 574 469 b 518 529 574 518 561 529 b 338 513 475 529 390 513 b 146 601 242 513 146 531 b 592 803 146 763 507 803 b 710 782 660 803 700 796 b 736 756 719 768 728 756 b 753 792 744 756 753 769 b 618 867 753 843 731 867 z m 436 989 b 407 954 417 989 407 967 b 446 917 407 931 431 917 b 478 944 460 917 478 929 b 436 989 478 961 460 989 z "},"Ę":{"ha":813,"x_min":0,"x_max":0,"o":"m 690 -67 b 765 -153 690 -117 722 -153 b 864 -68 811 -153 846 -106 b 846 -57 871 -53 857 -42 b 771 -107 825 -86 800 -107 b 724 -50 744 -107 724 -86 b 771 68 724 -11 742 26 b 772 69 771 68 772 68 b 796 108 788 83 796 97 b 765 138 796 125 775 138 b 756 121 756 138 756 132 b 736 93 756 110 756 106 b 418 8 686 60 576 8 b 58 200 243 8 58 61 b 500 469 58 390 389 469 b 554 453 533 469 543 453 b 574 485 565 453 574 469 b 518 529 574 518 561 529 b 338 513 475 529 390 513 b 146 601 242 513 146 531 b 592 803 146 763 507 803 b 710 782 660 803 700 796 b 736 756 719 768 728 756 b 753 792 744 756 753 769 b 618 867 753 843 731 867 b 113 622 507 867 113 822 b 253 469 113 529 174 485 b 21 214 149 433 21 336 b 413 -49 21 -1 264 -49 b 719 31 536 -49 649 -10 b 690 -67 703 0 690 -33 z "},"Ě":{"ha":813,"x_min":0,"x_max":0,"o":"m 618 867 b 113 622 507 867 113 822 b 253 469 113 529 174 485 b 21 214 149 433 21 336 b 413 -49 21 -1 264 -49 b 796 108 619 -49 796 60 b 765 138 796 125 775 138 b 756 121 756 138 756 132 b 736 93 756 110 756 106 b 418 8 686 60 576 8 b 58 200 243 8 58 61 b 500 469 58 390 389 469 b 554 453 533 469 543 453 b 574 485 565 453 574 469 b 518 529 574 518 561 529 b 338 513 475 529 390 513 b 146 601 242 513 146 531 b 592 803 146 763 507 803 b 710 782 660 803 700 796 b 736 756 719 768 728 756 b 753 792 744 756 753 769 b 618 867 753 843 731 867 z m 544 1003 b 526 1014 553 1018 536 1029 b 467 944 503 976 478 944 b 349 1011 449 944 383 983 b 329 999 335 1022 321 1013 b 438 896 350 964 399 915 b 472 900 449 890 461 889 b 544 1003 492 919 525 968 z "},"Ĝ":{"ha":719,"x_min":0,"x_max":0,"o":"m 625 382 b 204 340 457 382 235 349 b 147 301 174 332 147 310 b 156 290 147 296 149 290 b 207 308 163 290 175 306 b 525 329 293 317 428 326 b 547 267 535 317 547 300 b 268 14 547 161 411 14 b 96 244 164 14 96 79 b 367 824 96 463 240 824 b 513 703 424 824 513 765 b 501 600 513 654 501 642 b 553 497 501 543 513 497 b 594 651 579 497 594 554 b 526 800 594 703 575 768 b 326 869 478 832 383 869 b 28 236 181 869 28 515 b 282 -28 28 72 132 -28 b 613 332 479 -28 601 161 b 733 367 675 338 733 354 b 625 382 733 382 697 382 z m 365 926 b 383 913 356 913 374 899 b 433 983 408 943 417 956 b 533 915 461 961 475 949 b 546 932 547 908 557 924 b 460 1038 507 961 481 1000 b 414 1024 451 1053 417 1039 b 365 926 410 1001 393 960 z "},"Ğ":{"ha":719,"x_min":0,"x_max":0,"o":"m 625 382 b 204 340 457 382 235 349 b 147 301 174 332 147 310 b 156 290 147 296 149 290 b 207 308 163 290 175 306 b 525 329 293 317 428 326 b 547 267 535 317 547 300 b 268 14 547 161 411 14 b 96 244 164 14 96 79 b 367 824 96 463 240 824 b 513 703 424 824 513 765 b 501 600 513 654 501 642 b 553 497 501 543 513 497 b 594 651 579 497 594 554 b 526 800 594 703 575 768 b 326 869 478 832 383 869 b 28 236 181 869 28 515 b 282 -28 28 72 132 -28 b 613 332 479 -28 601 161 b 733 367 675 338 733 354 b 625 382 733 382 697 382 z m 540 988 b 526 1001 549 997 539 1014 b 433 956 494 969 464 956 b 350 993 397 956 374 974 b 317 985 342 1000 328 996 b 314 958 304 972 308 964 b 422 921 332 940 374 921 b 540 988 467 921 504 946 z "},"Ġ":{"ha":719,"x_min":0,"x_max":0,"o":"m 625 382 b 204 340 457 382 235 349 b 147 301 174 332 147 310 b 156 290 147 296 149 290 b 207 308 163 290 175 306 b 525 329 293 317 428 326 b 547 267 535 317 547 300 b 268 14 547 161 411 14 b 96 244 164 14 96 79 b 367 824 96 463 240 824 b 513 703 424 824 513 765 b 501 600 513 654 501 642 b 553 497 501 543 513 497 b 594 651 579 497 594 554 b 526 800 594 703 575 768 b 326 869 478 832 383 869 b 28 236 181 869 28 515 b 282 -28 28 72 132 -28 b 613 332 479 -28 601 161 b 733 367 675 338 733 354 b 625 382 733 382 697 382 z m 393 994 b 364 960 374 994 364 972 b 403 922 364 936 388 922 b 435 950 417 922 435 935 b 393 994 435 967 417 994 z "},"Ģ":{"ha":719,"x_min":0,"x_max":0,"o":"m 625 382 b 204 340 457 382 235 349 b 147 301 174 332 147 310 b 156 290 147 296 149 290 b 207 308 163 290 175 306 b 525 329 293 317 428 326 b 547 267 535 317 547 300 b 268 14 547 161 411 14 b 96 244 164 14 96 79 b 367 824 96 463 240 824 b 513 703 424 824 513 765 b 501 600 513 654 501 642 b 553 497 501 543 513 497 b 594 651 579 497 594 554 b 526 800 594 703 575 768 b 326 869 478 832 383 869 b 28 236 181 869 28 515 b 282 -28 28 72 132 -28 b 613 332 479 -28 601 161 b 733 367 675 338 733 354 b 625 382 733 382 697 382 z m 310 -107 b 289 -149 300 -106 297 -125 b 240 -275 281 -171 246 -260 b 246 -303 236 -286 235 -300 b 268 -292 254 -307 261 -301 b 338 -143 285 -265 338 -178 b 310 -107 338 -131 318 -107 z "},"Ĥ":{"ha":738,"x_min":0,"x_max":0,"o":"m 575 875 b 549 850 563 875 549 864 b 554 785 549 836 554 811 b 525 365 554 765 535 525 b 182 354 419 364 286 360 b 219 719 199 517 219 690 b 196 807 219 794 213 800 b 144 825 183 813 150 825 b 136 811 139 825 136 819 b 142 676 136 803 142 789 b 118 349 142 642 128 497 b 58 342 94 346 74 344 b 17 314 35 338 17 335 b 42 288 17 293 21 288 b 113 274 63 288 86 282 b 107 100 110 210 107 149 b 174 -26 107 -10 129 -26 b 182 -17 182 -26 182 -21 b 163 89 182 -12 163 22 b 172 250 163 122 167 181 b 532 -28 321 181 497 33 b 556 -43 539 -40 549 -43 b 617 -18 563 -43 617 -28 b 568 186 617 -8 568 4 b 572 319 568 232 569 276 b 758 361 658 324 758 344 b 742 376 758 369 749 376 b 696 367 736 376 724 367 b 575 365 689 367 642 367 b 663 835 599 629 663 819 b 575 875 663 854 588 875 z m 518 232 b 532 25 518 175 522 78 b 176 292 456 135 286 239 b 178 314 176 299 178 307 l 521 319 b 518 232 519 279 518 247 z m 300 879 b 318 865 290 865 308 851 b 368 936 343 896 351 908 b 468 868 396 914 410 901 b 481 885 482 861 492 876 b 394 990 442 914 415 953 b 349 976 386 1006 351 992 b 300 879 344 954 328 913 z "},"Ħ":{"ha":738,"x_min":0,"x_max":0,"o":"m 6 514 b 15 501 6 506 11 501 b 65 510 19 501 32 510 l 129 510 b 118 349 125 460 121 406 b 58 342 94 346 74 344 b 17 314 35 338 17 335 b 42 288 17 293 21 288 b 113 274 63 288 86 282 b 107 100 110 210 107 149 b 174 -26 107 -10 129 -26 b 182 -17 182 -26 182 -21 b 163 89 182 -12 163 22 b 172 250 163 122 167 181 b 532 -28 321 181 497 33 b 556 -43 539 -40 549 -43 b 617 -18 563 -43 617 -28 b 568 186 617 -8 568 4 b 572 319 568 232 569 276 b 758 361 658 324 758 344 b 742 376 758 369 749 376 b 696 367 736 376 724 367 b 575 365 689 367 642 367 b 594 521 579 421 586 474 b 728 532 664 524 717 528 b 758 564 744 538 758 549 b 751 571 758 569 756 571 b 679 563 747 571 718 565 b 600 560 671 561 642 561 b 663 835 628 718 663 824 b 575 875 663 854 588 875 b 549 850 563 875 549 864 b 554 785 549 836 554 811 b 538 558 554 772 546 671 l 203 550 b 219 719 211 635 219 701 b 196 807 219 794 213 800 b 144 825 183 813 150 825 b 136 811 139 825 136 819 b 142 676 136 803 142 789 b 133 549 142 658 138 608 b 54 546 88 547 57 546 b 6 514 28 542 6 531 z m 525 365 b 182 354 419 364 286 360 l 199 511 b 535 519 294 513 426 515 z m 518 232 b 532 25 518 175 522 78 b 176 292 456 135 286 239 b 178 314 176 299 178 307 l 521 319 b 518 232 519 279 518 247 z "},"Ì":{"ha":383,"x_min":0,"x_max":0,"o":"m -18 -12 b 111 -33 -18 -29 47 -33 b 357 15 249 -33 357 0 b 311 29 357 24 344 29 b 201 21 299 29 254 26 b 194 174 200 47 194 97 b 257 796 194 272 204 622 b 443 840 379 806 443 826 b 372 850 443 847 424 850 b 89 829 321 850 118 833 b 17 796 60 825 17 803 b 94 790 17 789 40 790 l 149 790 b 157 668 153 767 157 726 b 140 151 157 517 140 235 b 142 15 140 111 142 53 b -18 -12 61 7 -18 -4 z m 111 965 b 251 861 129 928 196 881 b 265 878 271 854 281 869 b 139 1025 214 907 167 969 b 111 965 128 1047 89 1006 z "},"Í":{"ha":383,"x_min":0,"x_max":0,"o":"m -18 -12 b 111 -33 -18 -29 47 -33 b 357 15 249 -33 357 0 b 311 29 357 24 344 29 b 201 21 299 29 254 26 b 194 174 200 47 194 97 b 257 796 194 272 204 622 b 443 840 379 806 443 826 b 372 850 443 847 424 850 b 89 829 321 850 118 833 b 17 796 60 825 17 803 b 94 790 17 789 40 790 l 149 790 b 157 668 153 767 157 726 b 140 151 157 517 140 235 b 142 15 140 111 142 53 b -18 -12 61 7 -18 -4 z m 271 1028 b 249 1026 267 1039 256 1039 b 117 883 226 988 172 922 b 126 864 101 872 113 857 b 257 950 175 889 231 926 b 271 1028 276 969 281 1001 z "},"Î":{"ha":383,"x_min":0,"x_max":0,"o":"m -18 -12 b 111 -33 -18 -29 47 -33 b 357 15 249 -33 357 0 b 311 29 357 24 344 29 b 201 21 299 29 254 26 b 194 174 200 47 194 97 b 257 796 194 272 204 622 b 443 840 379 806 443 826 b 372 850 443 847 424 850 b 89 829 321 850 118 833 b 17 796 60 825 17 803 b 94 790 17 789 40 790 l 149 790 b 157 668 153 767 157 726 b 140 151 157 517 140 235 b 142 15 140 111 142 53 b -18 -12 61 7 -18 -4 z m 126 885 b 144 871 117 871 135 857 b 194 942 169 901 178 914 b 294 874 222 919 236 907 b 307 890 308 867 318 882 b 221 996 268 919 242 958 b 175 982 213 1011 178 997 b 126 885 171 960 154 918 z "},"Ï":{"ha":383,"x_min":0,"x_max":0,"o":"m -18 -12 b 111 -33 -18 -29 47 -33 b 357 15 249 -33 357 0 b 311 29 357 24 344 29 b 201 21 299 29 254 26 b 194 174 200 47 194 97 b 257 796 194 272 204 622 b 443 840 379 806 443 826 b 372 850 443 847 424 850 b 89 829 321 850 118 833 b 17 796 60 825 17 803 b 94 790 17 789 40 790 l 149 790 b 157 668 153 767 157 726 b 140 151 157 517 140 235 b 142 15 140 111 142 53 b -18 -12 61 7 -18 -4 z m 132 951 b 96 917 113 951 96 929 b 142 879 96 893 126 879 b 167 907 156 879 167 892 b 132 951 167 924 156 951 z m 243 965 b 214 931 224 965 214 943 b 253 893 214 907 238 893 b 285 921 267 893 285 906 b 243 965 285 938 267 965 z "},"Ĩ":{"ha":383,"x_min":0,"x_max":0,"o":"m -18 -12 b 111 -33 -18 -29 47 -33 b 357 15 249 -33 357 0 b 311 29 357 24 344 29 b 201 21 299 29 254 26 b 194 174 200 47 194 97 b 257 796 194 272 204 622 b 443 840 379 806 443 826 b 372 850 443 847 424 850 b 89 829 321 850 118 833 b 17 796 60 825 17 803 b 94 790 17 789 40 790 l 149 790 b 157 668 153 767 157 726 b 140 151 157 517 140 235 b 142 15 140 111 142 53 b -18 -12 61 7 -18 -4 z m 92 892 b 111 879 83 875 101 861 b 133 911 118 892 122 900 b 299 915 168 947 232 856 b 328 953 311 926 321 939 b 311 964 335 968 319 976 b 297 949 306 957 304 954 b 139 953 250 911 185 989 b 92 892 119 938 103 914 z "},"Ī":{"ha":383,"x_min":0,"x_max":0,"o":"m -18 -12 b 111 -33 -18 -29 47 -33 b 357 15 249 -33 357 0 b 311 29 357 24 344 29 b 201 21 299 29 254 26 b 194 174 200 47 194 97 b 257 796 194 272 204 622 b 443 840 379 806 443 826 b 372 850 443 847 424 850 b 89 829 321 850 118 833 b 17 796 60 825 17 803 b 94 790 17 789 40 790 l 149 790 b 157 668 153 767 157 726 b 140 151 157 517 140 235 b 142 15 140 111 142 53 b -18 -12 61 7 -18 -4 z m 92 904 b 101 892 92 896 94 889 b 146 901 114 897 129 900 b 274 915 186 904 249 903 b 301 953 293 925 301 938 b 290 961 301 958 299 964 b 243 950 282 958 268 954 b 129 936 200 943 165 946 b 92 904 104 929 92 921 z "},"Ĭ":{"ha":383,"x_min":0,"x_max":0,"o":"m -18 -12 b 111 -33 -18 -29 47 -33 b 357 15 249 -33 357 0 b 311 29 357 24 344 29 b 201 21 299 29 254 26 b 194 174 200 47 194 97 b 257 796 194 272 204 622 b 443 840 379 806 443 826 b 372 850 443 847 424 850 b 89 829 321 850 118 833 b 17 796 60 825 17 803 b 94 790 17 789 40 790 l 149 790 b 157 668 153 767 157 726 b 140 151 157 517 140 235 b 142 15 140 111 142 53 b -18 -12 61 7 -18 -4 z m 325 949 b 311 963 333 958 324 975 b 218 917 279 931 249 917 b 135 954 182 917 158 935 b 101 946 126 961 113 957 b 99 919 89 933 93 925 b 207 882 117 901 158 882 b 325 949 251 882 289 907 z "},"Į":{"ha":383,"x_min":0,"x_max":0,"o":"m 268 -129 b 343 -215 268 -179 300 -215 b 442 -131 389 -215 424 -168 b 424 -119 449 -115 435 -104 b 349 -169 403 -149 378 -169 b 301 -112 322 -169 301 -149 b 349 6 301 -74 319 -36 l 350 7 b 357 15 354 10 357 13 b 311 29 357 24 344 29 b 201 21 299 29 254 26 b 194 174 200 47 194 97 b 257 796 194 272 204 622 b 443 840 379 806 443 826 b 372 850 443 847 424 850 b 89 829 321 850 118 833 b 17 796 60 825 17 803 b 94 790 17 789 40 790 l 149 790 b 157 668 153 767 157 726 b 140 151 157 517 140 235 b 142 15 140 111 142 53 b -18 -12 61 7 -18 -4 b 111 -33 -18 -29 47 -33 b 311 -8 194 -33 267 -21 b 268 -129 288 -46 268 -87 z "},"İ":{"ha":383,"x_min":0,"x_max":0,"o":"m -18 -12 b 111 -33 -18 -29 47 -33 b 357 15 249 -33 357 0 b 311 29 357 24 344 29 b 201 21 299 29 254 26 b 194 174 200 47 194 97 b 257 796 194 272 204 622 b 443 840 379 806 443 826 b 372 850 443 847 424 850 b 89 829 321 850 118 833 b 17 796 60 825 17 803 b 94 790 17 789 40 790 l 149 790 b 157 668 153 767 157 726 b 140 151 157 517 140 235 b 142 15 140 111 142 53 b -18 -12 61 7 -18 -4 z m 197 964 b 168 929 178 964 168 942 b 207 892 168 906 192 892 b 239 919 221 892 239 904 b 197 964 239 936 221 964 z "},"Ĳ":{"ha":806,"x_min":0,"x_max":0,"o":"m -18 -12 b 111 -33 -18 -29 47 -33 b 357 15 249 -33 357 0 b 311 29 357 24 344 29 b 201 21 299 29 254 26 b 194 174 200 47 194 97 b 257 796 194 272 204 622 b 443 840 379 806 443 826 b 372 850 443 847 424 850 b 89 829 321 850 118 833 b 17 796 60 825 17 803 b 94 790 17 789 40 790 l 149 790 b 157 668 153 767 157 726 b 140 151 157 517 140 235 b 142 15 140 111 142 53 b -18 -12 61 7 -18 -4 z m 692 857 b 644 825 667 857 644 840 b 665 424 644 810 665 682 b 542 40 665 100 642 40 b 356 167 460 40 390 122 b 307 193 342 185 322 193 b 285 165 292 193 285 181 b 611 -15 285 119 451 -15 b 719 219 717 -15 719 85 b 719 550 719 321 715 464 b 751 826 729 729 751 814 b 692 857 751 840 717 857 z "},"Ĵ":{"ha":465,"x_min":0,"x_max":0,"o":"m 351 857 b 304 825 326 857 304 840 b 325 424 304 810 325 682 b 201 40 325 100 301 40 b 15 167 119 40 50 122 b -33 193 1 185 -18 193 b -56 165 -49 193 -56 181 b 271 -15 -56 119 111 -15 b 379 219 376 -15 379 85 b 379 550 379 321 375 464 b 411 826 389 729 411 814 b 351 857 411 840 376 857 z m 289 924 b 307 910 279 910 297 896 b 357 981 332 940 340 953 b 457 913 385 958 399 946 b 469 929 471 906 481 921 b 383 1035 431 958 404 997 b 338 1021 375 1050 340 1036 b 289 924 333 999 317 957 z "},"Ķ":{"ha":703,"x_min":0,"x_max":0,"o":"m 671 840 b 635 794 664 840 656 824 b 146 385 539 661 315 479 b 203 839 161 646 203 811 b 164 874 203 872 175 874 b 113 813 153 874 113 844 b 106 533 113 781 111 608 b 90 356 101 485 94 438 l 54 340 b 24 310 33 332 24 324 b 58 268 24 296 38 281 l 86 250 l 86 181 b 104 -18 86 103 96 -14 b 144 -32 113 -22 135 -32 b 164 -19 154 -32 164 -31 b 140 188 164 -8 140 -6 l 140 221 b 624 1 331 114 574 1 b 672 39 638 1 672 29 b 635 56 672 49 665 54 b 142 306 513 64 247 190 b 143 322 142 311 143 317 b 669 740 344 439 590 643 b 696 781 686 760 696 764 b 671 840 696 797 678 840 z m 349 -107 b 328 -149 339 -106 336 -125 b 279 -275 319 -171 285 -260 b 285 -303 275 -286 274 -300 b 307 -292 293 -307 300 -301 b 376 -143 324 -265 376 -178 b 349 -107 376 -131 357 -107 z "},"Ĺ":{"ha":796,"x_min":0,"x_max":0,"o":"m 610 915 b 449 458 531 915 471 697 b 338 433 406 446 367 438 b 294 447 318 431 301 447 b 279 425 288 447 279 433 b 346 403 279 417 311 403 b 444 419 372 403 407 408 l 440 338 b 424 165 438 269 432 213 b 44 297 300 239 171 297 b -49 215 -12 297 -49 256 b 217 -49 -49 85 106 -49 b 456 99 335 -49 411 -6 b 851 -119 615 -4 767 -119 b 911 -106 869 -119 911 -111 b 882 -97 911 -101 907 -97 b 792 -71 861 -97 824 -89 b 469 136 694 -17 585 64 b 503 340 488 190 497 258 b 513 443 504 371 508 406 b 797 664 649 496 797 592 b 610 915 797 761 693 915 z m 275 -11 b 7 214 106 -11 7 144 b 79 258 7 257 54 258 b 415 125 179 258 299 197 b 275 -11 392 32 349 -11 z m 644 853 b 728 706 690 853 728 772 b 649 551 728 642 707 594 b 517 482 610 524 564 500 b 644 853 542 654 589 853 z m 682 1097 b 660 1096 678 1108 667 1108 b 528 953 638 1057 583 992 b 538 933 513 942 524 926 b 668 1019 586 958 642 996 b 682 1097 688 1039 692 1071 z "},"Ļ":{"ha":796,"x_min":0,"x_max":0,"o":"m 610 915 b 449 458 531 915 471 697 b 338 433 406 446 367 438 b 294 447 318 431 301 447 b 279 425 288 447 279 433 b 346 403 279 417 311 403 b 444 419 372 403 407 408 l 440 338 b 424 165 438 269 432 213 b 44 297 300 239 171 297 b -49 215 -12 297 -49 256 b 217 -49 -49 85 106 -49 b 456 99 335 -49 411 -6 b 851 -119 615 -4 767 -119 b 911 -106 869 -119 911 -111 b 882 -97 911 -101 907 -97 b 792 -71 861 -97 824 -89 b 469 136 694 -17 585 64 b 503 340 488 190 497 258 b 513 443 504 371 508 406 b 797 664 649 496 797 592 b 610 915 797 761 693 915 z m 275 -11 b 7 214 106 -11 7 144 b 79 258 7 257 54 258 b 415 125 179 258 299 197 b 275 -11 392 32 349 -11 z m 644 853 b 728 706 690 853 728 772 b 649 551 728 642 707 594 b 517 482 610 524 564 500 b 644 853 542 654 589 853 z m 464 -107 b 443 -149 454 -106 451 -125 b 394 -275 435 -171 400 -260 b 400 -303 390 -286 389 -300 b 422 -292 408 -307 415 -301 b 492 -143 439 -265 492 -178 b 464 -107 492 -131 472 -107 z "},"Ľ":{"ha":796,"x_min":0,"x_max":0,"o":"m 610 915 b 449 458 531 915 471 697 b 338 433 406 446 367 438 b 294 447 318 431 301 447 b 279 425 288 447 279 433 b 346 403 279 417 311 403 b 444 419 372 403 407 408 l 440 338 b 424 165 438 269 432 213 b 44 297 300 239 171 297 b -49 215 -12 297 -49 256 b 217 -49 -49 85 106 -49 b 456 99 335 -49 411 -6 b 851 -119 615 -4 767 -119 b 911 -106 869 -119 911 -111 b 882 -97 911 -101 907 -97 b 792 -71 861 -97 824 -89 b 469 136 694 -17 585 64 b 503 340 488 190 497 258 b 513 443 504 371 508 406 b 797 664 649 496 797 592 b 610 915 797 761 693 915 z m 275 -11 b 7 214 106 -11 7 144 b 79 258 7 257 54 258 b 415 125 179 258 299 197 b 275 -11 392 32 349 -11 z m 644 853 b 728 706 690 853 728 772 b 649 551 728 642 707 594 b 517 482 610 524 564 500 b 644 853 542 654 589 853 z m 899 949 b 876 897 886 949 885 926 b 824 750 869 872 831 765 b 828 718 817 735 817 726 b 857 731 839 710 849 717 b 928 908 875 763 928 868 b 899 949 928 925 908 949 z "},"Ŀ":{"ha":796,"x_min":0,"x_max":0,"o":"m 610 915 b 449 458 531 915 471 697 b 338 433 406 446 367 438 b 294 447 318 431 301 447 b 279 425 288 447 279 433 b 346 403 279 417 311 403 b 444 419 372 403 407 408 l 440 338 b 424 165 438 269 432 213 b 44 297 300 239 171 297 b -49 215 -12 297 -49 256 b 217 -49 -49 85 106 -49 b 456 99 335 -49 411 -6 b 851 -119 615 -4 767 -119 b 911 -106 869 -119 911 -111 b 882 -97 911 -101 907 -97 b 792 -71 861 -97 824 -89 b 469 136 694 -17 585 64 b 503 340 488 190 497 258 b 513 443 504 371 508 406 b 797 664 649 496 797 592 b 610 915 797 761 693 915 z m 275 -11 b 7 214 106 -11 7 144 b 79 258 7 257 54 258 b 415 125 179 258 299 197 b 275 -11 392 32 349 -11 z m 644 853 b 728 706 690 853 728 772 b 649 551 728 642 707 594 b 517 482 610 524 564 500 b 644 853 542 654 589 853 z m 682 315 b 642 275 663 315 642 294 b 683 233 642 256 665 233 b 722 282 703 233 722 268 b 682 315 722 296 701 315 z "},"Ł":{"ha":796,"x_min":0,"x_max":0,"o":"m 610 915 b 449 458 531 915 471 697 b 338 433 406 446 367 438 b 294 447 318 431 301 447 b 279 425 288 447 279 433 b 346 403 279 417 311 403 b 444 419 372 403 407 408 l 440 350 b 329 310 388 331 335 313 b 293 264 306 297 288 281 b 307 256 296 257 303 254 b 351 279 310 257 319 268 b 439 307 363 282 397 293 b 424 165 436 253 431 206 b 44 297 300 239 171 297 b -49 215 -12 297 -49 256 b 217 -49 -49 85 106 -49 b 456 99 335 -49 411 -6 b 851 -119 615 -4 767 -119 b 911 -106 869 -119 911 -111 b 882 -97 911 -101 907 -97 b 792 -71 861 -97 824 -89 b 469 136 694 -17 585 64 b 501 329 486 188 496 253 b 619 381 554 349 603 368 b 639 421 633 390 643 406 b 629 425 636 425 633 426 b 564 394 626 424 600 410 l 504 372 l 513 443 b 797 664 649 496 797 592 b 610 915 797 761 693 915 z m 275 -11 b 7 214 106 -11 7 144 b 79 258 7 257 54 258 b 415 125 179 258 299 197 b 275 -11 392 32 349 -11 z m 644 853 b 728 706 690 853 728 772 b 649 551 728 642 707 594 b 517 482 610 524 564 500 b 644 853 542 654 589 853 z "},"Ñ":{"ha":618,"x_min":0,"x_max":0,"o":"m 225 876 b 165 835 189 876 165 860 b 125 428 165 771 151 600 b -97 -37 90 197 29 -37 b -133 -19 -112 -37 -133 -24 b -139 -7 -133 -15 -133 -7 b -161 -28 -144 -7 -161 -12 b -57 -74 -161 -54 -125 -74 b 207 736 147 -74 161 461 b 454 -49 244 440 329 -49 b 525 -21 493 -49 525 -37 b 521 106 525 -10 521 63 b 576 731 521 339 550 583 b 608 863 589 804 608 844 b 592 890 608 875 601 890 b 551 829 579 890 564 869 b 479 104 515 711 479 304 b 457 29 479 49 471 29 b 288 838 369 29 288 464 b 225 876 288 850 261 876 z m 319 933 b 339 921 311 917 329 903 b 361 953 346 933 350 942 b 526 957 396 989 460 897 b 556 994 539 968 549 981 b 539 1006 563 1010 547 1018 b 525 990 533 999 532 996 b 367 994 478 953 413 1031 b 319 933 347 979 331 956 z "},"Ń":{"ha":618,"x_min":0,"x_max":0,"o":"m 225 876 b 165 835 189 876 165 860 b 125 428 165 771 151 600 b -97 -37 90 197 29 -37 b -133 -19 -112 -37 -133 -24 b -139 -7 -133 -15 -133 -7 b -161 -28 -144 -7 -161 -12 b -57 -74 -161 -54 -125 -74 b 207 736 147 -74 161 461 b 454 -49 244 440 329 -49 b 525 -21 493 -49 525 -37 b 521 106 525 -10 521 63 b 576 731 521 339 550 583 b 608 863 589 804 608 844 b 592 890 608 875 601 890 b 551 829 579 890 564 869 b 479 104 515 711 479 304 b 457 29 479 49 471 29 b 288 838 369 29 288 464 b 225 876 288 850 261 876 z m 518 1036 b 496 1035 514 1047 503 1047 b 364 892 474 996 419 931 b 374 872 349 881 360 865 b 504 958 422 897 478 935 b 518 1036 524 978 528 1010 z "},"Ņ":{"ha":618,"x_min":0,"x_max":0,"o":"m 225 876 b 165 835 189 876 165 860 b 125 428 165 771 151 600 b -97 -37 90 197 29 -37 b -133 -19 -112 -37 -133 -24 b -139 -7 -133 -15 -133 -7 b -161 -28 -144 -7 -161 -12 b -57 -74 -161 -54 -125 -74 b 207 736 147 -74 161 461 b 454 -49 244 440 329 -49 b 525 -21 493 -49 525 -37 b 521 106 525 -10 521 63 b 576 731 521 339 550 583 b 608 863 589 804 608 844 b 592 890 608 875 601 890 b 551 829 579 890 564 869 b 479 104 515 711 479 304 b 457 29 479 49 471 29 b 288 838 369 29 288 464 b 225 876 288 850 261 876 z m 313 -107 b 292 -149 303 -106 300 -125 b 243 -275 283 -171 249 -260 b 249 -303 239 -286 238 -300 b 271 -292 257 -307 264 -301 b 340 -143 288 -265 340 -178 b 313 -107 340 -131 321 -107 z "},"Ň":{"ha":618,"x_min":0,"x_max":0,"o":"m 225 876 b 165 835 189 876 165 860 b 125 428 165 771 151 600 b -97 -37 90 197 29 -37 b -133 -19 -112 -37 -133 -24 b -139 -7 -133 -15 -133 -7 b -161 -28 -144 -7 -161 -12 b -57 -74 -161 -54 -125 -74 b 207 736 147 -74 161 461 b 454 -49 244 440 329 -49 b 525 -21 493 -49 525 -37 b 521 106 525 -10 521 63 b 576 731 521 339 550 583 b 608 863 589 804 608 844 b 592 890 608 875 601 890 b 551 829 579 890 564 869 b 479 104 515 711 479 304 b 457 29 479 49 471 29 b 288 838 369 29 288 464 b 225 876 288 850 261 876 z m 519 1011 b 501 1022 528 1026 511 1038 b 442 953 478 985 453 953 b 324 1019 424 953 358 992 b 304 1007 310 1031 296 1021 b 413 904 325 972 374 924 b 447 908 424 899 436 897 b 519 1011 467 928 500 976 z "},"Ŋ":{"ha":618,"x_min":0,"x_max":0,"o":"m 225 876 b 165 835 189 876 165 860 b 125 428 165 771 151 600 b -97 -37 90 197 29 -37 b -133 -19 -112 -37 -133 -24 b -139 -7 -133 -15 -133 -7 b -161 -28 -144 -7 -161 -12 b -57 -74 -161 -54 -125 -74 b 207 736 147 -74 161 461 b 454 -49 244 440 329 -49 b 478 -47 463 -49 471 -47 b 350 -294 469 -256 435 -294 b 164 -168 268 -294 199 -212 b 115 -142 150 -150 131 -142 b 93 -169 100 -142 93 -154 b 419 -350 93 -215 260 -350 b 528 -156 525 -350 528 -250 b 521 136 528 -51 522 67 b 576 731 522 360 551 589 b 608 863 589 804 608 844 b 592 890 608 875 601 890 b 551 829 579 890 564 869 b 479 104 515 711 479 304 b 457 29 479 49 471 29 b 288 838 369 29 288 464 b 225 876 288 850 261 876 z "},"Ò":{"ha":614,"x_min":0,"x_max":0,"o":"m 247 889 b 28 326 169 889 28 581 b 278 -54 28 26 171 -54 b 572 515 489 -54 572 206 b 247 889 572 772 490 889 z m 326 849 b 522 501 471 849 522 676 b 278 -11 522 160 431 -11 b 99 268 181 -11 99 39 b 326 849 99 501 206 849 z m 268 1026 b 408 922 286 989 353 942 b 422 939 428 915 438 931 b 296 1086 371 968 324 1031 b 268 1026 285 1108 246 1067 z "},"Ó":{"ha":614,"x_min":0,"x_max":0,"o":"m 247 889 b 28 326 169 889 28 581 b 278 -54 28 26 171 -54 b 572 515 489 -54 572 206 b 247 889 572 772 490 889 z m 326 849 b 522 501 471 849 522 676 b 278 -11 522 160 431 -11 b 99 268 181 -11 99 39 b 326 849 99 501 206 849 z m 488 1083 b 465 1082 483 1094 472 1094 b 333 939 443 1043 389 978 b 343 919 318 928 329 913 b 474 1006 392 944 447 982 b 488 1083 493 1025 497 1057 z "},"Ô":{"ha":614,"x_min":0,"x_max":0,"o":"m 247 889 b 28 326 169 889 28 581 b 278 -54 28 26 171 -54 b 572 515 489 -54 572 206 b 247 889 572 772 490 889 z m 326 849 b 522 501 471 849 522 676 b 278 -11 522 160 431 -11 b 99 268 181 -11 99 39 b 326 849 99 501 206 849 z m 293 933 b 311 919 283 919 301 906 b 361 990 336 950 344 963 b 461 922 389 968 403 956 b 474 939 475 915 485 931 b 388 1044 435 968 408 1007 b 342 1031 379 1060 344 1046 b 293 933 338 1008 321 967 z "},"Õ":{"ha":614,"x_min":0,"x_max":0,"o":"m 247 889 b 28 326 169 889 28 581 b 278 -54 28 26 171 -54 b 572 515 489 -54 572 206 b 247 889 572 772 490 889 z m 326 849 b 522 501 471 849 522 676 b 278 -11 522 160 431 -11 b 99 268 181 -11 99 39 b 326 849 99 501 206 849 z m 267 951 b 286 939 258 935 276 921 b 308 971 293 951 297 960 b 474 975 343 1007 407 915 b 503 1013 486 986 496 999 b 486 1024 510 1028 494 1036 b 472 1008 481 1017 479 1014 b 314 1013 425 971 360 1049 b 267 951 294 997 278 974 z "},"Ö":{"ha":614,"x_min":0,"x_max":0,"o":"m 247 889 b 28 326 169 889 28 581 b 278 -54 28 26 171 -54 b 572 515 489 -54 572 206 b 247 889 572 772 490 889 z m 326 849 b 522 501 471 849 522 676 b 278 -11 522 160 431 -11 b 99 268 181 -11 99 39 b 326 849 99 501 206 849 z m 321 1006 b 285 971 301 1006 285 983 b 331 933 285 947 315 933 b 356 961 344 933 356 946 b 321 1006 356 978 344 1006 z m 432 1019 b 403 985 413 1019 403 997 b 442 947 403 961 426 947 b 474 975 456 947 474 960 b 432 1019 474 992 456 1019 z "},"Ø":{"ha":614,"x_min":0,"x_max":0,"o":"m 247 889 b 28 326 169 889 28 581 b 58 119 28 240 39 172 b -6 10 35 81 13 43 b -1 -40 -22 -19 -22 -40 b 40 -14 19 -40 35 -24 l 83 64 b 278 -54 135 -25 213 -54 b 572 515 489 -54 572 206 b 535 743 572 610 561 686 b 592 818 554 769 572 794 b 607 847 603 832 607 840 b 597 858 607 856 601 858 b 572 843 590 858 582 854 b 515 778 554 824 535 801 b 247 889 467 853 382 889 z m 497 693 b 522 501 514 636 522 568 b 278 -11 522 160 431 -11 b 115 118 207 -11 143 15 b 497 693 225 304 364 513 z m 326 849 b 481 735 400 849 450 803 b 101 190 360 582 215 372 b 99 268 100 214 99 239 b 326 849 99 501 206 849 z "},"Ō":{"ha":614,"x_min":0,"x_max":0,"o":"m 247 889 b 28 326 169 889 28 581 b 278 -54 28 26 171 -54 b 572 515 489 -54 572 206 b 247 889 572 772 490 889 z m 326 849 b 522 501 471 849 522 676 b 278 -11 522 160 431 -11 b 99 268 181 -11 99 39 b 326 849 99 501 206 849 z m 268 944 b 278 932 268 936 271 929 b 322 942 290 938 306 940 b 450 956 363 944 425 943 b 478 993 469 965 478 978 b 467 1001 478 999 475 1004 b 419 990 458 999 444 994 b 306 976 376 983 342 986 b 268 944 281 969 268 961 z "},"Ŏ":{"ha":614,"x_min":0,"x_max":0,"o":"m 247 889 b 28 326 169 889 28 581 b 278 -54 28 26 171 -54 b 572 515 489 -54 572 206 b 247 889 572 772 490 889 z m 326 849 b 522 501 471 849 522 676 b 278 -11 522 160 431 -11 b 99 268 181 -11 99 39 b 326 849 99 501 206 849 z m 489 1010 b 475 1024 497 1019 488 1036 b 382 978 443 992 413 978 b 299 1015 346 978 322 996 b 265 1007 290 1022 276 1018 b 263 981 253 994 257 986 b 371 943 281 963 322 943 b 489 1010 415 943 453 968 z "},"Ő":{"ha":614,"x_min":0,"x_max":0,"o":"m 247 889 b 28 326 169 889 28 581 b 278 -54 28 26 171 -54 b 572 515 489 -54 572 206 b 247 889 572 772 490 889 z m 326 849 b 522 501 471 849 522 676 b 278 -11 522 160 431 -11 b 99 268 181 -11 99 39 b 326 849 99 501 206 849 z m 389 1093 b 371 1049 378 1093 376 1074 b 328 922 364 1018 343 960 b 347 915 321 906 339 901 b 414 1060 363 943 415 1025 b 389 1093 413 1074 397 1093 z m 475 1117 b 457 1072 464 1117 464 1097 b 414 946 446 1032 429 983 b 432 938 408 931 421 921 b 500 1083 454 971 501 1049 b 475 1117 499 1097 483 1117 z "},"Ǿ":{"ha":614,"x_min":0,"x_max":0,"o":"m 247 889 b 28 326 169 889 28 581 b 58 119 28 240 39 172 b -6 10 35 81 13 43 b -1 -40 -22 -19 -22 -40 b 40 -14 19 -40 35 -24 l 83 64 b 278 -54 135 -25 213 -54 b 572 515 489 -54 572 206 b 535 743 572 610 561 686 b 592 818 554 769 572 794 b 607 847 603 832 607 840 b 597 858 607 856 601 858 b 572 843 590 858 582 854 b 515 778 554 824 535 801 b 247 889 467 853 382 889 z m 497 693 b 522 501 514 636 522 568 b 278 -11 522 160 431 -11 b 115 118 207 -11 143 15 b 497 693 225 304 364 513 z m 326 849 b 481 735 400 849 450 803 b 101 190 360 582 215 372 b 99 268 100 214 99 239 b 326 849 99 501 206 849 z m 510 1088 b 488 1086 506 1099 494 1099 b 356 943 465 1047 411 982 b 365 924 340 932 351 917 b 496 1010 414 949 469 986 b 510 1088 515 1029 519 1061 z "},"Œ":{"ha":1131,"x_min":0,"x_max":0,"o":"m 247 889 b 28 326 169 889 28 581 b 278 -54 28 26 171 -54 b 513 136 390 -54 467 19 b 731 -49 550 -15 593 -49 b 1114 108 938 -49 1114 60 b 1083 138 1114 125 1093 138 b 1074 121 1074 138 1074 132 b 1054 93 1074 110 1074 106 b 736 8 1004 60 894 8 b 539 199 619 8 560 56 b 538 208 538 201 538 206 b 567 392 553 264 561 325 b 953 449 714 394 953 435 b 842 463 953 463 882 464 l 571 446 b 572 515 571 468 572 492 b 526 760 572 619 558 700 b 1017 818 700 794 947 818 b 1122 828 1050 818 1122 815 b 993 849 1122 840 1110 849 b 540 806 874 849 696 826 b 499 800 525 803 513 801 b 247 889 449 860 368 889 z m 457 404 b 518 392 457 393 478 392 b 278 -11 500 122 413 -11 b 99 268 181 -11 99 39 b 326 849 99 501 206 849 b 446 792 376 849 415 826 b 332 753 374 781 332 768 b 372 704 332 735 360 704 b 413 731 385 704 388 722 b 475 747 431 736 451 742 b 522 501 508 682 522 592 b 521 442 522 481 522 461 b 457 404 356 425 457 414 z "},"Ŕ":{"ha":754,"x_min":0,"x_max":0,"o":"m 490 860 b 182 803 393 860 283 835 b 118 861 176 851 153 861 b 107 836 110 861 107 851 l 107 776 b -93 646 -33 725 -93 682 b -72 618 -93 626 -82 618 b -62 625 -67 618 -62 621 b -68 636 -62 632 -68 631 b 106 726 -68 654 7 690 b 90 126 103 469 90 165 b 138 -57 90 -26 97 -57 b 164 -44 149 -57 164 -53 b 143 125 164 -36 143 -24 b 151 311 143 158 146 229 l 176 317 b 619 -17 321 129 493 -17 b 692 22 647 -17 692 17 b 685 28 692 26 689 28 b 631 15 674 28 661 15 b 258 340 518 15 333 181 b 751 697 471 408 751 540 b 490 860 751 789 646 860 z m 182 751 b 507 815 296 786 424 815 b 676 707 624 815 676 782 b 156 367 676 525 315 388 b 182 751 165 519 179 690 z m 464 1051 b 442 1050 460 1063 449 1063 b 310 907 419 1011 365 946 b 319 888 294 896 306 881 b 450 974 368 913 424 950 b 464 1051 469 993 474 1025 z "},"Ŗ":{"ha":754,"x_min":0,"x_max":0,"o":"m 490 860 b 182 803 393 860 283 835 b 118 861 176 851 153 861 b 107 836 110 861 107 851 l 107 776 b -93 646 -33 725 -93 682 b -72 618 -93 626 -82 618 b -62 625 -67 618 -62 621 b -68 636 -62 632 -68 631 b 106 726 -68 654 7 690 b 90 126 103 469 90 165 b 138 -57 90 -26 97 -57 b 164 -44 149 -57 164 -53 b 143 125 164 -36 143 -24 b 151 311 143 158 146 229 l 176 317 b 619 -17 321 129 493 -17 b 692 22 647 -17 692 17 b 685 28 692 26 689 28 b 631 15 674 28 661 15 b 258 340 518 15 333 181 b 751 697 471 408 751 540 b 490 860 751 789 646 860 z m 182 751 b 507 815 296 786 424 815 b 676 707 624 815 676 782 b 156 367 676 525 315 388 b 182 751 165 519 179 690 z m 354 -107 b 333 -149 344 -106 342 -125 b 285 -275 325 -171 290 -260 b 290 -303 281 -286 279 -300 b 313 -292 299 -307 306 -301 b 382 -143 329 -265 382 -178 b 354 -107 382 -131 363 -107 z "},"Ř":{"ha":754,"x_min":0,"x_max":0,"o":"m 490 860 b 182 803 393 860 283 835 b 118 861 176 851 153 861 b 107 836 110 861 107 851 l 107 776 b -93 646 -33 725 -93 682 b -72 618 -93 626 -82 618 b -62 625 -67 618 -62 621 b -68 636 -62 632 -68 631 b 106 726 -68 654 7 690 b 90 126 103 469 90 165 b 138 -57 90 -26 97 -57 b 164 -44 149 -57 164 -53 b 143 125 164 -36 143 -24 b 151 311 143 158 146 229 l 176 317 b 619 -17 321 129 493 -17 b 692 22 647 -17 692 17 b 685 28 692 26 689 28 b 631 15 674 28 661 15 b 258 340 518 15 333 181 b 751 697 471 408 751 540 b 490 860 751 789 646 860 z m 182 751 b 507 815 296 786 424 815 b 676 707 624 815 676 782 b 156 367 676 525 315 388 b 182 751 165 519 179 690 z m 461 1013 b 443 1024 469 1028 453 1039 b 383 954 419 986 394 954 b 265 1021 365 954 300 993 b 246 1008 251 1032 238 1022 b 354 906 267 974 315 925 b 389 910 365 900 378 899 b 461 1013 408 929 442 978 z "},"Ś":{"ha":608,"x_min":0,"x_max":0,"o":"m 272 882 b 38 426 143 882 38 536 b 276 215 38 301 160 256 b 483 86 382 179 483 147 b 342 -1 483 22 426 -1 b 6 68 222 -1 49 32 b -6 85 -3 75 3 85 b -22 64 -14 85 -22 71 b 357 -50 -22 8 211 -50 b 553 69 474 -50 553 6 b 318 249 553 165 431 207 b 113 457 178 300 113 325 b 307 838 113 546 218 838 b 417 710 364 838 399 785 b 433 525 429 654 433 585 b 468 436 433 465 444 436 b 500 565 485 436 500 456 b 425 818 500 728 458 793 b 272 882 392 843 315 882 z m 496 1065 b 474 1064 492 1076 481 1076 b 342 921 451 1025 397 960 b 351 901 326 910 338 894 b 482 988 400 926 456 964 b 496 1065 501 1007 506 1039 z "},"Ŝ":{"ha":608,"x_min":0,"x_max":0,"o":"m 272 882 b 38 426 143 882 38 536 b 276 215 38 301 160 256 b 483 86 382 179 483 147 b 342 -1 483 22 426 -1 b 6 68 222 -1 49 32 b -6 85 -3 75 3 85 b -22 64 -14 85 -22 71 b 357 -50 -22 8 211 -50 b 553 69 474 -50 553 6 b 318 249 553 165 431 207 b 113 457 178 300 113 325 b 307 838 113 546 218 838 b 417 710 364 838 399 785 b 433 525 429 654 433 585 b 468 436 433 465 444 436 b 500 565 485 436 500 456 b 425 818 500 728 458 793 b 272 882 392 843 315 882 z m 279 946 b 297 932 269 932 288 918 b 347 1003 322 963 331 975 b 447 935 375 981 389 968 b 460 951 461 928 471 943 b 374 1057 421 981 394 1019 b 328 1043 365 1072 331 1058 b 279 946 324 1021 307 979 z "},"Ş":{"ha":608,"x_min":0,"x_max":0,"o":"m 272 882 b 38 426 143 882 38 536 b 276 215 38 301 160 256 b 483 86 382 179 483 147 b 342 -1 483 22 426 -1 b 6 68 222 -1 49 32 b -6 85 -3 75 3 85 b -22 64 -14 85 -22 71 b 357 -50 -22 8 211 -50 b 553 69 474 -50 553 6 b 318 249 553 165 431 207 b 113 457 178 300 113 325 b 307 838 113 546 218 838 b 417 710 364 838 399 785 b 433 525 429 654 433 585 b 468 436 433 465 444 436 b 500 565 485 436 500 456 b 425 818 500 728 458 793 b 272 882 392 843 315 882 z m 340 -199 b 271 -293 340 -240 317 -265 b 281 -312 257 -301 265 -319 b 379 -178 325 -294 379 -249 b 313 -86 379 -126 344 -94 b 265 -128 290 -81 243 -125 b 340 -199 307 -133 340 -160 z "},"Š":{"ha":608,"x_min":0,"x_max":0,"o":"m 272 882 b 38 426 143 882 38 536 b 276 215 38 301 160 256 b 483 86 382 179 483 147 b 342 -1 483 22 426 -1 b 6 68 222 -1 49 32 b -6 85 -3 75 3 85 b -22 64 -14 85 -22 71 b 357 -50 -22 8 211 -50 b 553 69 474 -50 553 6 b 318 249 553 165 431 207 b 113 457 178 300 113 325 b 307 838 113 546 218 838 b 417 710 364 838 399 785 b 433 525 429 654 433 585 b 468 436 433 465 444 436 b 500 565 485 436 500 456 b 425 818 500 728 458 793 b 272 882 392 843 315 882 z m 440 1032 b 422 1043 449 1047 432 1058 b 363 974 399 1006 374 974 b 244 1040 344 974 279 1013 b 225 1028 231 1051 217 1042 b 333 925 246 993 294 944 b 368 929 344 919 357 918 b 440 1032 388 949 421 997 z "},"Ţ":{"ha":782,"x_min":0,"x_max":0,"o":"m 839 838 b 26 779 765 838 267 819 b -72 715 -47 767 -72 749 b 76 594 -72 619 -21 594 b 336 665 219 594 336 638 b 333 675 336 671 339 675 b 69 636 315 675 247 636 b -31 679 1 636 -31 657 b 88 736 -31 703 -10 721 b 401 769 172 750 288 761 b 368 67 400 439 368 218 b 422 -42 368 -26 397 -42 b 438 -26 432 -42 438 -33 b 426 35 438 -19 426 -11 b 504 776 426 253 465 675 b 846 794 685 789 840 794 b 892 815 860 794 892 801 b 839 838 892 829 865 838 z m 413 -107 b 392 -149 403 -106 400 -125 b 343 -275 383 -171 349 -260 b 349 -303 339 -286 338 -300 b 371 -292 357 -307 364 -301 b 440 -143 388 -265 440 -178 b 413 -107 440 -131 421 -107 z "},"Ť":{"ha":782,"x_min":0,"x_max":0,"o":"m 839 838 b 26 779 765 838 267 819 b -72 715 -47 767 -72 749 b 76 594 -72 619 -21 594 b 336 665 219 594 336 638 b 333 675 336 671 339 675 b 69 636 315 675 247 636 b -31 679 1 636 -31 657 b 88 736 -31 703 -10 721 b 401 769 172 750 288 761 b 368 67 400 439 368 218 b 422 -42 368 -26 397 -42 b 438 -26 432 -42 438 -33 b 426 35 438 -19 426 -11 b 504 776 426 253 465 675 b 846 794 685 789 840 794 b 892 815 860 794 892 801 b 839 838 892 829 865 838 z m 564 996 b 546 1007 572 1011 556 1022 b 486 938 522 969 497 938 b 368 1004 468 938 403 976 b 349 992 354 1015 340 1006 b 457 889 369 957 418 908 b 492 893 468 883 481 882 b 564 996 511 913 544 961 z "},"Ŧ":{"ha":782,"x_min":0,"x_max":0,"o":"m 174 344 b 196 333 174 338 181 331 b 293 342 224 339 257 342 b 383 343 319 342 351 342 b 368 67 375 231 368 140 b 422 -42 368 -26 397 -42 b 438 -26 432 -42 438 -33 b 426 35 438 -19 426 -11 b 440 344 426 118 432 231 b 575 356 496 346 547 349 b 636 390 618 364 636 376 b 613 397 636 394 631 400 b 508 388 593 394 563 392 l 444 383 b 504 776 460 554 482 718 b 846 794 685 789 840 794 b 892 815 860 794 892 801 b 839 838 892 829 865 838 b 26 779 765 838 267 819 b -72 715 -47 767 -72 749 b 76 594 -72 619 -21 594 b 336 665 219 594 336 638 b 333 675 336 671 339 675 b 69 636 315 675 247 636 b -31 679 1 636 -31 657 b 88 736 -31 703 -10 721 b 401 769 172 750 288 761 b 386 382 400 618 394 490 b 257 375 342 381 300 379 b 174 344 201 368 174 360 z "},"Ù":{"ha":656,"x_min":0,"x_max":0,"o":"m 211 867 b 172 801 200 867 189 833 b -65 589 115 693 10 589 b -106 588 -81 589 -106 597 b -39 558 -106 576 -69 558 b 108 635 21 558 79 606 b 67 299 89 553 67 390 b 275 -26 67 90 142 -26 b 500 250 389 -26 463 114 b 499 167 499 219 499 189 b 564 -69 499 4 519 -69 b 588 -57 574 -69 588 -67 b 553 164 588 -47 553 -65 b 599 651 553 290 575 538 b 633 764 613 718 633 761 b 550 807 633 772 574 807 b 525 790 539 807 525 800 b 535 674 525 781 535 753 b 278 7 535 383 406 7 b 128 260 186 7 128 92 b 249 792 128 458 190 708 b 272 822 258 806 272 814 b 211 867 272 844 235 867 z m 317 961 b 457 857 335 924 401 876 b 471 874 476 850 486 865 b 344 1021 419 903 372 965 b 317 961 333 1043 294 1001 z "},"Ú":{"ha":656,"x_min":0,"x_max":0,"o":"m 211 867 b 172 801 200 867 189 833 b -65 589 115 693 10 589 b -106 588 -81 589 -106 597 b -39 558 -106 576 -69 558 b 108 635 21 558 79 606 b 67 299 89 553 67 390 b 275 -26 67 90 142 -26 b 500 250 389 -26 463 114 b 499 167 499 219 499 189 b 564 -69 499 4 519 -69 b 588 -57 574 -69 588 -67 b 553 164 588 -47 553 -65 b 599 651 553 290 575 538 b 633 764 613 718 633 761 b 550 807 633 772 574 807 b 525 790 539 807 525 800 b 535 674 525 781 535 753 b 278 7 535 383 406 7 b 128 260 186 7 128 92 b 249 792 128 458 190 708 b 272 822 258 806 272 814 b 211 867 272 844 235 867 z m 497 1015 b 475 1014 493 1026 482 1026 b 343 871 453 975 399 910 b 353 851 328 860 339 844 b 483 938 401 876 457 914 b 497 1015 503 957 507 989 z "},"Û":{"ha":656,"x_min":0,"x_max":0,"o":"m 211 867 b 172 801 200 867 189 833 b -65 589 115 693 10 589 b -106 588 -81 589 -106 597 b -39 558 -106 576 -69 558 b 108 635 21 558 79 606 b 67 299 89 553 67 390 b 275 -26 67 90 142 -26 b 500 250 389 -26 463 114 b 499 167 499 219 499 189 b 564 -69 499 4 519 -69 b 588 -57 574 -69 588 -67 b 553 164 588 -47 553 -65 b 599 651 553 290 575 538 b 633 764 613 718 633 761 b 550 807 633 772 574 807 b 525 790 539 807 525 800 b 535 674 525 781 535 753 b 278 7 535 383 406 7 b 128 260 186 7 128 92 b 249 792 128 458 190 708 b 272 822 258 806 272 814 b 211 867 272 844 235 867 z m 368 897 b 386 883 358 883 376 869 b 436 954 411 914 419 926 b 536 886 464 932 478 919 b 549 903 550 879 560 894 b 463 1008 510 932 483 971 b 417 994 454 1024 419 1010 b 368 897 413 972 396 931 z "},"Ü":{"ha":656,"x_min":0,"x_max":0,"o":"m 211 867 b 172 801 200 867 189 833 b -65 589 115 693 10 589 b -106 588 -81 589 -106 597 b -39 558 -106 576 -69 558 b 108 635 21 558 79 606 b 67 299 89 553 67 390 b 275 -26 67 90 142 -26 b 500 250 389 -26 463 114 b 499 167 499 219 499 189 b 564 -69 499 4 519 -69 b 588 -57 574 -69 588 -67 b 553 164 588 -47 553 -65 b 599 651 553 290 575 538 b 633 764 613 718 633 761 b 550 807 633 772 574 807 b 525 790 539 807 525 800 b 535 674 525 781 535 753 b 278 7 535 383 406 7 b 128 260 186 7 128 92 b 249 792 128 458 190 708 b 272 822 258 806 272 814 b 211 867 272 844 235 867 z m 375 971 b 339 936 356 971 339 949 b 385 899 339 913 369 899 b 410 926 399 899 410 911 b 375 971 410 943 399 971 z m 486 985 b 457 950 467 985 457 963 b 496 913 457 926 481 913 b 528 940 510 913 528 925 b 486 985 528 957 510 985 z "},"Ũ":{"ha":656,"x_min":0,"x_max":0,"o":"m 211 867 b 172 801 200 867 189 833 b -65 589 115 693 10 589 b -106 588 -81 589 -106 597 b -39 558 -106 576 -69 558 b 108 635 21 558 79 606 b 67 299 89 553 67 390 b 275 -26 67 90 142 -26 b 500 250 389 -26 463 114 b 499 167 499 219 499 189 b 564 -69 499 4 519 -69 b 588 -57 574 -69 588 -67 b 553 164 588 -47 553 -65 b 599 651 553 290 575 538 b 633 764 613 718 633 761 b 550 807 633 772 574 807 b 525 790 539 807 525 800 b 535 674 525 781 535 753 b 278 7 535 383 406 7 b 128 260 186 7 128 92 b 249 792 128 458 190 708 b 272 822 258 806 272 814 b 211 867 272 844 235 867 z m 328 878 b 347 865 319 861 338 847 b 369 897 354 878 358 886 b 535 901 404 933 468 842 b 564 939 547 913 557 925 b 547 950 571 954 556 963 b 533 935 542 943 540 940 b 375 939 486 897 421 975 b 328 878 356 924 339 900 z "},"Ū":{"ha":656,"x_min":0,"x_max":0,"o":"m 211 867 b 172 801 200 867 189 833 b -65 589 115 693 10 589 b -106 588 -81 589 -106 597 b -39 558 -106 576 -69 558 b 108 635 21 558 79 606 b 67 299 89 553 67 390 b 275 -26 67 90 142 -26 b 500 250 389 -26 463 114 b 499 167 499 219 499 189 b 564 -69 499 4 519 -69 b 588 -57 574 -69 588 -67 b 553 164 588 -47 553 -65 b 599 651 553 290 575 538 b 633 764 613 718 633 761 b 550 807 633 772 574 807 b 525 790 539 807 525 800 b 535 674 525 781 535 753 b 278 7 535 383 406 7 b 128 260 186 7 128 92 b 249 792 128 458 190 708 b 272 822 258 806 272 814 b 211 867 272 844 235 867 z m 336 878 b 346 865 336 869 339 863 b 390 875 358 871 374 874 b 518 889 431 878 493 876 b 546 926 538 899 546 911 b 535 935 546 932 543 938 b 488 924 526 932 513 928 b 374 910 444 917 410 919 b 336 878 349 903 336 894 z "},"Ŭ":{"ha":656,"x_min":0,"x_max":0,"o":"m 211 867 b 172 801 200 867 189 833 b -65 589 115 693 10 589 b -106 588 -81 589 -106 597 b -39 558 -106 576 -69 558 b 108 635 21 558 79 606 b 67 299 89 553 67 390 b 275 -26 67 90 142 -26 b 500 250 389 -26 463 114 b 499 167 499 219 499 189 b 564 -69 499 4 519 -69 b 588 -57 574 -69 588 -67 b 553 164 588 -47 553 -65 b 599 651 553 290 575 538 b 633 764 613 718 633 761 b 550 807 633 772 574 807 b 525 790 539 807 525 800 b 535 674 525 781 535 753 b 278 7 535 383 406 7 b 128 260 186 7 128 92 b 249 792 128 458 190 708 b 272 822 258 806 272 814 b 211 867 272 844 235 867 z m 554 933 b 540 947 563 943 553 960 b 447 901 508 915 478 901 b 364 939 411 901 388 919 b 331 931 356 946 342 942 b 328 904 318 918 322 910 b 436 867 346 886 388 867 b 554 933 481 867 518 892 z "},"Ů":{"ha":656,"x_min":0,"x_max":0,"o":"m 211 867 b 172 801 200 867 189 833 b -65 589 115 693 10 589 b -106 588 -81 589 -106 597 b -39 558 -106 576 -69 558 b 108 635 21 558 79 606 b 67 299 89 553 67 390 b 275 -26 67 90 142 -26 b 500 250 389 -26 463 114 b 499 167 499 219 499 189 b 564 -69 499 4 519 -69 b 588 -57 574 -69 588 -67 b 553 164 588 -47 553 -65 b 599 651 553 290 575 538 b 633 764 613 718 633 761 b 550 807 633 772 574 807 b 525 790 539 807 525 800 b 535 674 525 781 535 753 b 278 7 535 383 406 7 b 128 260 186 7 128 92 b 249 792 128 458 190 708 b 272 822 258 806 272 814 b 211 867 272 844 235 867 z m 397 1018 b 339 918 372 1018 339 961 b 422 836 339 860 368 836 b 500 944 472 836 500 899 b 426 1015 500 986 476 1015 b 397 1018 413 1015 410 1018 z m 425 993 b 471 935 460 993 471 957 b 417 856 471 888 444 856 b 374 906 392 856 374 875 b 425 993 374 931 389 993 z "},"Ű":{"ha":656,"x_min":0,"x_max":0,"o":"m 211 867 b 172 801 200 867 189 833 b -65 589 115 693 10 589 b -106 588 -81 589 -106 597 b -39 558 -106 576 -69 558 b 108 635 21 558 79 606 b 67 299 89 553 67 390 b 275 -26 67 90 142 -26 b 500 250 389 -26 463 114 b 499 167 499 219 499 189 b 564 -69 499 4 519 -69 b 588 -57 574 -69 588 -67 b 553 164 588 -47 553 -65 b 599 651 553 290 575 538 b 633 764 613 718 633 761 b 550 807 633 772 574 807 b 525 790 539 807 525 800 b 535 674 525 781 535 753 b 278 7 535 383 406 7 b 128 260 186 7 128 92 b 249 792 128 458 190 708 b 272 822 258 806 272 814 b 211 867 272 844 235 867 z m 417 1024 b 399 979 406 1024 404 1004 b 356 853 392 949 371 890 b 375 846 349 836 367 832 b 442 990 390 874 443 956 b 417 1024 440 1004 425 1024 z m 503 1047 b 485 1003 492 1047 492 1028 b 442 876 474 963 457 914 b 460 868 436 861 449 851 b 528 1014 482 901 529 979 b 503 1047 526 1028 511 1047 z "},"Ų":{"ha":656,"x_min":0,"x_max":0,"o":"m 501 -199 b 576 -285 501 -249 533 -285 b 675 -200 622 -285 657 -237 b 657 -189 682 -185 668 -174 b 582 -239 636 -218 611 -239 b 535 -182 556 -239 535 -218 b 579 -67 535 -143 551 -107 b 588 -57 583 -64 588 -61 b 553 164 588 -47 553 -65 b 599 651 553 290 575 538 b 633 764 613 718 633 761 b 550 807 633 772 574 807 b 525 790 539 807 525 800 b 535 674 525 781 535 753 b 278 7 535 383 406 7 b 128 260 186 7 128 92 b 249 792 128 458 190 708 b 272 822 258 806 272 814 b 211 867 272 844 235 867 b 172 801 200 867 189 833 b -65 589 115 693 10 589 b -106 588 -81 589 -106 597 b -39 558 -106 576 -69 558 b 108 635 21 558 79 606 b 67 299 89 553 67 390 b 275 -26 67 90 142 -26 b 500 250 389 -26 463 114 b 499 167 499 219 499 189 b 551 -67 499 19 515 -54 b 501 -199 524 -107 501 -154 z "},"Ŵ":{"ha":789,"x_min":0,"x_max":0,"o":"m 85 850 b 54 819 67 850 54 831 b 40 397 54 808 40 481 b 214 -50 40 136 114 -50 b 369 244 296 -50 347 100 b 533 -26 385 96 428 -26 b 751 639 679 -26 751 389 b 693 906 751 796 747 906 b 683 890 681 906 683 897 b 710 654 683 883 710 825 b 522 14 710 369 611 14 b 417 310 472 14 417 133 b 460 731 417 656 460 718 b 389 760 460 743 433 760 b 365 740 375 760 365 750 b 369 613 365 731 369 649 b 211 6 369 354 319 6 b 96 408 147 6 96 144 b 144 803 96 640 144 781 b 85 850 144 832 107 850 z m 343 872 b 361 858 333 858 351 844 b 411 929 386 889 394 901 b 511 861 439 907 453 894 b 524 878 525 854 535 869 b 438 983 485 907 458 946 b 392 969 429 999 394 985 b 343 872 388 947 371 906 z "},"Ẁ":{"ha":789,"x_min":0,"x_max":0,"o":"m 85 850 b 54 819 67 850 54 831 b 40 397 54 808 40 481 b 214 -50 40 136 114 -50 b 369 244 296 -50 347 100 b 533 -26 385 96 428 -26 b 751 639 679 -26 751 389 b 693 906 751 796 747 906 b 683 890 681 906 683 897 b 710 654 683 883 710 825 b 522 14 710 369 611 14 b 417 310 472 14 417 133 b 460 731 417 656 460 718 b 389 760 460 743 433 760 b 365 740 375 760 365 750 b 369 613 365 731 369 649 b 211 6 369 354 319 6 b 96 408 147 6 96 144 b 144 803 96 640 144 781 b 85 850 144 832 107 850 z m 331 939 b 471 835 349 901 415 854 b 485 851 490 828 500 843 b 358 999 433 881 386 943 b 331 939 347 1021 308 979 z "},"Ẃ":{"ha":789,"x_min":0,"x_max":0,"o":"m 85 850 b 54 819 67 850 54 831 b 40 397 54 808 40 481 b 214 -50 40 136 114 -50 b 369 244 296 -50 347 100 b 533 -26 385 96 428 -26 b 751 639 679 -26 751 389 b 693 906 751 796 747 906 b 683 890 681 906 683 897 b 710 654 683 883 710 825 b 522 14 710 369 611 14 b 417 310 472 14 417 133 b 460 731 417 656 460 718 b 389 760 460 743 433 760 b 365 740 375 760 365 750 b 369 613 365 731 369 649 b 211 6 369 354 319 6 b 96 408 147 6 96 144 b 144 803 96 640 144 781 b 85 850 144 832 107 850 z m 483 996 b 461 994 479 1007 468 1007 b 329 851 439 956 385 890 b 339 832 314 840 325 825 b 469 918 388 857 443 894 b 483 996 489 938 493 969 z "},"Ẅ":{"ha":789,"x_min":0,"x_max":0,"o":"m 85 850 b 54 819 67 850 54 831 b 40 397 54 808 40 481 b 214 -50 40 136 114 -50 b 369 244 296 -50 347 100 b 533 -26 385 96 428 -26 b 751 639 679 -26 751 389 b 693 906 751 796 747 906 b 683 890 681 906 683 897 b 710 654 683 883 710 825 b 522 14 710 369 611 14 b 417 310 472 14 417 133 b 460 731 417 656 460 718 b 389 760 460 743 433 760 b 365 740 375 760 365 750 b 369 613 365 731 369 649 b 211 6 369 354 319 6 b 96 408 147 6 96 144 b 144 803 96 640 144 781 b 85 850 144 832 107 850 z m 336 936 b 300 901 317 936 300 914 b 346 864 300 878 331 864 b 371 892 360 864 371 876 b 336 936 371 908 360 936 z m 447 950 b 418 915 428 950 418 928 b 457 878 418 892 442 878 b 489 906 471 878 489 890 b 447 950 489 922 471 950 z "},"Ý":{"ha":565,"x_min":0,"x_max":0,"o":"m 79 824 b 57 801 68 824 57 813 b 61 704 57 790 61 735 b 38 271 61 674 38 335 b 218 -4 38 79 111 -4 b 422 326 326 -4 399 158 b 431 57 425 236 431 103 b 208 -322 431 -211 336 -322 b -19 -207 93 -322 44 -207 b -49 -231 -39 -207 -49 -218 b 246 -357 -49 -289 167 -357 b 492 -29 383 -357 492 -215 b 472 358 492 85 472 263 b 528 843 472 631 528 832 b 474 881 528 854 483 881 b 450 861 464 881 450 869 b 213 29 450 676 408 29 b 94 290 131 29 94 93 b 142 765 94 456 142 753 b 79 824 142 789 99 824 z m 374 1046 b 351 1044 369 1057 358 1057 b 219 901 329 1006 275 940 b 229 882 204 890 215 875 b 360 968 278 907 333 944 b 374 1046 379 988 383 1019 z "},"Ŷ":{"ha":565,"x_min":0,"x_max":0,"o":"m 79 824 b 57 801 68 824 57 813 b 61 704 57 790 61 735 b 38 271 61 674 38 335 b 218 -4 38 79 111 -4 b 422 326 326 -4 399 158 b 431 57 425 236 431 103 b 208 -322 431 -211 336 -322 b -19 -207 93 -322 44 -207 b -49 -231 -39 -207 -49 -218 b 246 -357 -49 -289 167 -357 b 492 -29 383 -357 492 -215 b 472 358 492 85 472 263 b 528 843 472 631 528 832 b 474 881 528 854 483 881 b 450 861 464 881 450 869 b 213 29 450 676 408 29 b 94 290 131 29 94 93 b 142 765 94 456 142 753 b 79 824 142 789 99 824 z m 207 883 b 225 869 197 869 215 856 b 275 940 250 900 258 913 b 375 872 303 918 317 906 b 388 889 389 865 399 881 b 301 994 349 918 322 957 b 256 981 293 1010 258 996 b 207 883 251 958 235 917 z "},"Ÿ":{"ha":565,"x_min":0,"x_max":0,"o":"m 79 824 b 57 801 68 824 57 813 b 61 704 57 790 61 735 b 38 271 61 674 38 335 b 218 -4 38 79 111 -4 b 422 326 326 -4 399 158 b 431 57 425 236 431 103 b 208 -322 431 -211 336 -322 b -19 -207 93 -322 44 -207 b -49 -231 -39 -207 -49 -218 b 246 -357 -49 -289 167 -357 b 492 -29 383 -357 492 -215 b 472 358 492 85 472 263 b 528 843 472 631 528 832 b 474 881 528 854 483 881 b 450 861 464 881 450 869 b 213 29 450 676 408 29 b 94 290 131 29 94 93 b 142 765 94 456 142 753 b 79 824 142 789 99 824 z m 215 953 b 179 918 196 953 179 931 b 225 881 179 894 210 881 b 250 908 239 881 250 893 b 215 953 250 925 239 953 z m 326 967 b 297 932 307 967 297 944 b 336 894 297 908 321 894 b 368 922 350 894 368 907 b 326 967 368 939 350 967 z "},"Ỳ":{"ha":565,"x_min":0,"x_max":0,"o":"m 79 824 b 57 801 68 824 57 813 b 61 704 57 790 61 735 b 38 271 61 674 38 335 b 218 -4 38 79 111 -4 b 422 326 326 -4 399 158 b 431 57 425 236 431 103 b 208 -322 431 -211 336 -322 b -19 -207 93 -322 44 -207 b -49 -231 -39 -207 -49 -218 b 246 -357 -49 -289 167 -357 b 492 -29 383 -357 492 -215 b 472 358 492 85 472 263 b 528 843 472 631 528 832 b 474 881 528 854 483 881 b 450 861 464 881 450 869 b 213 29 450 676 408 29 b 94 290 131 29 94 93 b 142 765 94 456 142 753 b 79 824 142 789 99 824 z m 189 949 b 329 844 207 911 274 864 b 343 861 349 838 358 853 b 217 1008 292 890 244 953 b 189 949 206 1031 167 989 z "},"Ź":{"ha":656,"x_min":0,"x_max":0,"o":"m 546 833 b 135 756 497 833 250 790 b 76 719 93 743 76 732 b 97 681 76 696 92 681 b 119 703 103 681 103 694 b 474 769 186 736 390 769 b 544 753 496 769 544 765 b 294 447 544 740 353 518 b 14 40 222 360 14 110 b 78 -39 14 -10 49 -39 b 501 33 100 -39 340 33 b 583 29 532 33 568 29 b 618 42 599 29 618 31 b 450 78 618 53 590 78 b 117 43 326 78 128 43 b 83 61 92 43 83 51 b 329 399 83 92 200 258 b 617 689 460 542 576 665 b 664 739 647 707 664 715 b 636 797 664 753 660 771 b 546 833 613 824 583 833 z m 422 1019 b 400 1018 418 1031 407 1031 b 268 875 378 979 324 914 b 278 856 253 864 264 849 b 408 942 326 881 382 918 b 422 1019 428 961 432 993 z "},"Ż":{"ha":656,"x_min":0,"x_max":0,"o":"m 546 833 b 135 756 497 833 250 790 b 76 719 93 743 76 732 b 97 681 76 696 92 681 b 119 703 103 681 103 694 b 474 769 186 736 390 769 b 544 753 496 769 544 765 b 294 447 544 740 353 518 b 14 40 222 360 14 110 b 78 -39 14 -10 49 -39 b 501 33 100 -39 340 33 b 583 29 532 33 568 29 b 618 42 599 29 618 31 b 450 78 618 53 590 78 b 117 43 326 78 128 43 b 83 61 92 43 83 51 b 329 399 83 92 200 258 b 617 689 460 542 576 665 b 664 739 647 707 664 715 b 636 797 664 753 660 771 b 546 833 613 824 583 833 z m 340 963 b 311 928 321 963 311 940 b 350 890 311 904 335 890 b 382 918 364 890 382 903 b 340 963 382 935 364 963 z "},"Ž":{"ha":656,"x_min":0,"x_max":0,"o":"m 546 833 b 135 756 497 833 250 790 b 76 719 93 743 76 732 b 97 681 76 696 92 681 b 119 703 103 681 103 694 b 474 769 186 736 390 769 b 544 753 496 769 544 765 b 294 447 544 740 353 518 b 14 40 222 360 14 110 b 78 -39 14 -10 49 -39 b 501 33 100 -39 340 33 b 583 29 532 33 568 29 b 618 42 599 29 618 31 b 450 78 618 53 590 78 b 117 43 326 78 128 43 b 83 61 92 43 83 51 b 329 399 83 92 200 258 b 617 689 460 542 576 665 b 664 739 647 707 664 715 b 636 797 664 753 660 771 b 546 833 613 824 583 833 z m 440 979 b 422 990 449 994 432 1006 b 363 921 399 953 374 921 b 244 988 344 921 279 960 b 225 975 231 999 217 989 b 333 872 246 940 294 892 b 368 876 344 867 357 865 b 440 979 388 896 421 944 z "},"Þ":{"ha":814,"x_min":0,"x_max":0,"o":"m 514 739 b 249 703 435 739 336 724 b 264 856 257 769 264 819 b 235 889 264 885 261 889 b 176 868 213 889 176 885 b 171 683 176 861 174 783 b 17 617 82 658 17 631 b 24 561 17 582 17 561 b 56 583 31 561 31 571 b 168 626 83 597 122 613 b 157 213 163 456 157 250 l 157 204 l 154 204 b 124 179 136 200 124 192 b 146 161 124 167 129 161 l 157 161 b 239 -35 158 -8 171 -35 b 257 -29 247 -35 257 -35 b 242 -17 257 -24 247 -22 b 214 169 218 7 214 44 b 782 565 382 203 782 321 b 514 739 782 635 710 739 z m 242 647 b 560 699 350 676 474 699 b 710 594 656 699 710 661 b 214 218 710 367 417 268 b 242 647 215 401 229 542 z "},"ß":{"ha":303,"x_min":0,"x_max":0,"o":"m 53 611 b 31 597 40 611 31 603 b 38 568 31 588 38 588 b 21 254 38 549 35 388 b -21 -287 15 196 -21 -104 b 6 -436 -21 -396 -11 -432 b 36 -443 15 -439 31 -443 b 36 -415 42 -443 42 -435 b 22 -282 31 -396 22 -336 b 43 47 22 -189 31 -72 b 121 -40 50 7 76 -40 b 210 15 158 -40 188 -22 b 260 219 229 49 260 128 b 185 406 260 331 224 385 b 271 679 235 463 271 574 b 249 807 271 722 264 793 b 183 835 238 818 207 835 b 69 467 143 835 99 658 b 74 554 72 511 74 547 b 53 611 74 590 65 611 z m 146 692 b 200 807 165 765 183 807 b 229 678 226 807 229 729 b 156 415 229 632 215 479 b 93 382 121 419 93 403 b 119 365 93 371 104 364 b 158 381 132 367 146 371 b 215 219 203 356 217 279 b 117 -10 214 110 168 -10 b 72 50 93 -10 72 25 b 81 79 72 67 81 69 b 56 103 81 89 69 103 b 49 101 53 103 50 101 b 146 692 76 346 119 596 z "},"à":{"ha":315,"x_min":0,"x_max":0,"o":"m 190 406 b 107 471 179 429 156 471 b 63 433 89 471 74 456 b -1 126 28 367 -1 231 b 75 -32 -1 -1 32 -32 b 133 13 101 -32 118 -21 b 167 118 147 42 158 79 b 240 -4 174 29 207 -4 b 371 340 318 -4 371 260 b 358 358 371 351 367 358 b 346 340 350 358 346 351 b 238 31 346 250 293 31 b 197 149 211 31 197 72 b 221 326 197 190 214 303 b 236 371 228 350 236 364 b 199 392 236 378 208 392 l 196 392 b 190 406 194 396 192 400 z m 108 42 b 71 -1 96 17 83 -1 b 40 108 53 -1 40 28 b 132 425 40 185 81 425 b 163 374 150 425 158 397 b 178 350 164 360 165 351 b 108 42 169 236 149 119 z m 81 624 b 221 519 99 586 165 539 b 235 536 240 513 250 528 b 108 683 183 565 136 628 b 81 624 97 706 58 664 z "},"á":{"ha":315,"x_min":0,"x_max":0,"o":"m 190 406 b 107 471 179 429 156 471 b 63 433 89 471 74 456 b -1 126 28 367 -1 231 b 75 -32 -1 -1 32 -32 b 133 13 101 -32 118 -21 b 167 118 147 42 158 79 b 240 -4 174 29 207 -4 b 371 340 318 -4 371 260 b 358 358 371 351 367 358 b 346 340 350 358 346 351 b 238 31 346 250 293 31 b 197 149 211 31 197 72 b 221 326 197 190 214 303 b 236 371 228 350 236 364 b 199 392 236 378 208 392 l 196 392 b 190 406 194 396 192 400 z m 108 42 b 71 -1 96 17 83 -1 b 40 108 53 -1 40 28 b 132 425 40 185 81 425 b 163 374 150 425 158 397 b 178 350 164 360 165 351 b 108 42 169 236 149 119 z m 233 682 b 211 681 229 693 218 693 b 79 538 189 642 135 576 b 89 518 64 526 75 511 b 219 604 138 543 193 581 b 233 682 239 624 243 656 z "},"â":{"ha":315,"x_min":0,"x_max":0,"o":"m 190 406 b 107 471 179 429 156 471 b 63 433 89 471 74 456 b -1 126 28 367 -1 231 b 75 -32 -1 -1 32 -32 b 133 13 101 -32 118 -21 b 167 118 147 42 158 79 b 240 -4 174 29 207 -4 b 371 340 318 -4 371 260 b 358 358 371 351 367 358 b 346 340 350 358 346 351 b 238 31 346 250 293 31 b 197 149 211 31 197 72 b 221 326 197 190 214 303 b 236 371 228 350 236 364 b 199 392 236 378 208 392 l 196 392 b 190 406 194 396 192 400 z m 108 42 b 71 -1 96 17 83 -1 b 40 108 53 -1 40 28 b 132 425 40 185 81 425 b 163 374 150 425 158 397 b 178 350 164 360 165 351 b 108 42 169 236 149 119 z m 72 539 b 90 525 63 525 81 511 b 140 596 115 556 124 568 b 240 528 168 574 182 561 b 253 544 254 521 264 536 b 167 650 214 574 188 613 b 121 636 158 665 124 651 b 72 539 117 614 100 572 z "},"ã":{"ha":315,"x_min":0,"x_max":0,"o":"m 190 406 b 107 471 179 429 156 471 b 63 433 89 471 74 456 b -1 126 28 367 -1 231 b 75 -32 -1 -1 32 -32 b 133 13 101 -32 118 -21 b 167 118 147 42 158 79 b 240 -4 174 29 207 -4 b 371 340 318 -4 371 260 b 358 358 371 351 367 358 b 346 340 350 358 346 351 b 238 31 346 250 293 31 b 197 149 211 31 197 72 b 221 326 197 190 214 303 b 236 371 228 350 236 364 b 199 392 236 378 208 392 l 196 392 b 190 406 194 396 192 400 z m 108 42 b 71 -1 96 17 83 -1 b 40 108 53 -1 40 28 b 132 425 40 185 81 425 b 163 374 150 425 158 397 b 178 350 164 360 165 351 b 108 42 169 236 149 119 z m 46 543 b 65 531 38 526 56 513 b 88 563 72 543 76 551 b 253 567 122 599 186 507 b 282 604 265 578 275 590 b 265 615 289 619 274 628 b 251 600 260 608 258 606 b 93 604 204 563 139 640 b 46 543 74 589 57 565 z "},"ä":{"ha":315,"x_min":0,"x_max":0,"o":"m 190 406 b 107 471 179 429 156 471 b 63 433 89 471 74 456 b -1 126 28 367 -1 231 b 75 -32 -1 -1 32 -32 b 133 13 101 -32 118 -21 b 167 118 147 42 158 79 b 240 -4 174 29 207 -4 b 371 340 318 -4 371 260 b 358 358 371 351 367 358 b 346 340 350 358 346 351 b 238 31 346 250 293 31 b 197 149 211 31 197 72 b 221 326 197 190 214 303 b 236 371 228 350 236 364 b 199 392 236 378 208 392 l 196 392 b 190 406 194 396 192 400 z m 108 42 b 71 -1 96 17 83 -1 b 40 108 53 -1 40 28 b 132 425 40 185 81 425 b 163 374 150 425 158 397 b 178 350 164 360 165 351 b 108 42 169 236 149 119 z m 99 613 b 63 578 79 613 63 590 b 108 540 63 554 93 540 b 133 568 122 540 133 553 b 99 613 133 585 122 613 z m 210 626 b 181 592 190 626 181 604 b 219 554 181 568 204 554 b 251 582 233 554 251 567 b 210 626 251 599 233 626 z "},"å":{"ha":315,"x_min":0,"x_max":0,"o":"m 190 406 b 107 471 179 429 156 471 b 63 433 89 471 74 456 b -1 126 28 367 -1 231 b 75 -32 -1 -1 32 -32 b 133 13 101 -32 118 -21 b 167 118 147 42 158 79 b 240 -4 174 29 207 -4 b 371 340 318 -4 371 260 b 358 358 371 351 367 358 b 346 340 350 358 346 351 b 238 31 346 250 293 31 b 197 149 211 31 197 72 b 221 326 197 190 214 303 b 236 371 228 350 236 364 b 199 392 236 378 208 392 l 196 392 b 190 406 194 396 192 400 z m 108 42 b 71 -1 96 17 83 -1 b 40 108 53 -1 40 28 b 132 425 40 185 81 425 b 163 374 150 425 158 397 b 178 350 164 360 165 351 b 108 42 169 236 149 119 z m 135 690 b 76 590 110 690 76 633 b 160 508 76 532 106 508 b 238 617 210 508 238 571 b 164 688 238 658 214 688 b 135 690 150 688 147 690 z m 163 665 b 208 607 197 665 208 629 b 154 528 208 560 182 528 b 111 578 129 528 111 547 b 163 665 111 603 126 665 z "},"ā":{"ha":315,"x_min":0,"x_max":0,"o":"m 190 406 b 107 471 179 429 156 471 b 63 433 89 471 74 456 b -1 126 28 367 -1 231 b 75 -32 -1 -1 32 -32 b 133 13 101 -32 118 -21 b 167 118 147 42 158 79 b 240 -4 174 29 207 -4 b 371 340 318 -4 371 260 b 358 358 371 351 367 358 b 346 340 350 358 346 351 b 238 31 346 250 293 31 b 197 149 211 31 197 72 b 221 326 197 190 214 303 b 236 371 228 350 236 364 b 199 392 236 378 208 392 l 196 392 b 190 406 194 396 192 400 z m 108 42 b 71 -1 96 17 83 -1 b 40 108 53 -1 40 28 b 132 425 40 185 81 425 b 163 374 150 425 158 397 b 178 350 164 360 165 351 b 108 42 169 236 149 119 z m 49 557 b 58 544 49 549 51 542 b 103 554 71 550 86 553 b 231 568 143 557 206 556 b 258 606 250 578 258 590 b 247 614 258 611 256 617 b 200 603 239 611 225 607 b 86 589 157 596 122 599 b 49 557 61 582 49 574 z "},"ă":{"ha":315,"x_min":0,"x_max":0,"o":"m 190 406 b 107 471 179 429 156 471 b 63 433 89 471 74 456 b -1 126 28 367 -1 231 b 75 -32 -1 -1 32 -32 b 133 13 101 -32 118 -21 b 167 118 147 42 158 79 b 240 -4 174 29 207 -4 b 371 340 318 -4 371 260 b 358 358 371 351 367 358 b 346 340 350 358 346 351 b 238 31 346 250 293 31 b 197 149 211 31 197 72 b 221 326 197 190 214 303 b 236 371 228 350 236 364 b 199 392 236 378 208 392 l 196 392 b 190 406 194 396 192 400 z m 108 42 b 71 -1 96 17 83 -1 b 40 108 53 -1 40 28 b 132 425 40 185 81 425 b 163 374 150 425 158 397 b 178 350 164 360 165 351 b 108 42 169 236 149 119 z m 275 585 b 261 599 283 594 274 611 b 168 553 229 567 199 553 b 85 590 132 553 108 571 b 51 582 76 597 63 593 b 49 556 39 569 43 561 b 157 518 67 538 108 518 b 275 585 201 518 239 543 z "},"ą":{"ha":315,"x_min":0,"x_max":0,"o":"m 190 -124 b 265 -210 190 -174 222 -210 b 364 -125 311 -210 346 -162 b 346 -114 371 -110 357 -99 b 271 -164 325 -143 300 -164 b 224 -107 244 -164 224 -143 b 268 7 224 -69 240 -32 b 371 340 331 60 371 269 b 358 358 371 351 367 358 b 346 340 350 358 346 351 b 238 31 346 250 293 31 b 197 149 211 31 197 72 b 221 326 197 190 214 303 b 236 371 228 350 236 364 b 199 392 236 378 208 392 l 196 392 b 190 406 194 396 192 400 b 107 471 179 429 156 471 b 63 433 89 471 74 456 b -1 126 28 367 -1 231 b 75 -32 -1 -1 32 -32 b 133 13 101 -32 118 -21 b 167 118 147 42 158 79 b 232 -3 172 36 201 1 b 190 -124 208 -40 190 -83 z m 108 42 b 71 -1 96 17 83 -1 b 40 108 53 -1 40 28 b 132 425 40 185 81 425 b 163 374 150 425 158 397 b 178 350 164 360 165 351 b 108 42 169 236 149 119 z "},"æ":{"ha":396,"x_min":0,"x_max":0,"o":"m 258 463 b 214 431 238 463 225 456 b 186 339 206 414 196 379 b 182 340 185 340 183 340 b 163 317 172 340 164 340 b 108 42 156 197 151 124 b 71 -1 96 17 83 -1 b 40 108 53 -1 40 28 b 132 425 40 185 81 425 b 154 385 150 425 150 408 b 176 413 163 338 185 374 b 107 471 171 438 156 471 b 63 433 89 471 74 456 b -1 126 28 367 -1 231 b 75 -32 -1 -1 32 -32 b 133 13 101 -32 118 -21 b 168 124 147 43 160 83 l 168 118 b 286 -36 178 33 210 -36 b 379 36 322 -36 354 -10 b 451 340 415 103 451 265 b 439 358 451 351 447 358 b 426 340 431 358 426 351 b 288 -4 426 231 364 -4 b 215 140 263 -4 222 0 b 332 396 263 111 332 283 b 314 442 332 417 326 431 b 258 463 299 454 275 463 z m 281 428 b 296 382 290 428 296 417 b 233 175 296 307 260 175 b 215 192 225 175 219 181 b 281 428 218 306 257 428 z "},"ǽ":{"ha":396,"x_min":0,"x_max":0,"o":"m 258 463 b 214 431 238 463 225 456 b 186 339 206 414 196 379 b 182 340 185 340 183 340 b 163 317 172 340 164 340 b 108 42 156 197 151 124 b 71 -1 96 17 83 -1 b 40 108 53 -1 40 28 b 132 425 40 185 81 425 b 154 385 150 425 150 408 b 176 413 163 338 185 374 b 107 471 171 438 156 471 b 63 433 89 471 74 456 b -1 126 28 367 -1 231 b 75 -32 -1 -1 32 -32 b 133 13 101 -32 118 -21 b 168 124 147 43 160 83 l 168 118 b 286 -36 178 33 210 -36 b 379 36 322 -36 354 -10 b 451 340 415 103 451 265 b 439 358 451 351 447 358 b 426 340 431 358 426 351 b 288 -4 426 231 364 -4 b 215 140 263 -4 222 0 b 332 396 263 111 332 283 b 314 442 332 417 326 431 b 258 463 299 454 275 463 z m 281 428 b 296 382 290 428 296 417 b 233 175 296 307 260 175 b 215 192 225 175 219 181 b 281 428 218 306 257 428 z m 281 682 b 258 681 276 693 265 693 b 126 538 236 642 182 576 b 136 518 111 526 122 511 b 267 604 185 543 240 581 b 281 682 286 624 290 656 z "},"ç":{"ha":204,"x_min":0,"x_max":0,"o":"m 108 467 b 1 178 57 467 1 292 b 115 -22 1 25 53 -22 b 260 340 199 -22 260 239 b 247 358 260 351 256 358 b 235 339 239 358 235 351 b 103 15 235 239 178 15 b 47 144 69 15 47 58 b 100 381 47 232 81 381 b 147 358 110 381 128 358 b 169 385 158 358 169 365 b 108 467 169 400 139 467 z m 122 -171 b 53 -265 122 -212 99 -237 b 63 -285 39 -274 47 -292 b 161 -150 107 -267 161 -221 b 94 -58 161 -99 126 -67 b 47 -100 72 -53 25 -97 b 122 -171 89 -106 122 -132 z "},"ć":{"ha":204,"x_min":0,"x_max":0,"o":"m 108 467 b 1 178 57 467 1 292 b 115 -22 1 25 53 -22 b 260 340 199 -22 260 239 b 247 358 260 351 256 358 b 235 339 239 358 235 351 b 103 15 235 239 178 15 b 47 144 69 15 47 58 b 100 381 47 232 81 381 b 147 358 110 381 128 358 b 169 385 158 358 169 365 b 108 467 169 400 139 467 z m 192 682 b 169 681 188 693 176 693 b 38 538 147 642 93 576 b 47 518 22 526 33 511 b 178 604 96 543 151 581 b 192 682 197 624 201 656 z "},"ĉ":{"ha":204,"x_min":0,"x_max":0,"o":"m 108 467 b 1 178 57 467 1 292 b 115 -22 1 25 53 -22 b 260 340 199 -22 260 239 b 247 358 260 351 256 358 b 235 339 239 358 235 351 b 103 15 235 239 178 15 b 47 144 69 15 47 58 b 100 381 47 232 81 381 b 147 358 110 381 128 358 b 169 385 158 358 169 365 b 108 467 169 400 139 467 z m 10 539 b 28 525 0 525 18 511 b 78 596 53 556 61 568 b 178 528 106 574 119 561 b 190 544 192 521 201 536 b 104 650 151 574 125 613 b 58 636 96 665 61 651 b 10 539 54 614 38 572 z "},"ċ":{"ha":204,"x_min":0,"x_max":0,"o":"m 108 467 b 1 178 57 467 1 292 b 115 -22 1 25 53 -22 b 260 340 199 -22 260 239 b 247 358 260 351 256 358 b 235 339 239 358 235 351 b 103 15 235 239 178 15 b 47 144 69 15 47 58 b 100 381 47 232 81 381 b 147 358 110 381 128 358 b 169 385 158 358 169 365 b 108 467 169 400 139 467 z m 96 626 b 67 592 76 626 67 604 b 106 554 67 568 90 554 b 138 582 119 554 138 567 b 96 626 138 599 119 626 z "},"č":{"ha":204,"x_min":0,"x_max":0,"o":"m 108 467 b 1 178 57 467 1 292 b 115 -22 1 25 53 -22 b 260 340 199 -22 260 239 b 247 358 260 351 256 358 b 235 339 239 358 235 351 b 103 15 235 239 178 15 b 47 144 69 15 47 58 b 100 381 47 232 81 381 b 147 358 110 381 128 358 b 169 385 158 358 169 365 b 108 467 169 400 139 467 z m 201 644 b 183 656 210 660 193 671 b 124 586 160 618 135 586 b 6 653 106 586 40 625 b -14 640 -8 664 -22 654 b 94 538 7 606 56 557 b 129 542 106 532 118 531 b 201 644 149 561 182 610 z "},"ď":{"ha":314,"x_min":0,"x_max":0,"o":"m 272 885 b 246 863 257 885 246 876 b 232 717 246 849 239 779 b 194 443 228 681 199 497 b 121 497 178 475 149 497 b 25 333 92 497 57 428 b -12 115 0 257 -12 181 b 67 -29 -12 17 21 -29 b 171 126 113 -29 143 35 l 171 106 b 235 -19 171 39 203 -19 b 376 340 310 -19 376 233 b 364 358 376 351 372 358 b 351 340 356 358 351 351 b 235 24 351 233 286 24 b 207 108 219 24 207 51 b 224 315 207 154 214 251 b 290 765 232 367 261 631 b 307 865 296 793 307 843 b 272 885 307 881 296 885 z m 164 204 b 65 3 131 86 93 3 b 32 104 43 3 32 58 b 149 438 32 232 92 438 b 193 403 161 438 181 426 b 164 204 189 338 182 267 z m 382 940 b 360 889 369 940 368 918 b 307 742 353 864 314 757 b 311 710 300 726 300 718 b 340 722 322 701 332 708 b 411 900 358 754 411 860 b 382 940 411 917 392 940 z "},"đ":{"ha":321,"x_min":0,"x_max":0,"o":"m 76 649 b 86 636 76 640 82 636 b 136 644 90 636 103 644 b 222 646 151 644 185 644 b 194 443 211 576 197 479 b 121 497 178 475 149 497 b 25 333 92 497 57 428 b -12 115 0 257 -12 181 b 67 -29 -12 17 21 -29 b 171 126 113 -29 143 35 l 171 106 b 235 -19 171 39 203 -19 b 376 340 310 -19 376 233 b 364 358 376 351 372 358 b 351 340 356 358 351 351 b 235 24 351 233 286 24 b 207 108 219 24 207 51 b 224 315 207 154 214 251 b 269 647 229 354 249 514 b 335 658 296 650 319 653 b 365 690 351 664 365 675 b 358 697 365 696 363 697 b 286 689 354 697 325 692 b 275 688 283 689 279 688 b 290 765 281 717 285 742 b 307 865 296 793 307 843 b 272 885 307 881 296 885 b 246 863 257 885 246 876 b 232 717 246 849 239 779 l 228 686 b 125 681 183 683 133 682 b 76 649 99 676 76 665 z m 164 204 b 65 3 131 86 93 3 b 32 104 43 3 32 58 b 149 438 32 232 92 438 b 193 403 161 438 181 426 b 164 204 189 338 182 267 z "},"ð":{"ha":294,"x_min":0,"x_max":0,"o":"m 50 608 b 64 603 54 601 61 601 b 94 636 67 606 71 619 b 132 665 101 642 115 651 b 181 422 153 590 171 506 b 107 471 168 444 144 471 b 63 433 89 471 74 456 b 13 196 28 367 13 300 b 121 -24 13 38 63 -24 b 232 251 192 -24 232 126 b 168 694 232 378 207 550 b 226 751 193 714 217 736 b 228 793 235 765 238 781 b 219 796 225 797 222 797 b 174 751 217 793 200 774 l 157 736 b 122 836 146 772 135 806 b 101 882 114 860 106 876 b 67 875 97 888 74 882 b 65 844 58 869 53 867 b 121 707 85 810 104 761 b 65 660 94 685 69 665 b 50 608 49 642 39 621 z m 193 251 b 115 25 193 86 142 25 b 60 163 92 25 60 71 b 132 425 60 239 81 425 b 163 374 150 425 158 397 b 185 350 165 358 167 350 l 188 350 b 193 251 190 315 193 282 z "},"è":{"ha":238,"x_min":0,"x_max":0,"o":"m 100 463 b 56 431 79 463 67 456 b 7 183 39 393 7 265 b 128 -36 7 72 33 -36 b 221 36 164 -36 196 -10 b 293 340 257 103 293 265 b 281 358 293 351 289 358 b 268 340 272 358 268 351 b 129 -4 268 231 206 -4 b 63 81 108 -4 76 -1 b 174 396 104 142 174 292 b 156 442 174 417 168 431 b 100 463 140 454 117 463 z m 57 179 b 122 428 57 296 99 428 b 138 382 132 428 138 417 b 58 126 138 290 94 179 b 57 179 57 142 57 160 z m 21 624 b 161 519 39 586 106 539 b 175 536 181 513 190 528 b 49 683 124 565 76 628 b 21 624 38 706 -1 664 z "},"é":{"ha":238,"x_min":0,"x_max":0,"o":"m 100 463 b 56 431 79 463 67 456 b 7 183 39 393 7 265 b 128 -36 7 72 33 -36 b 221 36 164 -36 196 -10 b 293 340 257 103 293 265 b 281 358 293 351 289 358 b 268 340 272 358 268 351 b 129 -4 268 231 206 -4 b 63 81 108 -4 76 -1 b 174 396 104 142 174 292 b 156 442 174 417 168 431 b 100 463 140 454 117 463 z m 57 179 b 122 428 57 296 99 428 b 138 382 132 428 138 417 b 58 126 138 290 94 179 b 57 179 57 142 57 160 z m 194 682 b 172 681 190 693 179 693 b 40 538 150 642 96 576 b 50 518 25 526 36 511 b 181 604 99 543 154 581 b 194 682 200 624 204 656 z "},"ê":{"ha":238,"x_min":0,"x_max":0,"o":"m 100 463 b 56 431 79 463 67 456 b 7 183 39 393 7 265 b 128 -36 7 72 33 -36 b 221 36 164 -36 196 -10 b 293 340 257 103 293 265 b 281 358 293 351 289 358 b 268 340 272 358 268 351 b 129 -4 268 231 206 -4 b 63 81 108 -4 76 -1 b 174 396 104 142 174 292 b 156 442 174 417 168 431 b 100 463 140 454 117 463 z m 57 179 b 122 428 57 296 99 428 b 138 382 132 428 138 417 b 58 126 138 290 94 179 b 57 179 57 142 57 160 z m 19 539 b 38 525 10 525 28 511 b 88 596 63 556 71 568 b 188 528 115 574 129 561 b 200 544 201 521 211 536 b 114 650 161 574 135 613 b 68 636 106 665 71 651 b 19 539 64 614 47 572 z "},"ë":{"ha":238,"x_min":0,"x_max":0,"o":"m 100 463 b 56 431 79 463 67 456 b 7 183 39 393 7 265 b 128 -36 7 72 33 -36 b 221 36 164 -36 196 -10 b 293 340 257 103 293 265 b 281 358 293 351 289 358 b 268 340 272 358 268 351 b 129 -4 268 231 206 -4 b 63 81 108 -4 76 -1 b 174 396 104 142 174 292 b 156 442 174 417 168 431 b 100 463 140 454 117 463 z m 57 179 b 122 428 57 296 99 428 b 138 382 132 428 138 417 b 58 126 138 290 94 179 b 57 179 57 142 57 160 z m 53 613 b 17 578 33 613 17 590 b 63 540 17 554 47 540 b 88 568 76 540 88 553 b 53 613 88 585 76 613 z m 164 626 b 135 592 144 626 135 604 b 174 554 135 568 158 554 b 206 582 188 554 206 567 b 164 626 206 599 188 626 z "},"ē":{"ha":238,"x_min":0,"x_max":0,"o":"m 100 463 b 56 431 79 463 67 456 b 7 183 39 393 7 265 b 128 -36 7 72 33 -36 b 221 36 164 -36 196 -10 b 293 340 257 103 293 265 b 281 358 293 351 289 358 b 268 340 272 358 268 351 b 129 -4 268 231 206 -4 b 63 81 108 -4 76 -1 b 174 396 104 142 174 292 b 156 442 174 417 168 431 b 100 463 140 454 117 463 z m 57 179 b 122 428 57 296 99 428 b 138 382 132 428 138 417 b 58 126 138 290 94 179 b 57 179 57 142 57 160 z m 17 557 b 26 544 17 549 19 542 b 71 554 39 550 54 553 b 199 568 111 557 174 556 b 226 606 218 578 226 590 b 215 614 226 611 224 617 b 168 603 207 611 193 607 b 54 589 125 596 90 599 b 17 557 29 582 17 574 z "},"ĕ":{"ha":238,"x_min":0,"x_max":0,"o":"m 100 463 b 56 431 79 463 67 456 b 7 183 39 393 7 265 b 128 -36 7 72 33 -36 b 221 36 164 -36 196 -10 b 293 340 257 103 293 265 b 281 358 293 351 289 358 b 268 340 272 358 268 351 b 129 -4 268 231 206 -4 b 63 81 108 -4 76 -1 b 174 396 104 142 174 292 b 156 442 174 417 168 431 b 100 463 140 454 117 463 z m 57 179 b 122 428 57 296 99 428 b 138 382 132 428 138 417 b 58 126 138 290 94 179 b 57 179 57 142 57 160 z m 231 585 b 217 599 239 594 229 611 b 124 553 185 567 154 553 b 40 590 88 553 64 571 b 7 582 32 597 18 593 b 4 556 -6 569 -1 561 b 113 518 22 538 64 518 b 231 585 157 518 194 543 z "},"ė":{"ha":238,"x_min":0,"x_max":0,"o":"m 100 463 b 56 431 79 463 67 456 b 7 183 39 393 7 265 b 128 -36 7 72 33 -36 b 221 36 164 -36 196 -10 b 293 340 257 103 293 265 b 281 358 293 351 289 358 b 268 340 272 358 268 351 b 129 -4 268 231 206 -4 b 63 81 108 -4 76 -1 b 174 396 104 142 174 292 b 156 442 174 417 168 431 b 100 463 140 454 117 463 z m 57 179 b 122 428 57 296 99 428 b 138 382 132 428 138 417 b 58 126 138 290 94 179 b 57 179 57 142 57 160 z m 113 626 b 83 592 93 626 83 604 b 122 554 83 568 107 554 b 154 582 136 554 154 567 b 113 626 154 599 136 626 z "},"ę":{"ha":238,"x_min":0,"x_max":0,"o":"m 101 -146 b 176 -232 101 -196 133 -232 b 275 -147 222 -232 257 -185 b 257 -136 282 -132 268 -121 b 182 -186 236 -165 211 -186 b 135 -129 156 -186 135 -165 b 176 -18 135 -93 150 -57 b 221 36 193 -6 207 13 b 293 340 257 103 293 265 b 281 358 293 351 289 358 b 268 340 272 358 268 351 b 129 -4 268 231 206 -4 b 63 81 108 -4 76 -1 b 174 396 104 142 174 292 b 156 442 174 417 168 431 b 100 463 140 454 117 463 b 56 431 79 463 67 456 b 7 183 39 393 7 265 b 128 -36 7 72 33 -36 b 138 -35 131 -36 135 -36 b 101 -146 117 -71 101 -108 z m 57 179 b 122 428 57 296 99 428 b 138 382 132 428 138 417 b 58 126 138 290 94 179 b 57 179 57 142 57 160 z "},"ě":{"ha":238,"x_min":0,"x_max":0,"o":"m 100 463 b 56 431 79 463 67 456 b 7 183 39 393 7 265 b 128 -36 7 72 33 -36 b 221 36 164 -36 196 -10 b 293 340 257 103 293 265 b 281 358 293 351 289 358 b 268 340 272 358 268 351 b 129 -4 268 231 206 -4 b 63 81 108 -4 76 -1 b 174 396 104 142 174 292 b 156 442 174 417 168 431 b 100 463 140 454 117 463 z m 57 179 b 122 428 57 296 99 428 b 138 382 132 428 138 417 b 58 126 138 290 94 179 b 57 179 57 142 57 160 z m 211 644 b 193 656 219 660 203 671 b 133 586 169 618 144 586 b 15 653 115 586 50 625 b -4 640 1 664 -12 654 b 104 538 17 606 65 557 b 139 542 115 532 128 531 b 211 644 158 561 192 610 z "},"ĝ":{"ha":315,"x_min":0,"x_max":0,"o":"m 101 488 b -12 113 53 488 -12 214 b 69 -44 -12 -17 32 -44 b 158 72 113 -44 143 19 l 158 46 b 169 -110 158 26 164 -40 b -3 -158 114 -119 54 -135 b -189 -332 -108 -200 -189 -251 b 47 -532 -189 -468 -51 -532 b 213 -239 174 -532 213 -407 b 208 -132 213 -203 210 -167 b 285 -126 238 -128 263 -126 b 385 -139 351 -126 367 -139 b 403 -121 399 -139 403 -136 b 313 -96 403 -106 374 -96 b 206 -103 281 -96 244 -97 b 196 46 201 -43 196 11 b 244 333 196 161 218 269 b 258 363 251 350 258 357 b 221 388 258 368 243 388 b 165 447 197 406 186 421 b 101 488 144 474 125 488 z m 181 -265 b 26 -490 181 -383 139 -490 b -150 -346 -74 -490 -150 -424 b 172 -137 -150 -233 31 -164 b 181 -265 176 -193 181 -244 z m 65 -19 b 28 79 47 -19 28 35 b 125 431 28 157 85 431 b 189 364 139 431 175 394 b 65 -19 186 251 114 -19 z m 58 539 b 76 525 49 525 67 511 b 126 596 101 556 110 568 b 226 528 154 574 168 561 b 239 544 240 521 250 536 b 153 650 200 574 174 613 b 107 636 144 665 110 651 b 58 539 103 614 86 572 z "},"ğ":{"ha":315,"x_min":0,"x_max":0,"o":"m 101 488 b -12 113 53 488 -12 214 b 69 -44 -12 -17 32 -44 b 158 72 113 -44 143 19 l 158 46 b 169 -110 158 26 164 -40 b -3 -158 114 -119 54 -135 b -189 -332 -108 -200 -189 -251 b 47 -532 -189 -468 -51 -532 b 213 -239 174 -532 213 -407 b 208 -132 213 -203 210 -167 b 285 -126 238 -128 263 -126 b 385 -139 351 -126 367 -139 b 403 -121 399 -139 403 -136 b 313 -96 403 -106 374 -96 b 206 -103 281 -96 244 -97 b 196 46 201 -43 196 11 b 244 333 196 161 218 269 b 258 363 251 350 258 357 b 221 388 258 368 243 388 b 165 447 197 406 186 421 b 101 488 144 474 125 488 z m 181 -265 b 26 -490 181 -383 139 -490 b -150 -346 -74 -490 -150 -424 b 172 -137 -150 -233 31 -164 b 181 -265 176 -193 181 -244 z m 65 -19 b 28 79 47 -19 28 35 b 125 431 28 157 85 431 b 189 364 139 431 175 394 b 65 -19 186 251 114 -19 z m 275 585 b 261 599 283 594 274 611 b 168 553 229 567 199 553 b 85 590 132 553 108 571 b 51 582 76 597 63 593 b 49 556 39 569 43 561 b 157 518 67 538 108 518 b 275 585 201 518 239 543 z "},"ġ":{"ha":315,"x_min":0,"x_max":0,"o":"m 101 488 b -12 113 53 488 -12 214 b 69 -44 -12 -17 32 -44 b 158 72 113 -44 143 19 l 158 46 b 169 -110 158 26 164 -40 b -3 -158 114 -119 54 -135 b -189 -332 -108 -200 -189 -251 b 47 -532 -189 -468 -51 -532 b 213 -239 174 -532 213 -407 b 208 -132 213 -203 210 -167 b 285 -126 238 -128 263 -126 b 385 -139 351 -126 367 -139 b 403 -121 399 -139 403 -136 b 313 -96 403 -106 374 -96 b 206 -103 281 -96 244 -97 b 196 46 201 -43 196 11 b 244 333 196 161 218 269 b 258 363 251 350 258 357 b 221 388 258 368 243 388 b 165 447 197 406 186 421 b 101 488 144 474 125 488 z m 181 -265 b 26 -490 181 -383 139 -490 b -150 -346 -74 -490 -150 -424 b 172 -137 -150 -233 31 -164 b 181 -265 176 -193 181 -244 z m 65 -19 b 28 79 47 -19 28 35 b 125 431 28 157 85 431 b 189 364 139 431 175 394 b 65 -19 186 251 114 -19 z m 151 626 b 122 592 132 626 122 604 b 161 554 122 568 146 554 b 193 582 175 554 193 567 b 151 626 193 599 175 626 z "},"ģ":{"ha":315,"x_min":0,"x_max":0,"o":"m 101 488 b -12 113 53 488 -12 214 b 69 -44 -12 -17 32 -44 b 158 72 113 -44 143 19 l 158 46 b 169 -110 158 26 164 -40 b -3 -158 114 -119 54 -135 b -189 -332 -108 -200 -189 -251 b 47 -532 -189 -468 -51 -532 b 213 -239 174 -532 213 -407 b 208 -132 213 -203 210 -167 b 285 -126 238 -128 263 -126 b 385 -139 351 -126 367 -139 b 403 -121 399 -139 403 -136 b 313 -96 403 -106 374 -96 b 206 -103 281 -96 244 -97 b 196 46 201 -43 196 11 b 244 333 196 161 218 269 b 258 363 251 350 258 357 b 221 388 258 368 243 388 b 165 447 197 406 186 421 b 101 488 144 474 125 488 z m 181 -265 b 26 -490 181 -383 139 -490 b -150 -346 -74 -490 -150 -424 b 172 -137 -150 -233 31 -164 b 181 -265 176 -193 181 -244 z m 65 -19 b 28 79 47 -19 28 35 b 125 431 28 157 85 431 b 189 364 139 431 175 394 b 65 -19 186 251 114 -19 z m 175 542 b 196 583 185 540 188 560 b 244 710 204 606 239 694 b 239 738 249 721 250 735 b 217 726 231 742 224 736 b 147 578 200 700 147 613 b 175 542 147 565 167 542 z "},"ĥ":{"ha":353,"x_min":0,"x_max":0,"o":"m 103 868 b 81 851 90 868 81 861 b 68 690 81 842 72 726 b 32 363 64 654 39 425 b 21 169 25 299 21 222 b 72 -49 21 46 33 -49 b 107 28 97 -49 101 0 b 172 297 118 86 168 283 b 183 317 176 311 179 317 b 192 306 188 317 192 313 b 189 232 192 299 189 261 b 282 -22 189 79 208 -22 b 408 340 350 -22 408 257 b 396 358 408 351 404 358 b 383 340 388 358 383 351 b 275 28 383 250 329 28 b 226 167 249 28 226 75 b 257 394 226 242 253 376 b 267 439 261 413 267 429 b 204 482 267 463 224 482 b 185 464 193 482 190 478 b 96 106 171 426 100 118 b 79 64 89 86 88 64 b 63 172 72 64 63 79 b 83 440 63 263 79 401 b 129 774 88 479 117 707 b 147 847 138 817 147 828 b 103 868 147 858 125 868 z m 31 917 b 49 903 21 903 39 889 b 99 974 74 933 82 946 b 199 906 126 951 140 939 b 211 922 213 899 222 914 b 125 1028 172 951 146 990 b 79 1014 117 1043 82 1029 b 31 917 75 992 58 950 z "},"ħ":{"ha":353,"x_min":0,"x_max":0,"o":"m -47 619 b -33 607 -47 611 -43 604 b 28 617 -17 613 4 615 b 60 618 38 617 49 618 l 32 363 b 21 169 25 299 21 222 b 72 -49 21 46 33 -49 b 107 28 97 -49 101 0 b 172 297 118 86 168 283 b 183 317 176 311 179 317 b 192 306 188 317 192 313 b 189 232 192 299 189 261 b 282 -22 189 79 208 -22 b 408 340 350 -22 408 257 b 396 358 408 351 404 358 b 383 340 388 358 383 351 b 275 28 383 250 329 28 b 226 167 249 28 226 75 b 257 394 226 242 253 376 b 267 439 261 413 267 429 b 204 482 267 463 224 482 b 185 464 193 482 190 478 b 96 106 171 426 100 118 b 79 64 89 86 88 64 b 63 172 72 64 63 79 b 83 440 63 263 79 401 b 106 618 85 461 96 540 b 206 631 146 619 185 622 b 244 668 233 640 244 653 b 229 676 244 674 240 679 b 164 665 217 674 199 669 b 111 661 144 663 128 661 l 129 774 b 147 847 138 817 147 828 b 103 868 147 858 125 868 b 81 851 90 868 81 861 b 68 690 81 842 72 726 l 64 658 b 4 651 43 657 24 656 b -47 619 -31 644 -47 636 z "},"ì":{"ha":181,"x_min":0,"x_max":0,"o":"m 61 425 b 32 403 43 425 32 414 b 13 111 31 347 13 167 b 96 -26 13 4 42 -26 b 144 3 113 -26 129 -18 b 236 339 203 85 236 264 b 224 358 236 351 232 358 b 211 340 215 358 211 351 b 136 46 211 257 174 114 b 92 7 122 21 108 7 b 54 118 67 7 54 29 b 93 406 54 229 93 399 b 61 425 93 413 79 425 z m 0 624 b 140 519 18 586 85 539 b 154 536 160 513 169 528 b 28 683 103 565 56 628 b 0 624 17 706 -22 664 z "},"í":{"ha":181,"x_min":0,"x_max":0,"o":"m 61 425 b 32 403 43 425 32 414 b 13 111 31 347 13 167 b 96 -26 13 4 42 -26 b 144 3 113 -26 129 -18 b 236 339 203 85 236 264 b 224 358 236 351 232 358 b 211 340 215 358 211 351 b 136 46 211 257 174 114 b 92 7 122 21 108 7 b 54 118 67 7 54 29 b 93 406 54 229 93 399 b 61 425 93 413 79 425 z m 181 682 b 158 681 176 693 165 693 b 26 538 136 642 82 576 b 36 518 11 526 22 511 b 167 604 85 543 140 581 b 181 682 186 624 190 656 z "},"î":{"ha":181,"x_min":0,"x_max":0,"o":"m 61 425 b 32 403 43 425 32 414 b 13 111 31 347 13 167 b 96 -26 13 4 42 -26 b 144 3 113 -26 129 -18 b 236 339 203 85 236 264 b 224 358 236 351 232 358 b 211 340 215 358 211 351 b 136 46 211 257 174 114 b 92 7 122 21 108 7 b 54 118 67 7 54 29 b 93 406 54 229 93 399 b 61 425 93 413 79 425 z m 6 511 b 24 497 -4 497 14 483 b 74 568 49 528 57 540 b 174 500 101 546 115 533 b 186 517 188 493 197 508 b 100 622 147 546 121 585 b 54 608 92 638 57 624 b 6 511 50 586 33 544 z "},"ï":{"ha":181,"x_min":0,"x_max":0,"o":"m 61 425 b 32 403 43 425 32 414 b 13 111 31 347 13 167 b 96 -26 13 4 42 -26 b 144 3 113 -26 129 -18 b 236 339 203 85 236 264 b 224 358 236 351 232 358 b 211 340 215 358 211 351 b 136 46 211 257 174 114 b 92 7 122 21 108 7 b 54 118 67 7 54 29 b 93 406 54 229 93 399 b 61 425 93 413 79 425 z m 39 633 b 3 599 19 633 3 611 b 49 561 3 575 33 561 b 74 589 63 561 74 574 b 39 633 74 606 63 633 z m 150 647 b 121 613 131 647 121 625 b 160 575 121 589 144 575 b 192 603 174 575 192 588 b 150 647 192 619 174 647 z "},"ĩ":{"ha":181,"x_min":0,"x_max":0,"o":"m 61 425 b 32 403 43 425 32 414 b 13 111 31 347 13 167 b 96 -26 13 4 42 -26 b 144 3 113 -26 129 -18 b 236 339 203 85 236 264 b 224 358 236 351 232 358 b 211 340 215 358 211 351 b 136 46 211 257 174 114 b 92 7 122 21 108 7 b 54 118 67 7 54 29 b 93 406 54 229 93 399 b 61 425 93 413 79 425 z m -35 474 b -15 461 -43 457 -25 443 b 7 493 -8 474 -4 482 b 172 497 42 529 106 438 b 201 535 185 508 194 521 b 185 546 208 550 193 558 b 171 531 179 539 178 536 b 13 535 124 493 58 571 b -35 474 -7 519 -24 496 z "},"ī":{"ha":181,"x_min":0,"x_max":0,"o":"m 61 425 b 32 403 43 425 32 414 b 13 111 31 347 13 167 b 96 -26 13 4 42 -26 b 144 3 113 -26 129 -18 b 236 339 203 85 236 264 b 224 358 236 351 232 358 b 211 340 215 358 211 351 b 136 46 211 257 174 114 b 92 7 122 21 108 7 b 54 118 67 7 54 29 b 93 406 54 229 93 399 b 61 425 93 413 79 425 z m -32 488 b -22 475 -32 479 -29 472 b 22 485 -10 481 6 483 b 150 499 63 488 125 486 b 178 536 169 508 178 521 b 167 544 178 542 175 547 b 119 533 158 542 144 538 b 6 519 76 526 42 529 b -32 488 -19 513 -32 504 z "},"ĭ":{"ha":181,"x_min":0,"x_max":0,"o":"m 61 425 b 32 403 43 425 32 414 b 13 111 31 347 13 167 b 96 -26 13 4 42 -26 b 144 3 113 -26 129 -18 b 236 339 203 85 236 264 b 224 358 236 351 232 358 b 211 340 215 358 211 351 b 136 46 211 257 174 114 b 92 7 122 21 108 7 b 54 118 67 7 54 29 b 93 406 54 229 93 399 b 61 425 93 413 79 425 z m 201 543 b 188 557 210 553 200 569 b 94 511 156 525 125 511 b 11 549 58 511 35 529 b -22 540 3 556 -11 551 b -25 514 -35 528 -31 519 b 83 476 -7 496 35 476 b 201 543 128 476 165 501 z "},"į":{"ha":181,"x_min":0,"x_max":0,"o":"m 60 -135 b 135 -221 60 -185 92 -221 b 233 -136 181 -221 215 -174 b 215 -125 240 -121 226 -110 b 140 -175 194 -154 169 -175 b 93 -118 114 -175 93 -154 b 132 -11 93 -82 108 -49 l 144 3 b 236 339 203 85 236 264 b 224 358 236 351 232 358 b 211 340 215 358 211 351 b 136 46 211 257 174 114 b 92 7 122 21 108 7 b 54 118 67 7 54 29 b 93 406 54 229 93 399 b 61 425 93 413 79 425 b 32 403 43 425 32 414 b 13 111 31 347 13 167 b 94 -26 13 4 42 -26 b 60 -135 75 -61 60 -99 z m 90 747 b 44 703 67 747 44 718 b 103 656 44 674 83 656 b 133 690 119 656 133 672 b 90 747 133 711 119 747 z "},"ı":{"ha":181,"x_min":0,"x_max":0,"o":"m 61 425 b 32 403 43 425 32 414 b 13 111 31 347 13 167 b 96 -26 13 4 42 -26 b 144 3 113 -26 129 -18 b 236 339 203 85 236 264 b 224 358 236 351 232 358 b 211 340 215 358 211 351 b 136 46 211 257 174 114 b 92 7 122 21 108 7 b 54 118 67 7 54 29 b 93 406 54 229 93 399 b 61 425 93 413 79 425 z "},"ĳ":{"ha":346,"x_min":0,"x_max":0,"o":"m 242 426 b 211 403 219 426 214 421 b 203 257 210 394 206 329 b 136 46 189 181 163 94 b 92 7 122 21 108 7 b 54 118 67 7 54 29 b 93 406 54 229 93 399 b 61 425 93 413 79 425 b 32 403 43 425 32 414 b 13 111 31 347 13 167 b 96 -26 13 4 42 -26 b 144 3 113 -26 129 -18 b 197 119 165 32 183 74 b 196 54 196 89 196 67 b 201 -99 196 18 199 -40 b -154 -347 46 -136 -154 -239 b 74 -518 -154 -454 -18 -518 b 253 -311 186 -518 253 -453 b 240 -124 253 -258 246 -187 b 306 -117 265 -118 286 -117 b 404 -133 361 -117 390 -126 b 421 -108 426 -144 442 -122 b 307 -85 403 -96 372 -85 b 238 -92 286 -85 263 -87 b 235 -15 236 -62 235 -36 b 269 357 235 113 263 333 b 281 401 276 381 281 392 b 242 426 281 419 264 426 z m 213 -286 b 79 -489 213 -404 181 -489 b -115 -358 15 -489 -115 -446 b 204 -132 -115 -258 65 -167 b 213 -286 208 -203 213 -268 z m 90 747 b 44 703 67 747 44 718 b 103 656 44 674 83 656 b 133 690 119 656 133 672 b 90 747 133 711 119 747 z m 279 753 b 243 707 260 753 243 728 b 282 672 243 686 268 672 b 318 719 300 672 318 700 b 279 753 318 739 299 753 z "},"ĵ":{"ha":165,"x_min":0,"x_max":0,"o":"m 61 426 b 31 403 39 426 33 421 b 15 54 28 385 15 108 b 21 -99 15 18 18 -40 b -335 -347 -135 -136 -335 -239 b -107 -518 -335 -454 -199 -518 b 72 -311 6 -518 72 -453 b 60 -124 72 -258 65 -187 b 125 -117 85 -118 106 -117 b 214 -149 194 -117 208 -136 b 228 -162 219 -161 224 -162 b 242 -143 232 -162 242 -156 b 126 -85 242 -117 213 -85 b 57 -92 106 -85 82 -87 b 54 -15 56 -62 54 -36 b 89 357 54 113 82 333 b 100 401 96 381 100 392 b 61 426 100 419 83 426 z m 32 -286 b -101 -489 32 -404 0 -489 b -296 -358 -165 -489 -296 -446 b 24 -132 -296 -258 -115 -167 b 32 -286 28 -203 32 -268 z m 0 497 b 18 483 -10 483 8 469 b 68 554 43 514 51 526 b 168 486 96 532 110 519 b 181 503 182 479 192 494 b 94 608 142 532 115 571 b 49 594 86 624 51 610 b 0 497 44 572 28 531 z "},"ķ":{"ha":338,"x_min":0,"x_max":0,"o":"m 86 874 b 69 850 78 874 69 871 b 50 549 69 829 61 661 b 21 132 44 493 21 293 b 58 -25 21 -6 35 -25 b 75 -11 71 -25 75 -17 b 65 46 75 -6 65 1 b 71 118 65 68 67 93 b 140 172 92 131 115 150 b 251 -6 144 86 181 -6 b 321 47 278 -6 303 11 b 393 340 371 149 393 285 b 381 358 393 351 389 358 b 368 340 372 358 368 351 b 249 31 368 254 315 31 b 182 172 210 31 182 111 b 183 218 182 189 182 204 b 271 414 231 275 271 344 b 206 493 271 451 250 493 b 158 465 186 493 175 486 b 65 246 129 429 88 325 b 94 588 71 340 89 539 b 136 842 101 647 136 826 b 86 874 136 857 126 874 z m 214 458 b 233 424 224 458 233 443 b 78 160 233 329 149 197 b 214 458 107 304 178 458 z m 154 -107 b 133 -149 144 -106 142 -125 b 85 -275 125 -171 90 -260 b 90 -303 81 -286 79 -300 b 113 -292 99 -307 106 -301 b 182 -143 129 -265 182 -178 b 154 -107 182 -131 163 -107 z "},"ĸ":{"ha":338,"x_min":0,"x_max":0,"o":"m 49 468 b 32 444 40 468 32 465 b 21 132 32 350 21 213 b 58 -25 21 -6 35 -25 b 75 -11 71 -25 75 -17 b 65 46 75 -6 65 1 b 71 118 65 68 67 93 b 140 172 92 131 115 150 b 251 -6 144 86 181 -6 b 321 47 278 -6 303 11 b 393 340 371 149 393 285 b 381 358 393 351 389 358 b 368 340 372 358 368 351 b 249 31 368 254 315 31 b 182 172 210 31 182 111 b 183 218 182 189 182 204 b 271 414 231 275 271 344 b 206 493 271 451 250 493 b 158 465 186 493 175 486 b 64 244 129 429 88 324 b 86 436 71 310 86 376 b 49 468 86 451 76 468 z m 214 458 b 233 424 224 458 233 443 b 78 160 233 329 149 197 b 214 458 107 304 178 458 z "},"ĺ":{"ha":251,"x_min":0,"x_max":0,"o":"m 135 875 b 96 833 111 875 103 861 b 8 246 72 736 8 411 b 140 -47 8 50 76 -47 b 307 340 260 -47 307 267 b 294 358 307 351 303 358 b 282 340 286 358 282 351 b 144 -4 282 240 222 -4 b 69 96 118 -4 88 19 b 219 736 161 235 219 507 b 194 850 219 789 213 832 b 135 875 183 861 158 875 z m 56 249 b 163 821 56 494 138 821 b 182 718 171 821 182 769 b 61 143 182 494 126 275 b 56 249 58 172 56 207 z m 242 1072 b 219 1071 238 1083 226 1083 b 88 928 197 1032 143 967 b 97 908 72 917 83 901 b 228 994 146 933 201 971 b 242 1072 247 1014 251 1046 z "},"ļ":{"ha":251,"x_min":0,"x_max":0,"o":"m 135 875 b 96 833 111 875 103 861 b 8 246 72 736 8 411 b 140 -47 8 50 76 -47 b 307 340 260 -47 307 267 b 294 358 307 351 303 358 b 282 340 286 358 282 351 b 144 -4 282 240 222 -4 b 69 96 118 -4 88 19 b 219 736 161 235 219 507 b 194 850 219 789 213 832 b 135 875 183 861 158 875 z m 56 249 b 163 821 56 494 138 821 b 182 718 171 821 182 769 b 61 143 182 494 126 275 b 56 249 58 172 56 207 z m 75 -107 b 54 -149 65 -106 63 -125 b 6 -275 46 -171 11 -260 b 11 -303 1 -286 0 -300 b 33 -292 19 -307 26 -301 b 103 -143 50 -265 103 -178 b 75 -107 103 -131 83 -107 z "},"ľ":{"ha":265,"x_min":0,"x_max":0,"o":"m 135 875 b 96 833 111 875 103 861 b 8 246 72 736 8 411 b 147 -47 8 50 83 -47 b 321 340 267 -47 321 267 b 308 358 321 351 317 358 b 296 340 300 358 296 351 b 151 -4 296 240 229 -4 b 71 97 125 -4 90 21 b 219 736 161 236 219 507 b 194 850 219 789 213 832 b 135 875 183 861 158 875 z m 56 249 b 163 821 56 494 138 821 b 182 718 171 821 182 769 b 61 143 182 494 126 275 b 56 249 57 172 56 207 z m 322 956 b 300 904 310 956 308 933 b 247 757 293 879 254 772 b 251 725 240 742 240 733 b 281 738 263 717 272 724 b 351 915 299 769 351 875 b 322 956 351 932 332 956 z "},"ŀ":{"ha":325,"x_min":0,"x_max":0,"o":"m 135 875 b 96 833 111 875 103 861 b 8 246 72 736 8 411 b 175 -47 8 50 83 -47 b 378 340 315 -47 378 267 b 365 358 378 351 374 358 b 353 340 357 358 353 351 b 179 -4 353 240 278 -4 b 71 99 133 -4 93 21 b 219 736 161 239 219 508 b 194 850 219 789 213 832 b 135 875 183 861 158 875 z m 56 249 b 163 821 56 494 138 821 b 182 718 171 821 182 769 b 61 143 182 494 126 275 b 56 249 57 172 56 207 z m 271 331 b 231 290 251 331 231 310 b 272 249 231 271 254 249 b 311 297 292 249 311 283 b 271 331 311 311 290 331 z "},"ł":{"ha":251,"x_min":0,"x_max":0,"o":"m 135 875 b 96 833 111 875 103 861 b 8 247 72 736 8 414 l -39 224 b -71 175 -61 208 -78 190 b -57 167 -68 167 -61 165 b -14 194 -53 168 -44 181 b 10 204 -8 196 0 200 b 140 -47 18 36 81 -47 b 307 340 260 -47 307 267 b 294 358 307 351 303 358 b 282 340 286 358 282 351 b 144 -4 282 240 222 -4 b 69 96 118 -4 88 19 b 149 274 100 142 126 204 b 211 313 178 289 200 303 b 226 354 225 324 233 339 b 218 357 225 358 221 358 b 165 326 214 356 194 342 b 219 736 200 454 219 603 b 194 850 219 789 213 832 b 135 875 183 861 158 875 z m 56 271 b 163 821 60 514 138 821 b 182 718 171 821 182 769 b 122 304 182 569 157 424 z m 106 250 b 61 143 92 210 76 174 b 56 226 58 167 56 194 z "},"ñ":{"ha":353,"x_min":0,"x_max":0,"o":"m 60 383 b 22 331 36 383 22 375 b 26 265 22 310 26 303 b 25 192 26 247 25 222 b 31 71 25 164 28 94 b 85 -18 36 22 50 -18 b 125 21 108 -18 118 -4 b 178 238 129 39 165 190 b 196 275 185 263 189 275 b 200 258 199 275 200 269 b 200 196 200 233 200 217 b 279 -25 201 43 232 -25 b 408 340 356 -25 408 257 b 396 358 408 351 404 358 b 383 340 388 358 383 351 b 343 128 383 282 364 197 b 281 19 315 35 296 19 b 242 156 265 19 242 58 b 263 408 242 253 263 399 b 232 449 263 422 243 444 b 189 442 219 454 193 454 b 106 76 186 432 132 172 b 88 44 100 56 94 44 b 68 157 72 44 68 76 b 88 360 68 293 88 349 b 60 383 88 371 72 383 z m 51 543 b 71 531 43 526 61 513 b 93 563 78 543 82 551 b 258 567 128 599 192 507 b 288 604 271 578 281 590 b 271 615 294 619 279 628 b 257 600 265 608 264 606 b 99 604 210 563 144 640 b 51 543 79 589 63 565 z "},"ń":{"ha":353,"x_min":0,"x_max":0,"o":"m 60 383 b 22 331 36 383 22 375 b 26 265 22 310 26 303 b 25 192 26 247 25 222 b 31 71 25 164 28 94 b 85 -18 36 22 50 -18 b 125 21 108 -18 118 -4 b 178 238 129 39 165 190 b 196 275 185 263 189 275 b 200 258 199 275 200 269 b 200 196 200 233 200 217 b 279 -25 201 43 232 -25 b 408 340 356 -25 408 257 b 396 358 408 351 404 358 b 383 340 388 358 383 351 b 343 128 383 282 364 197 b 281 19 315 35 296 19 b 242 156 265 19 242 58 b 263 408 242 253 263 399 b 232 449 263 422 243 444 b 189 442 219 454 193 454 b 106 76 186 432 132 172 b 88 44 100 56 94 44 b 68 157 72 44 68 76 b 88 360 68 293 88 349 b 60 383 88 371 72 383 z m 236 682 b 214 681 232 693 221 693 b 82 538 192 642 138 576 b 92 518 67 526 78 511 b 222 604 140 543 196 581 b 236 682 242 624 246 656 z "},"ņ":{"ha":353,"x_min":0,"x_max":0,"o":"m 60 383 b 22 331 36 383 22 375 b 26 265 22 310 26 303 b 25 192 26 247 25 222 b 31 71 25 164 28 94 b 85 -18 36 22 50 -18 b 125 21 108 -18 118 -4 b 178 238 129 39 165 190 b 196 275 185 263 189 275 b 200 258 199 275 200 269 b 200 196 200 233 200 217 b 279 -25 201 43 232 -25 b 408 340 356 -25 408 257 b 396 358 408 351 404 358 b 383 340 388 358 383 351 b 343 128 383 282 364 197 b 281 19 315 35 296 19 b 242 156 265 19 242 58 b 263 408 242 253 263 399 b 232 449 263 422 243 444 b 189 442 219 454 193 454 b 106 76 186 432 132 172 b 88 44 100 56 94 44 b 68 157 72 44 68 76 b 88 360 68 293 88 349 b 60 383 88 371 72 383 z m 172 -107 b 151 -149 163 -106 160 -125 b 103 -275 143 -171 108 -260 b 108 -303 99 -286 97 -300 b 131 -292 117 -307 124 -301 b 200 -143 147 -265 200 -178 b 172 -107 200 -131 181 -107 z "},"ň":{"ha":353,"x_min":0,"x_max":0,"o":"m 60 383 b 22 331 36 383 22 375 b 26 265 22 310 26 303 b 25 192 26 247 25 222 b 31 71 25 164 28 94 b 85 -18 36 22 50 -18 b 125 21 108 -18 118 -4 b 178 238 129 39 165 190 b 196 275 185 263 189 275 b 200 258 199 275 200 269 b 200 196 200 233 200 217 b 279 -25 201 43 232 -25 b 408 340 356 -25 408 257 b 396 358 408 351 404 358 b 383 340 388 358 383 351 b 343 128 383 282 364 197 b 281 19 315 35 296 19 b 242 156 265 19 242 58 b 263 408 242 253 263 399 b 232 449 263 422 243 444 b 189 442 219 454 193 454 b 106 76 186 432 132 172 b 88 44 100 56 94 44 b 68 157 72 44 68 76 b 88 360 68 293 88 349 b 60 383 88 371 72 383 z m 261 644 b 243 656 269 660 253 671 b 183 586 219 618 194 586 b 65 653 165 586 100 625 b 46 640 51 664 38 654 b 154 538 67 606 115 557 b 189 542 165 532 178 531 b 261 644 208 561 242 610 z "},"ŉ":{"ha":353,"x_min":0,"x_max":0,"o":"m 60 383 b 22 331 36 383 22 375 b 26 265 22 310 26 303 b 25 192 26 247 25 222 b 31 71 25 164 28 94 b 85 -18 36 22 50 -18 b 125 21 108 -18 118 -4 b 178 238 129 39 165 190 b 196 275 185 263 189 275 b 200 258 199 275 200 269 b 200 196 200 233 200 217 b 279 -25 201 43 232 -25 b 408 340 356 -25 408 257 b 396 358 408 351 404 358 b 383 340 388 358 383 351 b 343 128 383 282 364 197 b 281 19 315 35 296 19 b 242 156 265 19 242 58 b 263 408 242 253 263 399 b 232 449 263 422 243 444 b 189 442 219 454 193 454 b 106 76 186 432 132 172 b 88 44 100 56 94 44 b 68 157 72 44 68 76 b 88 360 68 293 88 349 b 60 383 88 371 72 383 z m 110 688 b 88 636 97 688 96 665 b 35 489 81 611 42 504 b 39 457 28 474 28 465 b 68 469 50 449 60 456 b 139 647 86 501 139 607 b 110 688 139 664 119 688 z "},"ŋ":{"ha":336,"x_min":0,"x_max":0,"o":"m 60 383 b 22 331 36 383 22 375 b 26 265 22 310 26 303 b 25 192 26 247 25 222 b 31 71 25 164 28 94 b 85 -18 36 22 50 -18 b 125 21 108 -18 118 -4 b 178 238 129 39 165 190 b 196 275 185 263 189 275 b 200 258 199 275 200 269 l 200 135 l 200 119 b 208 -99 200 47 204 -29 b -147 -347 51 -136 -147 -239 b 81 -518 -147 -454 -11 -518 b 260 -311 193 -518 260 -453 b 249 -124 260 -264 254 -201 b 313 -117 272 -119 294 -117 b 401 -149 382 -117 396 -136 b 415 -162 407 -161 411 -162 b 429 -143 419 -162 429 -156 b 314 -85 429 -117 400 -85 b 247 -90 294 -85 271 -86 b 242 94 243 -36 242 26 l 242 97 b 263 408 242 254 263 399 b 232 449 263 422 243 444 b 189 442 219 454 193 454 b 106 76 186 432 132 172 b 88 44 100 56 94 44 b 68 157 72 44 68 76 b 88 360 68 293 88 349 b 60 383 88 371 72 383 z m 219 -286 b 86 -489 219 -404 188 -489 b -108 -358 22 -489 -108 -446 b 210 -132 -108 -258 71 -167 b 219 -286 215 -208 219 -268 z "},"ò":{"ha":324,"x_min":0,"x_max":0,"o":"m 93 486 b 61 469 76 486 68 483 b 11 171 40 429 11 275 b 106 -42 11 35 50 -42 b 222 165 171 -42 208 64 b 274 153 236 158 256 153 b 379 340 343 153 379 283 b 367 358 379 351 375 358 b 354 340 358 358 354 351 b 265 188 354 279 322 188 b 226 203 251 188 238 193 b 229 250 228 219 229 235 b 200 425 229 329 224 394 b 93 486 185 444 117 486 z m 128 438 b 168 397 139 438 168 422 b 165 340 168 372 165 357 b 186 206 165 286 171 238 b 108 -3 186 106 146 -3 b 57 156 93 -3 57 25 b 128 438 57 292 97 438 z m 64 624 b 204 519 82 586 149 539 b 218 536 224 513 233 528 b 92 683 167 565 119 628 b 64 624 81 706 42 664 z "},"ó":{"ha":324,"x_min":0,"x_max":0,"o":"m 93 486 b 61 469 76 486 68 483 b 11 171 40 429 11 275 b 106 -42 11 35 50 -42 b 222 165 171 -42 208 64 b 274 153 236 158 256 153 b 379 340 343 153 379 283 b 367 358 379 351 375 358 b 354 340 358 358 354 351 b 265 188 354 279 322 188 b 226 203 251 188 238 193 b 229 250 228 219 229 235 b 200 425 229 329 224 394 b 93 486 185 444 117 486 z m 128 438 b 168 397 139 438 168 422 b 165 340 168 372 165 357 b 186 206 165 286 171 238 b 108 -3 186 106 146 -3 b 57 156 93 -3 57 25 b 128 438 57 292 97 438 z m 238 682 b 215 681 233 693 222 693 b 83 538 193 642 139 576 b 93 518 68 526 79 511 b 224 604 142 543 197 581 b 238 682 243 624 247 656 z "},"ô":{"ha":324,"x_min":0,"x_max":0,"o":"m 93 486 b 61 469 76 486 68 483 b 11 171 40 429 11 275 b 106 -42 11 35 50 -42 b 222 165 171 -42 208 64 b 274 153 236 158 256 153 b 379 340 343 153 379 283 b 367 358 379 351 375 358 b 354 340 358 358 354 351 b 265 188 354 279 322 188 b 226 203 251 188 238 193 b 229 250 228 219 229 235 b 200 425 229 329 224 394 b 93 486 185 444 117 486 z m 128 438 b 168 397 139 438 168 422 b 165 340 168 372 165 357 b 186 206 165 286 171 238 b 108 -3 186 106 146 -3 b 57 156 93 -3 57 25 b 128 438 57 292 97 438 z m 69 539 b 88 525 60 525 78 511 b 138 596 113 556 121 568 b 238 528 165 574 179 561 b 250 544 251 521 261 536 b 164 650 211 574 185 613 b 118 636 156 665 121 651 b 69 539 114 614 97 572 z "},"õ":{"ha":324,"x_min":0,"x_max":0,"o":"m 93 486 b 61 469 76 486 68 483 b 11 171 40 429 11 275 b 106 -42 11 35 50 -42 b 222 165 171 -42 208 64 b 274 153 236 158 256 153 b 379 340 343 153 379 283 b 367 358 379 351 375 358 b 354 340 358 358 354 351 b 265 188 354 279 322 188 b 226 203 251 188 238 193 b 229 250 228 219 229 235 b 200 425 229 329 224 394 b 93 486 185 444 117 486 z m 128 438 b 168 397 139 438 168 422 b 165 340 168 372 165 357 b 186 206 165 286 171 238 b 108 -3 186 106 146 -3 b 57 156 93 -3 57 25 b 128 438 57 292 97 438 z m 43 543 b 63 531 35 526 53 513 b 85 563 69 543 74 551 b 250 567 119 599 183 507 b 279 604 263 578 272 590 b 263 615 286 619 271 628 b 249 600 257 608 256 606 b 90 604 201 563 136 640 b 43 543 71 589 54 565 z "},"ö":{"ha":324,"x_min":0,"x_max":0,"o":"m 93 486 b 61 469 76 486 68 483 b 11 171 40 429 11 275 b 106 -42 11 35 50 -42 b 222 165 171 -42 208 64 b 274 153 236 158 256 153 b 379 340 343 153 379 283 b 367 358 379 351 375 358 b 354 340 358 358 354 351 b 265 188 354 279 322 188 b 226 203 251 188 238 193 b 229 250 228 219 229 235 b 200 425 229 329 224 394 b 93 486 185 444 117 486 z m 128 438 b 168 397 139 438 168 422 b 165 340 168 372 165 357 b 186 206 165 286 171 238 b 108 -3 186 106 146 -3 b 57 156 93 -3 57 25 b 128 438 57 292 97 438 z m 89 613 b 53 578 69 613 53 590 b 99 540 53 554 83 540 b 124 568 113 540 124 553 b 89 613 124 585 113 613 z m 200 626 b 171 592 181 626 171 604 b 210 554 171 568 194 554 b 242 582 224 554 242 567 b 200 626 242 599 224 626 z "},"ø":{"ha":324,"x_min":0,"x_max":0,"o":"m 93 486 b 61 469 76 486 68 483 b 11 171 40 429 11 275 b 31 31 11 113 18 65 b 3 -35 21 10 13 -11 b 6 -74 -7 -57 -11 -74 b 38 -53 22 -74 33 -61 l 53 -14 b 106 -42 68 -32 86 -42 b 222 165 171 -42 208 64 b 274 153 236 158 256 153 b 379 340 343 153 379 283 b 367 358 379 351 375 358 b 354 340 358 358 354 351 b 265 188 354 279 322 188 b 226 203 251 188 238 193 b 229 250 228 219 229 235 b 224 350 229 286 228 321 l 268 432 b 271 461 272 440 278 458 b 249 450 264 464 256 461 b 215 393 238 429 226 411 b 200 425 211 406 206 417 b 93 486 185 444 117 486 z m 128 438 b 168 397 139 438 168 422 b 165 340 168 372 165 357 l 165 304 b 60 94 126 233 93 168 b 57 156 57 113 57 132 b 128 438 57 292 97 438 z m 172 249 b 186 206 176 232 181 218 b 108 -3 186 106 146 -3 b 74 33 100 -3 86 6 b 172 249 110 115 138 179 z "},"ō":{"ha":324,"x_min":0,"x_max":0,"o":"m 93 486 b 61 469 76 486 68 483 b 11 171 40 429 11 275 b 106 -42 11 35 50 -42 b 222 165 171 -42 208 64 b 274 153 236 158 256 153 b 379 340 343 153 379 283 b 367 358 379 351 375 358 b 354 340 358 358 354 351 b 265 188 354 279 322 188 b 226 203 251 188 238 193 b 229 250 228 219 229 235 b 200 425 229 329 224 394 b 93 486 185 444 117 486 z m 128 438 b 168 397 139 438 168 422 b 165 340 168 372 165 357 b 186 206 165 286 171 238 b 108 -3 186 106 146 -3 b 57 156 93 -3 57 25 b 128 438 57 292 97 438 z m 53 557 b 63 544 53 549 56 542 b 107 554 75 550 90 553 b 235 568 147 557 210 556 b 263 606 254 578 263 590 b 251 614 263 611 260 617 b 204 603 243 611 229 607 b 90 589 161 596 126 599 b 53 557 65 582 53 574 z "},"ŏ":{"ha":324,"x_min":0,"x_max":0,"o":"m 93 486 b 61 469 76 486 68 483 b 11 171 40 429 11 275 b 106 -42 11 35 50 -42 b 222 165 171 -42 208 64 b 274 153 236 158 256 153 b 379 340 343 153 379 283 b 367 358 379 351 375 358 b 354 340 358 358 354 351 b 265 188 354 279 322 188 b 226 203 251 188 238 193 b 229 250 228 219 229 235 b 200 425 229 329 224 394 b 93 486 185 444 117 486 z m 128 438 b 168 397 139 438 168 422 b 165 340 168 372 165 357 b 186 206 165 286 171 238 b 108 -3 186 106 146 -3 b 57 156 93 -3 57 25 b 128 438 57 292 97 438 z m 272 599 b 258 613 281 608 271 625 b 165 567 226 581 196 567 b 82 604 129 567 106 585 b 49 596 74 611 60 607 b 46 569 36 583 40 575 b 154 532 64 551 106 532 b 272 599 199 532 236 557 z "},"ő":{"ha":324,"x_min":0,"x_max":0,"o":"m 93 486 b 61 469 76 486 68 483 b 11 171 40 429 11 275 b 106 -42 11 35 50 -42 b 222 165 171 -42 208 64 b 274 153 236 158 256 153 b 379 340 343 153 379 283 b 367 358 379 351 375 358 b 354 340 358 358 354 351 b 265 188 354 279 322 188 b 226 203 251 188 238 193 b 229 250 228 219 229 235 b 200 425 229 329 224 394 b 93 486 185 444 117 486 z m 128 438 b 168 397 139 438 168 422 b 165 340 168 372 165 357 b 186 206 165 286 171 238 b 108 -3 186 106 146 -3 b 57 156 93 -3 57 25 b 128 438 57 292 97 438 z m 138 707 b 119 663 126 707 125 688 b 76 536 113 632 92 574 b 96 529 69 519 88 515 b 163 674 111 557 164 639 b 138 707 161 688 146 707 z m 224 731 b 206 686 213 731 213 711 b 163 560 194 646 178 597 b 181 551 157 544 169 535 b 249 697 203 585 250 663 b 224 731 247 711 232 731 z "},"ǿ":{"ha":324,"x_min":0,"x_max":0,"o":"m 93 486 b 61 469 76 486 68 483 b 11 171 40 429 11 275 b 31 31 11 113 18 65 b 3 -35 21 10 13 -11 b 6 -74 -7 -57 -11 -74 b 38 -53 22 -74 33 -61 l 53 -14 b 106 -42 68 -32 86 -42 b 222 165 171 -42 208 64 b 274 153 236 158 256 153 b 379 340 343 153 379 283 b 367 358 379 351 375 358 b 354 340 358 358 354 351 b 265 188 354 279 322 188 b 226 203 251 188 238 193 b 229 250 228 219 229 235 b 224 350 229 286 228 321 l 268 432 b 271 461 272 440 278 458 b 249 450 264 464 256 461 b 215 393 238 429 226 411 b 200 425 211 406 206 417 b 93 486 185 444 117 486 z m 128 438 b 168 397 139 438 168 422 b 165 340 168 372 165 357 l 165 304 b 60 94 126 233 93 168 b 57 156 57 113 57 132 b 128 438 57 292 97 438 z m 172 249 b 186 206 176 232 181 218 b 108 -3 186 106 146 -3 b 74 33 100 -3 86 6 b 172 249 110 115 138 179 z m 238 689 b 215 688 233 700 222 700 b 83 544 193 649 139 583 b 93 525 68 533 79 518 b 224 611 142 550 197 588 b 238 689 243 631 247 663 z "},"œ":{"ha":421,"x_min":0,"x_max":0,"o":"m 290 478 b 221 369 267 478 240 432 b 176 474 213 419 197 467 b 111 508 154 481 124 508 b 13 196 53 508 13 333 b 121 -24 13 38 63 -24 b 206 76 158 -24 188 18 b 321 -21 228 10 271 -21 b 424 78 364 -21 400 17 b 476 340 463 176 476 300 b 464 358 476 351 472 358 b 451 340 456 358 451 351 b 318 17 451 206 394 17 b 236 167 289 17 240 56 b 371 399 317 211 371 339 b 290 478 371 447 319 478 z m 143 453 b 193 251 182 453 193 332 b 115 25 193 86 142 25 b 60 163 92 25 60 71 b 143 453 60 308 100 453 z m 307 432 b 335 393 318 432 335 413 b 236 206 335 325 289 243 b 307 432 243 319 296 432 z "},"ŕ":{"ha":279,"x_min":0,"x_max":0,"o":"m 39 563 b 13 497 21 563 13 526 b 35 425 13 472 19 446 b 19 265 31 369 24 296 b -18 25 13 214 -10 60 b -37 -42 -24 -1 -37 -35 b -24 -61 -37 -53 -32 -61 b 1 -28 -15 -61 -6 -51 b 65 393 19 31 51 249 l 79 385 b 131 326 121 363 131 351 b 124 149 131 285 124 189 b 203 -26 124 22 157 -26 b 335 340 286 -26 335 279 b 322 358 335 351 331 358 b 310 340 314 358 310 351 b 199 4 310 238 243 4 b 165 106 171 4 165 51 b 185 322 165 153 185 299 b 118 400 185 363 165 382 b 68 431 100 407 82 417 b 72 500 71 458 72 483 b 39 563 72 542 57 563 z m 264 664 b 242 663 260 675 249 675 b 110 519 219 624 165 558 b 119 500 94 508 106 493 b 250 586 168 525 224 563 b 264 664 269 606 274 638 z "},"ŗ":{"ha":279,"x_min":0,"x_max":0,"o":"m 39 563 b 13 497 21 563 13 526 b 35 425 13 472 19 446 b 19 265 31 369 24 296 b -18 25 13 214 -10 60 b -37 -42 -24 -1 -37 -35 b -24 -61 -37 -53 -32 -61 b 1 -28 -15 -61 -6 -51 b 65 393 19 31 51 249 l 79 385 b 131 326 121 363 131 351 b 124 149 131 285 124 189 b 203 -26 124 22 157 -26 b 335 340 286 -26 335 279 b 322 358 335 351 331 358 b 310 340 314 358 310 351 b 199 4 310 238 243 4 b 165 106 171 4 165 51 b 185 322 165 153 185 299 b 118 400 185 363 165 382 b 68 431 100 407 82 417 b 72 500 71 458 72 483 b 39 563 72 542 57 563 z m 100 -107 b 79 -149 90 -106 88 -125 b 31 -275 71 -171 36 -260 b 36 -303 26 -286 25 -300 b 58 -292 44 -307 51 -301 b 128 -143 75 -265 128 -178 b 100 -107 128 -131 108 -107 z "},"ř":{"ha":279,"x_min":0,"x_max":0,"o":"m 39 563 b 13 497 21 563 13 526 b 35 425 13 472 19 446 b 19 265 31 369 24 296 b -18 25 13 214 -10 60 b -37 -42 -24 -1 -37 -35 b -24 -61 -37 -53 -32 -61 b 1 -28 -15 -61 -6 -51 b 65 393 19 31 51 249 l 79 385 b 131 326 121 363 131 351 b 124 149 131 285 124 189 b 203 -26 124 22 157 -26 b 335 340 286 -26 335 279 b 322 358 335 351 331 358 b 310 340 314 358 310 351 b 199 4 310 238 243 4 b 165 106 171 4 165 51 b 185 322 165 153 185 299 b 118 400 185 363 165 382 b 68 431 100 407 82 417 b 72 500 71 458 72 483 b 39 563 72 542 57 563 z m 250 640 b 232 651 258 656 242 667 b 172 582 208 614 183 582 b 54 649 154 582 89 621 b 35 636 40 660 26 650 b 143 533 56 601 104 553 b 178 538 154 528 167 526 b 250 640 197 557 231 606 z "},"ś":{"ha":214,"x_min":0,"x_max":0,"o":"m 67 488 b 39 458 56 488 39 469 b 35 361 39 447 40 397 b -58 -35 13 218 -21 57 b -49 -62 -61 -42 -65 -62 b -10 3 -35 -62 -19 -28 b 86 -46 8 -22 51 -46 b 168 76 132 -46 168 25 b 101 390 168 158 101 288 b 110 457 101 425 110 447 b 67 488 110 467 78 488 z m 63 322 b 86 244 68 300 76 274 b 121 82 106 183 121 121 b 68 -8 121 26 104 -8 b 11 28 42 -8 11 13 b 0 42 11 35 8 40 b 63 322 14 97 50 257 z m 176 682 b 154 681 172 693 161 693 b 22 538 132 642 78 576 b 32 518 7 526 18 511 b 163 604 81 543 136 581 b 176 682 182 624 186 656 z "},"ŝ":{"ha":214,"x_min":0,"x_max":0,"o":"m 67 488 b 39 458 56 488 39 469 b 35 361 39 447 40 397 b -58 -35 13 218 -21 57 b -49 -62 -61 -42 -65 -62 b -10 3 -35 -62 -19 -28 b 86 -46 8 -22 51 -46 b 168 76 132 -46 168 25 b 101 390 168 158 101 288 b 110 457 101 425 110 447 b 67 488 110 467 78 488 z m 63 322 b 86 244 68 300 76 274 b 121 82 106 183 121 121 b 68 -8 121 26 104 -8 b 11 28 42 -8 11 13 b 0 42 11 35 8 40 b 63 322 14 97 50 257 z m 8 539 b 26 525 -1 525 17 511 b 76 596 51 556 60 568 b 176 528 104 574 118 561 b 189 544 190 521 200 536 b 103 650 150 574 124 613 b 57 636 94 665 60 651 b 8 539 53 614 36 572 z "},"ş":{"ha":214,"x_min":0,"x_max":0,"o":"m 67 488 b 39 458 56 488 39 469 b 35 361 39 447 40 397 b -58 -35 13 218 -21 57 b -49 -62 -61 -42 -65 -62 b -10 3 -35 -62 -19 -28 b 86 -46 8 -22 51 -46 b 168 76 132 -46 168 25 b 101 390 168 158 101 288 b 110 457 101 425 110 447 b 67 488 110 467 78 488 z m 63 322 b 86 244 68 300 76 274 b 121 82 106 183 121 121 b 68 -8 121 26 104 -8 b 11 28 42 -8 11 13 b 0 42 11 35 8 40 b 63 322 14 97 50 257 z m 101 -189 b 32 -283 101 -231 78 -256 b 42 -303 18 -292 26 -310 b 140 -168 86 -285 140 -239 b 74 -76 140 -117 106 -85 b 26 -118 51 -71 4 -115 b 101 -189 68 -124 101 -150 z "},"š":{"ha":214,"x_min":0,"x_max":0,"o":"m 67 488 b 39 458 56 488 39 469 b 35 361 39 447 40 397 b -58 -35 13 218 -21 57 b -49 -62 -61 -42 -65 -62 b -10 3 -35 -62 -19 -28 b 86 -46 8 -22 51 -46 b 168 76 132 -46 168 25 b 101 390 168 158 101 288 b 110 457 101 425 110 447 b 67 488 110 467 78 488 z m 63 322 b 86 244 68 300 76 274 b 121 82 106 183 121 121 b 68 -8 121 26 104 -8 b 11 28 42 -8 11 13 b 0 42 11 35 8 40 b 63 322 14 97 50 257 z m 193 644 b 175 656 201 660 185 671 b 115 586 151 618 126 586 b -3 653 97 586 32 625 b -22 640 -17 664 -31 654 b 86 538 -1 606 47 557 b 121 542 97 532 110 531 b 193 644 140 561 174 610 z "},"ţ":{"ha":186,"x_min":0,"x_max":0,"o":"m -126 567 b -161 556 -142 567 -161 567 b -139 536 -161 544 -146 540 b -118 521 -132 532 -124 521 b -68 528 -112 521 -90 528 b 43 526 -44 528 -3 526 b 18 197 32 397 18 231 b 106 -37 18 56 50 -37 b 242 339 182 -37 242 247 b 229 358 242 351 238 358 b 217 340 221 358 217 351 b 110 7 217 211 146 7 b 64 213 76 7 64 65 b 93 526 64 313 78 432 b 301 532 172 526 257 528 b 392 544 321 533 368 539 b 418 560 414 550 418 554 b 324 567 418 565 400 567 l 99 567 b 119 690 110 633 119 682 b 103 725 119 708 118 717 b 69 738 88 733 78 738 b 53 725 61 738 53 732 b 57 686 53 718 57 701 b 47 567 57 681 53 631 z m 67 -107 b 46 -149 57 -106 54 -125 b -3 -275 38 -171 3 -260 b 3 -303 -7 -286 -8 -300 b 25 -292 11 -307 18 -301 b 94 -143 42 -265 94 -178 b 67 -107 94 -131 75 -107 z "},"ť":{"ha":199,"x_min":0,"x_max":0,"o":"m -126 567 b -161 556 -142 567 -161 567 b -139 536 -161 544 -146 540 b -118 521 -132 532 -124 521 b -68 528 -112 521 -90 528 b 43 526 -44 528 -3 526 b 18 197 32 397 18 231 b 106 -37 18 56 50 -37 b 242 339 182 -37 242 247 b 229 358 242 351 238 358 b 217 340 221 358 217 351 b 110 7 217 211 146 7 b 64 213 76 7 64 65 b 93 526 64 313 78 432 b 301 532 172 526 257 528 b 392 544 321 533 368 539 b 418 560 414 550 418 554 b 324 567 418 565 400 567 l 99 567 b 119 690 110 633 119 682 b 103 725 119 708 118 717 b 69 738 88 733 78 738 b 53 725 61 738 53 732 b 57 686 53 718 57 701 b 47 567 57 681 53 631 z m 232 896 b 210 844 219 896 218 874 b 157 697 203 819 164 713 b 161 665 150 682 150 674 b 190 678 172 657 182 664 b 261 856 208 710 261 815 b 232 896 261 872 242 896 z "},"ŧ":{"ha":186,"x_min":0,"x_max":0,"o":"m -74 247 b -62 236 -74 240 -71 233 b -10 244 -47 242 -29 243 b 19 246 0 244 10 246 b 18 197 18 222 18 206 b 106 -37 18 56 50 -37 b 242 339 182 -37 242 247 b 229 358 242 351 238 358 b 217 340 221 358 217 351 b 110 7 217 211 146 7 b 64 213 76 7 64 65 l 64 247 b 142 257 96 249 125 250 b 175 289 164 265 175 276 b 161 297 175 294 171 299 b 106 288 151 294 135 290 b 65 283 92 285 78 283 b 93 526 69 365 81 453 b 301 532 172 526 257 528 b 392 544 321 533 368 539 b 418 560 414 550 418 554 b 324 567 418 565 400 567 l 99 567 b 119 690 110 633 119 682 b 103 725 119 708 118 717 b 69 738 88 733 78 738 b 53 725 61 738 53 732 b 57 686 53 718 57 701 b 47 567 57 681 53 631 l -126 567 b -161 556 -142 567 -161 567 b -139 536 -161 544 -146 540 b -118 521 -132 532 -124 521 b -68 528 -112 521 -90 528 b 43 526 -44 528 -3 526 l 22 281 b -29 275 4 279 -11 278 b -74 247 -60 269 -74 261 z "},"ù":{"ha":346,"x_min":0,"x_max":0,"o":"m 50 397 b 31 378 36 397 31 392 b 18 113 31 364 18 147 b 92 -37 18 18 33 -37 b 196 142 146 -37 178 60 b 269 -8 203 22 231 -8 b 318 24 286 -8 303 0 b 401 340 371 108 401 272 b 389 358 401 351 397 358 b 376 340 381 358 376 351 b 275 29 376 208 310 29 b 232 172 251 29 232 75 b 256 390 232 222 253 375 b 268 425 258 406 268 419 b 238 454 268 431 253 454 b 206 438 222 454 206 449 b 90 -7 206 169 128 -7 b 61 111 68 -7 61 11 b 83 329 61 206 79 313 b 92 371 88 346 92 365 b 50 397 92 385 71 397 z m 68 624 b 208 519 86 586 153 539 b 222 536 228 513 238 528 b 96 683 171 565 124 628 b 68 624 85 706 46 664 z "},"ú":{"ha":346,"x_min":0,"x_max":0,"o":"m 50 397 b 31 378 36 397 31 392 b 18 113 31 364 18 147 b 92 -37 18 18 33 -37 b 196 142 146 -37 178 60 b 269 -8 203 22 231 -8 b 318 24 286 -8 303 0 b 401 340 371 108 401 272 b 389 358 401 351 397 358 b 376 340 381 358 376 351 b 275 29 376 208 310 29 b 232 172 251 29 232 75 b 256 390 232 222 253 375 b 268 425 258 406 268 419 b 238 454 268 431 253 454 b 206 438 222 454 206 449 b 90 -7 206 169 128 -7 b 61 111 68 -7 61 11 b 83 329 61 206 79 313 b 92 371 88 346 92 365 b 50 397 92 385 71 397 z m 235 682 b 213 681 231 693 219 693 b 81 538 190 642 136 576 b 90 518 65 526 76 511 b 221 604 139 543 194 581 b 235 682 240 624 244 656 z "},"û":{"ha":346,"x_min":0,"x_max":0,"o":"m 50 397 b 31 378 36 397 31 392 b 18 113 31 364 18 147 b 92 -37 18 18 33 -37 b 196 142 146 -37 178 60 b 269 -8 203 22 231 -8 b 318 24 286 -8 303 0 b 401 340 371 108 401 272 b 389 358 401 351 397 358 b 376 340 381 358 376 351 b 275 29 376 208 310 29 b 232 172 251 29 232 75 b 256 390 232 222 253 375 b 268 425 258 406 268 419 b 238 454 268 431 253 454 b 206 438 222 454 206 449 b 90 -7 206 169 128 -7 b 61 111 68 -7 61 11 b 83 329 61 206 79 313 b 92 371 88 346 92 365 b 50 397 92 385 71 397 z m 67 539 b 85 525 57 525 75 511 b 135 596 110 556 118 568 b 235 528 163 574 176 561 b 247 544 249 521 258 536 b 161 650 208 574 182 613 b 115 636 153 665 118 651 b 67 539 111 614 94 572 z "},"ü":{"ha":346,"x_min":0,"x_max":0,"o":"m 50 397 b 31 378 36 397 31 392 b 18 113 31 364 18 147 b 92 -37 18 18 33 -37 b 196 142 146 -37 178 60 b 269 -8 203 22 231 -8 b 318 24 286 -8 303 0 b 401 340 371 108 401 272 b 389 358 401 351 397 358 b 376 340 381 358 376 351 b 275 29 376 208 310 29 b 232 172 251 29 232 75 b 256 390 232 222 253 375 b 268 425 258 406 268 419 b 238 454 268 431 253 454 b 206 438 222 454 206 449 b 90 -7 206 169 128 -7 b 61 111 68 -7 61 11 b 83 329 61 206 79 313 b 92 371 88 346 92 365 b 50 397 92 385 71 397 z m 100 613 b 64 578 81 613 64 590 b 110 540 64 554 94 540 b 135 568 124 540 135 553 b 100 613 135 585 124 613 z m 211 626 b 182 592 192 626 182 604 b 221 554 182 568 206 554 b 253 582 235 554 253 567 b 211 626 253 599 235 626 z "},"ũ":{"ha":346,"x_min":0,"x_max":0,"o":"m 50 397 b 31 378 36 397 31 392 b 18 113 31 364 18 147 b 92 -37 18 18 33 -37 b 196 142 146 -37 178 60 b 269 -8 203 22 231 -8 b 318 24 286 -8 303 0 b 401 340 371 108 401 272 b 389 358 401 351 397 358 b 376 340 381 358 376 351 b 275 29 376 208 310 29 b 232 172 251 29 232 75 b 256 390 232 222 253 375 b 268 425 258 406 268 419 b 238 454 268 431 253 454 b 206 438 222 454 206 449 b 90 -7 206 169 128 -7 b 61 111 68 -7 61 11 b 83 329 61 206 79 313 b 92 371 88 346 92 365 b 50 397 92 385 71 397 z m 47 522 b 67 510 39 506 57 492 b 89 542 74 522 78 531 b 254 546 124 578 188 486 b 283 583 267 557 276 569 b 267 594 290 599 275 607 b 253 579 261 588 260 585 b 94 583 206 542 140 619 b 47 522 75 568 58 544 z "},"ū":{"ha":346,"x_min":0,"x_max":0,"o":"m 50 397 b 31 378 36 397 31 392 b 18 113 31 364 18 147 b 92 -37 18 18 33 -37 b 196 142 146 -37 178 60 b 269 -8 203 22 231 -8 b 318 24 286 -8 303 0 b 401 340 371 108 401 272 b 389 358 401 351 397 358 b 376 340 381 358 376 351 b 275 29 376 208 310 29 b 232 172 251 29 232 75 b 256 390 232 222 253 375 b 268 425 258 406 268 419 b 238 454 268 431 253 454 b 206 438 222 454 206 449 b 90 -7 206 169 128 -7 b 61 111 68 -7 61 11 b 83 329 61 206 79 313 b 92 371 88 346 92 365 b 50 397 92 385 71 397 z m 57 529 b 67 517 57 521 60 514 b 111 526 79 522 94 525 b 239 540 151 529 214 528 b 267 578 258 550 267 563 b 256 586 267 583 264 589 b 208 575 247 583 233 579 b 94 561 165 568 131 571 b 57 529 69 554 57 546 z "},"ŭ":{"ha":346,"x_min":0,"x_max":0,"o":"m 50 397 b 31 378 36 397 31 392 b 18 113 31 364 18 147 b 92 -37 18 18 33 -37 b 196 142 146 -37 178 60 b 269 -8 203 22 231 -8 b 318 24 286 -8 303 0 b 401 340 371 108 401 272 b 389 358 401 351 397 358 b 376 340 381 358 376 351 b 275 29 376 208 310 29 b 232 172 251 29 232 75 b 256 390 232 222 253 375 b 268 425 258 406 268 419 b 238 454 268 431 253 454 b 206 438 222 454 206 449 b 90 -7 206 169 128 -7 b 61 111 68 -7 61 11 b 83 329 61 206 79 313 b 92 371 88 346 92 365 b 50 397 92 385 71 397 z m 283 571 b 269 585 292 581 282 597 b 176 539 238 553 207 539 b 93 576 140 539 117 557 b 60 568 85 583 71 579 b 57 542 47 556 51 547 b 165 504 75 524 117 504 b 283 571 210 504 247 529 z "},"ů":{"ha":346,"x_min":0,"x_max":0,"o":"m 50 397 b 31 378 36 397 31 392 b 18 113 31 364 18 147 b 92 -37 18 18 33 -37 b 196 142 146 -37 178 60 b 269 -8 203 22 231 -8 b 318 24 286 -8 303 0 b 401 340 371 108 401 272 b 389 358 401 351 397 358 b 376 340 381 358 376 351 b 275 29 376 208 310 29 b 232 172 251 29 232 75 b 256 390 232 222 253 375 b 268 425 258 406 268 419 b 238 454 268 431 253 454 b 206 438 222 454 206 449 b 90 -7 206 169 128 -7 b 61 111 68 -7 61 11 b 83 329 61 206 79 313 b 92 371 88 346 92 365 b 50 397 92 385 71 397 z m 135 690 b 76 590 110 690 76 633 b 160 508 76 532 106 508 b 238 617 210 508 238 571 b 164 688 238 658 214 688 b 135 690 150 688 147 690 z m 163 665 b 208 607 197 665 208 629 b 154 528 208 560 182 528 b 111 578 129 528 111 547 b 163 665 111 603 126 665 z "},"ű":{"ha":346,"x_min":0,"x_max":0,"o":"m 50 397 b 31 378 36 397 31 392 b 18 113 31 364 18 147 b 92 -37 18 18 33 -37 b 196 142 146 -37 178 60 b 269 -8 203 22 231 -8 b 318 24 286 -8 303 0 b 401 340 371 108 401 272 b 389 358 401 351 397 358 b 376 340 381 358 376 351 b 275 29 376 208 310 29 b 232 172 251 29 232 75 b 256 390 232 222 253 375 b 268 425 258 406 268 419 b 238 454 268 431 253 454 b 206 438 222 454 206 449 b 90 -7 206 169 128 -7 b 61 111 68 -7 61 11 b 83 329 61 206 79 313 b 92 371 88 346 92 365 b 50 397 92 385 71 397 z m 149 679 b 131 635 138 679 136 660 b 88 508 124 604 103 546 b 107 501 81 492 99 488 b 174 646 122 529 175 611 b 149 679 172 660 157 679 z m 235 703 b 217 658 224 703 224 683 b 174 532 206 618 189 569 b 192 524 168 517 181 507 b 260 669 214 557 261 635 b 235 703 258 683 243 703 z "},"ų":{"ha":346,"x_min":0,"x_max":0,"o":"m 229 -121 b 304 -207 229 -171 261 -207 b 403 -122 350 -207 385 -160 b 385 -111 410 -107 396 -96 b 310 -161 364 -140 339 -161 b 263 -104 283 -161 263 -140 b 304 7 263 -67 278 -32 b 318 24 310 11 314 17 b 401 340 371 108 401 272 b 389 358 401 351 397 358 b 376 340 381 358 376 351 b 275 29 376 208 310 29 b 232 172 251 29 232 75 b 256 390 232 222 253 375 b 268 425 258 406 268 419 b 238 454 268 431 253 454 b 206 438 222 454 206 449 b 90 -7 206 169 128 -7 b 61 111 68 -7 61 11 b 83 329 61 206 79 313 b 92 371 88 346 92 365 b 50 397 92 385 71 397 b 31 378 36 397 31 392 b 18 113 31 364 18 147 b 92 -37 18 18 33 -37 b 196 142 146 -37 178 60 b 267 -8 203 25 229 -7 b 229 -121 244 -43 229 -83 z "},"ŵ":{"ha":432,"x_min":0,"x_max":0,"o":"m 56 422 b 32 396 44 422 33 407 b 14 147 31 385 14 207 b 90 -44 14 7 39 -44 b 171 100 129 -44 157 28 b 253 -18 179 28 204 -18 b 346 199 307 -18 335 86 b 390 181 358 186 374 181 b 488 340 454 181 488 283 b 475 358 488 351 483 358 b 463 339 467 358 463 351 b 393 217 463 282 432 217 b 349 246 378 217 361 228 b 351 313 350 268 351 292 b 318 469 351 417 339 469 b 293 369 304 469 293 424 b 310 253 293 322 299 283 b 246 15 301 129 278 15 b 199 163 214 15 199 93 b 219 367 199 243 219 356 b 199 390 219 378 215 390 b 161 372 182 390 161 388 b 157 213 161 357 163 278 b 93 -7 150 126 121 -7 b 54 139 68 -7 54 57 b 92 390 54 256 92 381 b 56 422 92 404 72 422 z m 110 539 b 128 525 100 525 118 511 b 178 596 153 556 161 568 b 278 528 206 574 219 561 b 290 544 292 521 301 536 b 204 650 251 574 225 613 b 158 636 196 665 161 651 b 110 539 154 614 138 572 z "},"ẁ":{"ha":432,"x_min":0,"x_max":0,"o":"m 56 422 b 32 396 44 422 33 407 b 14 147 31 385 14 207 b 90 -44 14 7 39 -44 b 171 100 129 -44 157 28 b 253 -18 179 28 204 -18 b 346 199 307 -18 335 86 b 390 181 358 186 374 181 b 488 340 454 181 488 283 b 475 358 488 351 483 358 b 463 339 467 358 463 351 b 393 217 463 282 432 217 b 349 246 378 217 361 228 b 351 313 350 268 351 292 b 318 469 351 417 339 469 b 293 369 304 469 293 424 b 310 253 293 322 299 283 b 246 15 301 129 278 15 b 199 163 214 15 199 93 b 219 367 199 243 219 356 b 199 390 219 378 215 390 b 161 372 182 390 161 388 b 157 213 161 357 163 278 b 93 -7 150 126 121 -7 b 54 139 68 -7 54 57 b 92 390 54 256 92 381 b 56 422 92 404 72 422 z m 107 624 b 247 519 125 586 192 539 b 261 536 267 513 276 528 b 135 683 210 565 163 628 b 107 624 124 706 85 664 z "},"ẃ":{"ha":432,"x_min":0,"x_max":0,"o":"m 56 422 b 32 396 44 422 33 407 b 14 147 31 385 14 207 b 90 -44 14 7 39 -44 b 171 100 129 -44 157 28 b 253 -18 179 28 204 -18 b 346 199 307 -18 335 86 b 390 181 358 186 374 181 b 488 340 454 181 488 283 b 475 358 488 351 483 358 b 463 339 467 358 463 351 b 393 217 463 282 432 217 b 349 246 378 217 361 228 b 351 313 350 268 351 292 b 318 469 351 417 339 469 b 293 369 304 469 293 424 b 310 253 293 322 299 283 b 246 15 301 129 278 15 b 199 163 214 15 199 93 b 219 367 199 243 219 356 b 199 390 219 378 215 390 b 161 372 182 390 161 388 b 157 213 161 357 163 278 b 93 -7 150 126 121 -7 b 54 139 68 -7 54 57 b 92 390 54 256 92 381 b 56 422 92 404 72 422 z m 264 682 b 242 681 260 693 249 693 b 110 538 219 642 165 576 b 119 518 94 526 106 511 b 250 604 168 543 224 581 b 264 682 269 624 274 656 z "},"ẅ":{"ha":432,"x_min":0,"x_max":0,"o":"m 56 422 b 32 396 44 422 33 407 b 14 147 31 385 14 207 b 90 -44 14 7 39 -44 b 171 100 129 -44 157 28 b 253 -18 179 28 204 -18 b 346 199 307 -18 335 86 b 390 181 358 186 374 181 b 488 340 454 181 488 283 b 475 358 488 351 483 358 b 463 339 467 358 463 351 b 393 217 463 282 432 217 b 349 246 378 217 361 228 b 351 313 350 268 351 292 b 318 469 351 417 339 469 b 293 369 304 469 293 424 b 310 253 293 322 299 283 b 246 15 301 129 278 15 b 199 163 214 15 199 93 b 219 367 199 243 219 356 b 199 390 219 378 215 390 b 161 372 182 390 161 388 b 157 213 161 357 163 278 b 93 -7 150 126 121 -7 b 54 139 68 -7 54 57 b 92 390 54 256 92 381 b 56 422 92 404 72 422 z m 133 613 b 97 578 114 613 97 590 b 143 540 97 554 128 540 b 168 568 157 540 168 553 b 133 613 168 585 157 613 z m 244 626 b 215 592 225 626 215 604 b 254 554 215 568 239 554 b 286 582 268 554 286 567 b 244 626 286 599 268 626 z "},"ý":{"ha":328,"x_min":0,"x_max":0,"o":"m 63 424 b 33 386 47 424 35 408 b 18 146 32 364 18 203 b 103 -25 18 8 50 -25 b 197 128 146 -25 178 53 b 213 -126 201 56 208 -42 b -92 -406 75 -172 -92 -269 b 58 -550 -92 -496 -10 -550 b 258 -279 182 -550 258 -450 b 251 -144 258 -258 256 -206 b 350 -129 289 -135 322 -129 b 408 -135 371 -129 404 -135 b 421 -128 413 -135 421 -133 b 360 -96 421 -117 404 -96 b 249 -115 335 -96 294 -101 b 238 125 243 -25 238 75 b 258 397 238 214 251 369 b 272 458 265 425 272 446 b 250 482 272 471 261 482 b 211 424 239 482 218 475 b 188 231 204 371 197 290 b 99 3 165 103 131 3 b 63 132 79 3 63 38 b 83 358 63 185 79 340 b 89 401 88 376 89 393 b 63 424 89 410 78 424 z m 217 -235 b 51 -522 217 -435 138 -522 b -49 -412 6 -522 -49 -486 b 214 -157 -49 -293 89 -200 b 217 -235 215 -186 217 -212 z m 238 682 b 215 681 233 693 222 693 b 83 538 193 642 139 576 b 93 518 68 526 79 511 b 224 604 142 543 197 581 b 238 682 243 624 247 656 z "},"ÿ":{"ha":328,"x_min":0,"x_max":0,"o":"m 63 424 b 33 386 47 424 35 408 b 18 146 32 364 18 203 b 103 -25 18 8 50 -25 b 197 128 146 -25 178 53 b 213 -126 201 56 208 -42 b -92 -406 75 -172 -92 -269 b 58 -550 -92 -496 -10 -550 b 258 -279 182 -550 258 -450 b 251 -144 258 -258 256 -206 b 350 -129 289 -135 322 -129 b 408 -135 371 -129 404 -135 b 421 -128 413 -135 421 -133 b 360 -96 421 -117 404 -96 b 249 -115 335 -96 294 -101 b 238 125 243 -25 238 75 b 258 397 238 214 251 369 b 272 458 265 425 272 446 b 250 482 272 471 261 482 b 211 424 239 482 218 475 b 188 231 204 371 197 290 b 99 3 165 103 131 3 b 63 132 79 3 63 38 b 83 358 63 185 79 340 b 89 401 88 376 89 393 b 63 424 89 410 78 424 z m 217 -235 b 51 -522 217 -435 138 -522 b -49 -412 6 -522 -49 -486 b 214 -157 -49 -293 89 -200 b 217 -235 215 -186 217 -212 z m 110 599 b 74 564 90 599 74 576 b 119 526 74 540 104 526 b 144 554 133 526 144 539 b 110 599 144 571 133 599 z m 221 613 b 192 578 201 613 192 590 b 231 540 192 554 215 540 b 263 568 244 540 263 553 b 221 613 263 585 244 613 z "},"ŷ":{"ha":328,"x_min":0,"x_max":0,"o":"m 63 424 b 33 386 47 424 35 408 b 18 146 32 364 18 203 b 103 -25 18 8 50 -25 b 197 128 146 -25 178 53 b 213 -126 201 56 208 -42 b -92 -406 75 -172 -92 -269 b 58 -550 -92 -496 -10 -550 b 258 -279 182 -550 258 -450 b 251 -144 258 -258 256 -206 b 350 -129 289 -135 322 -129 b 408 -135 371 -129 404 -135 b 421 -128 413 -135 421 -133 b 360 -96 421 -117 404 -96 b 249 -115 335 -96 294 -101 b 238 125 243 -25 238 75 b 258 397 238 214 251 369 b 272 458 265 425 272 446 b 250 482 272 471 261 482 b 211 424 239 482 218 475 b 188 231 204 371 197 290 b 99 3 165 103 131 3 b 63 132 79 3 63 38 b 83 358 63 185 79 340 b 89 401 88 376 89 393 b 63 424 89 410 78 424 z m 217 -235 b 51 -522 217 -435 138 -522 b -49 -412 6 -522 -49 -486 b 214 -157 -49 -293 89 -200 b 217 -235 215 -186 217 -212 z m 69 539 b 88 525 60 525 78 511 b 138 596 113 556 121 568 b 238 528 165 574 179 561 b 250 544 251 521 261 536 b 164 650 211 574 185 613 b 118 636 156 665 121 651 b 69 539 114 614 97 572 z "},"ỳ":{"ha":328,"x_min":0,"x_max":0,"o":"m 63 424 b 33 386 47 424 35 408 b 18 146 32 364 18 203 b 103 -25 18 8 50 -25 b 197 128 146 -25 178 53 b 213 -126 201 56 208 -42 b -92 -406 75 -172 -92 -269 b 58 -550 -92 -496 -10 -550 b 258 -279 182 -550 258 -450 b 251 -144 258 -258 256 -206 b 350 -129 289 -135 322 -129 b 408 -135 371 -129 404 -135 b 421 -128 413 -135 421 -133 b 360 -96 421 -117 404 -96 b 249 -115 335 -96 294 -101 b 238 125 243 -25 238 75 b 258 397 238 214 251 369 b 272 458 265 425 272 446 b 250 482 272 471 261 482 b 211 424 239 482 218 475 b 188 231 204 371 197 290 b 99 3 165 103 131 3 b 63 132 79 3 63 38 b 83 358 63 185 79 340 b 89 401 88 376 89 393 b 63 424 89 410 78 424 z m 217 -235 b 51 -522 217 -435 138 -522 b -49 -412 6 -522 -49 -486 b 214 -157 -49 -293 89 -200 b 217 -235 215 -186 217 -212 z m 65 624 b 206 519 83 586 150 539 b 219 536 225 513 235 528 b 93 683 168 565 121 628 b 65 624 82 706 43 664 z "},"ź":{"ha":304,"x_min":0,"x_max":0,"o":"m 132 486 b 31 321 44 486 31 399 b 43 306 31 311 35 306 b 56 321 49 306 56 310 b 158 449 56 357 108 449 b 213 354 199 449 213 411 b 99 21 213 249 150 93 b 83 22 93 22 89 22 b 26 -14 46 22 26 6 b 68 -46 26 -33 50 -46 b 119 -15 83 -46 101 -35 b 214 -121 165 -28 197 -67 b -72 -397 76 -167 -72 -281 b 103 -547 -72 -493 15 -547 b 269 -251 201 -547 269 -421 b 253 -137 269 -211 264 -172 b 313 -131 274 -133 293 -131 b 386 -139 339 -131 381 -139 b 400 -131 392 -139 400 -136 b 329 -100 400 -122 382 -100 b 244 -111 303 -100 274 -104 b 140 10 222 -54 186 -10 b 254 350 197 85 254 224 b 211 461 254 410 244 436 b 132 486 189 478 168 486 z m 228 -224 b 74 -517 228 -392 169 -517 b -26 -411 25 -517 -26 -490 b 221 -147 -26 -301 100 -189 b 228 -224 225 -171 228 -196 z m 242 696 b 219 694 238 707 226 707 b 88 551 197 656 143 590 b 97 532 72 540 83 525 b 228 618 146 557 201 594 b 242 696 247 638 251 669 z "},"ż":{"ha":304,"x_min":0,"x_max":0,"o":"m 132 486 b 31 321 44 486 31 399 b 43 306 31 311 35 306 b 56 321 49 306 56 310 b 158 449 56 357 108 449 b 213 354 199 449 213 411 b 99 21 213 249 150 93 b 83 22 93 22 89 22 b 26 -14 46 22 26 6 b 68 -46 26 -33 50 -46 b 119 -15 83 -46 101 -35 b 214 -121 165 -28 197 -67 b -72 -397 76 -167 -72 -281 b 103 -547 -72 -493 15 -547 b 269 -251 201 -547 269 -421 b 253 -137 269 -211 264 -172 b 313 -131 274 -133 293 -131 b 386 -139 339 -131 381 -139 b 400 -131 392 -139 400 -136 b 329 -100 400 -122 382 -100 b 244 -111 303 -100 274 -104 b 140 10 222 -54 186 -10 b 254 350 197 85 254 224 b 211 461 254 410 244 436 b 132 486 189 478 168 486 z m 228 -224 b 74 -517 228 -392 169 -517 b -26 -411 25 -517 -26 -490 b 221 -147 -26 -301 100 -189 b 228 -224 225 -171 228 -196 z m 160 626 b 131 592 140 626 131 604 b 169 554 131 568 154 554 b 201 582 183 554 201 567 b 160 626 201 599 183 626 z "},"ž":{"ha":304,"x_min":0,"x_max":0,"o":"m 132 486 b 31 321 44 486 31 399 b 43 306 31 311 35 306 b 56 321 49 306 56 310 b 158 449 56 357 108 449 b 213 354 199 449 213 411 b 99 21 213 249 150 93 b 83 22 93 22 89 22 b 26 -14 46 22 26 6 b 68 -46 26 -33 50 -46 b 119 -15 83 -46 101 -35 b 214 -121 165 -28 197 -67 b -72 -397 76 -167 -72 -281 b 103 -547 -72 -493 15 -547 b 269 -251 201 -547 269 -421 b 253 -137 269 -211 264 -172 b 313 -131 274 -133 293 -131 b 386 -139 339 -131 381 -139 b 400 -131 392 -139 400 -136 b 329 -100 400 -122 382 -100 b 244 -111 303 -100 274 -104 b 140 10 222 -54 186 -10 b 254 350 197 85 254 224 b 211 461 254 410 244 436 b 132 486 189 478 168 486 z m 228 -224 b 74 -517 228 -392 169 -517 b -26 -411 25 -517 -26 -490 b 221 -147 -26 -301 100 -189 b 228 -224 225 -171 228 -196 z m 251 651 b 233 663 260 667 243 678 b 174 593 210 625 185 593 b 56 660 156 593 90 632 b 36 647 42 671 28 661 b 144 544 57 613 106 564 b 179 549 156 539 168 538 b 251 651 199 568 232 617 z "},"þ":{"ha":333,"x_min":0,"x_max":0,"o":"m 121 850 b 103 842 114 850 110 842 b 86 846 96 842 90 846 b 81 821 82 846 81 844 b 53 554 81 797 57 596 b 22 243 49 522 31 388 b -19 -287 14 168 -19 -111 b 7 -436 -19 -396 -10 -432 b 38 -443 17 -439 32 -443 b 38 -415 43 -443 43 -435 b 24 -282 32 -396 24 -336 b 40 7 24 -171 29 -76 l 47 33 b 122 -40 57 -3 82 -40 b 211 15 160 -40 189 -22 b 272 289 251 83 272 189 b 244 436 272 351 260 422 b 168 468 233 447 192 468 b 65 285 132 468 88 350 b 89 499 71 356 79 438 b 144 818 106 606 144 792 b 121 850 144 836 128 850 z m 57 114 b 121 339 74 203 96 276 b 185 440 149 410 168 440 b 225 311 211 440 225 363 b 118 -10 225 147 181 -10 b 74 50 94 -10 74 25 b 82 79 74 67 82 69 b 57 103 82 89 71 103 l 56 103 b 57 114 56 106 57 110 z "},"ƒ":{"ha":485,"x_min":0,"x_max":0,"o":"m 156 269 b 113 -187 203 40 231 -187 b -25 -144 51 -187 -15 -124 b 133 -219 -32 -160 32 -219 b 226 192 221 -219 269 -126 b 215 299 222 225 218 261 b 364 314 272 300 333 304 b 413 365 386 321 413 347 b 403 375 413 372 408 375 b 299 351 397 375 364 356 l 213 347 b 310 781 203 554 225 781 b 397 636 376 781 397 693 b 442 546 397 565 406 546 b 474 644 457 546 474 579 b 400 790 474 700 447 774 b 260 829 361 804 296 829 b 144 344 156 829 122 547 b 83 342 114 343 90 342 b 18 314 47 336 18 335 b 99 297 18 300 64 297 l 150 297 b 156 269 151 288 153 278 z "}}}
